<svg width="302" height="25" viewBox="0 0 302 25" fill="none" xmlns="http://www.w3.org/2000/svg">
<g filter="url(#filter0_d_36_5282)">
<mask id="path-1-outside-1_36_5282" maskUnits="userSpaceOnUse" x="0" y="-1" width="303" height="24" fill="black">
<rect fill="white" y="-1" width="303" height="24"/>
<path d="M22.684 3.4H7.184V9.6H19.584V12.7H7.184V22H0.984V0.299999H22.684V3.4ZM48.3559 18.9H45.2559V22H29.7559V18.9H26.6559V3.4H29.7559V0.299999H45.2559V3.4H48.3559V18.9ZM42.1559 18.9V3.4H32.8559V18.9H42.1559ZM74.0278 22H52.3278V0.299999H58.5277V18.9H74.0278V22ZM99.6996 22H77.9996V0.299999H84.1996V18.9H99.6996V22ZM125.372 18.9H122.272V22H106.772V18.9H103.672V3.4H106.772V0.299999H122.272V3.4H125.372V18.9ZM119.172 18.9V3.4H109.871V18.9H119.172ZM151.043 22H144.843V18.9H141.743V15.8H138.643V18.9H135.543V22H129.343V0.299999H135.543V9.6H138.643V6.5H141.743V9.6H144.843V0.299999H151.043V22ZM202.387 22H196.187V12.7H193.087V15.8H189.987V12.7H186.887V22H180.687V0.299999H186.887V3.4H189.987V6.5H193.087V3.4H196.187V0.299999H202.387V22ZM228.059 22H206.359V0.299999H228.059V3.4H212.559V9.6H224.959V12.7H212.559V18.9H228.059V22ZM279.403 22H273.203V15.8H263.903V22H257.703V6.5H260.803V3.4H263.903V0.299999H273.203V3.4H276.303V6.5H279.403V22ZM273.203 12.7V6.5H270.103V3.4H267.003V6.5H263.903V12.7H273.203ZM301.981 3.4H295.781V22H289.581V3.4H283.381V0.299999H301.981V3.4Z"/>
</mask>
<path d="M22.684 3.4H7.184V9.6H19.584V12.7H7.184V22H0.984V0.299999H22.684V3.4ZM48.3559 18.9H45.2559V22H29.7559V18.9H26.6559V3.4H29.7559V0.299999H45.2559V3.4H48.3559V18.9ZM42.1559 18.9V3.4H32.8559V18.9H42.1559ZM74.0278 22H52.3278V0.299999H58.5277V18.9H74.0278V22ZM99.6996 22H77.9996V0.299999H84.1996V18.9H99.6996V22ZM125.372 18.9H122.272V22H106.772V18.9H103.672V3.4H106.772V0.299999H122.272V3.4H125.372V18.9ZM119.172 18.9V3.4H109.871V18.9H119.172ZM151.043 22H144.843V18.9H141.743V15.8H138.643V18.9H135.543V22H129.343V0.299999H135.543V9.6H138.643V6.5H141.743V9.6H144.843V0.299999H151.043V22ZM202.387 22H196.187V12.7H193.087V15.8H189.987V12.7H186.887V22H180.687V0.299999H186.887V3.4H189.987V6.5H193.087V3.4H196.187V0.299999H202.387V22ZM228.059 22H206.359V0.299999H228.059V3.4H212.559V9.6H224.959V12.7H212.559V18.9H228.059V22ZM279.403 22H273.203V15.8H263.903V22H257.703V6.5H260.803V3.4H263.903V0.299999H273.203V3.4H276.303V6.5H279.403V22ZM273.203 12.7V6.5H270.103V3.4H267.003V6.5H263.903V12.7H273.203ZM301.981 3.4H295.781V22H289.581V3.4H283.381V0.299999H301.981V3.4Z" fill="white"/>
<path d="M22.684 3.4V4.1H23.384V3.4H22.684ZM7.184 3.4V2.7H6.484V3.4H7.184ZM7.184 9.6H6.484V10.3H7.184V9.6ZM19.584 9.6H20.284V8.9H19.584V9.6ZM19.584 12.7V13.4H20.284V12.7H19.584ZM7.184 12.7V12H6.484V12.7H7.184ZM7.184 22V22.7H7.884V22H7.184ZM0.984 22H0.284V22.7H0.984V22ZM0.984 0.299998V-0.400002H0.284V0.299998H0.984ZM22.684 0.299998H23.384V-0.400002H22.684V0.299998ZM22.684 2.7H7.184V4.1H22.684V2.7ZM6.484 3.4V9.6H7.884V3.4H6.484ZM7.184 10.3H19.584V8.9H7.184V10.3ZM18.884 9.6V12.7H20.284V9.6H18.884ZM19.584 12H7.184V13.4H19.584V12ZM6.484 12.7V22H7.884V12.7H6.484ZM7.184 21.3H0.984V22.7H7.184V21.3ZM1.684 22V0.299998H0.284V22H1.684ZM0.984 0.999998H22.684V-0.400002H0.984V0.999998ZM21.984 0.299998V3.4H23.384V0.299998H21.984ZM48.3559 18.9V19.6H49.0559V18.9H48.3559ZM45.2559 18.9V18.2H44.5559V18.9H45.2559ZM45.2559 22V22.7H45.9559V22H45.2559ZM29.7559 22H29.0559V22.7H29.7559V22ZM29.7559 18.9H30.4559V18.2H29.7559V18.9ZM26.6559 18.9H25.9559V19.6H26.6559V18.9ZM26.6559 3.4V2.7H25.9559V3.4H26.6559ZM29.7559 3.4V4.1H30.4559V3.4H29.7559ZM29.7559 0.299998V-0.400002H29.0559V0.299998H29.7559ZM45.2559 0.299998H45.9559V-0.400002H45.2559V0.299998ZM45.2559 3.4H44.5559V4.1H45.2559V3.4ZM48.3559 3.4H49.0559V2.7H48.3559V3.4ZM42.1559 18.9V19.6H42.8559V18.9H42.1559ZM42.1559 3.4H42.8559V2.7H42.1559V3.4ZM32.8559 3.4V2.7H32.1559V3.4H32.8559ZM32.8559 18.9H32.1559V19.6H32.8559V18.9ZM48.3559 18.2H45.2559V19.6H48.3559V18.2ZM44.5559 18.9V22H45.9559V18.9H44.5559ZM45.2559 21.3H29.7559V22.7H45.2559V21.3ZM30.4559 22V18.9H29.0559V22H30.4559ZM29.7559 18.2H26.6559V19.6H29.7559V18.2ZM27.3559 18.9V3.4H25.9559V18.9H27.3559ZM26.6559 4.1H29.7559V2.7H26.6559V4.1ZM30.4559 3.4V0.299998H29.0559V3.4H30.4559ZM29.7559 0.999998H45.2559V-0.400002H29.7559V0.999998ZM44.5559 0.299998V3.4H45.9559V0.299998H44.5559ZM45.2559 4.1H48.3559V2.7H45.2559V4.1ZM47.6559 3.4V18.9H49.0559V3.4H47.6559ZM42.8559 18.9V3.4H41.4559V18.9H42.8559ZM42.1559 2.7H32.8559V4.1H42.1559V2.7ZM32.1559 3.4V18.9H33.5559V3.4H32.1559ZM32.8559 19.6H42.1559V18.2H32.8559V19.6ZM74.0277 22V22.7H74.7278V22H74.0277ZM52.3278 22H51.6278V22.7H52.3278V22ZM52.3278 0.299998V-0.400002H51.6278V0.299998H52.3278ZM58.5277 0.299998H59.2277V-0.400002H58.5277V0.299998ZM58.5277 18.9H57.8278V19.6H58.5277V18.9ZM74.0277 18.9H74.7278V18.2H74.0277V18.9ZM74.0277 21.3H52.3278V22.7H74.0277V21.3ZM53.0278 22V0.299998H51.6278V22H53.0278ZM52.3278 0.999998H58.5277V-0.400002H52.3278V0.999998ZM57.8278 0.299998V18.9H59.2277V0.299998H57.8278ZM58.5277 19.6H74.0277V18.2H58.5277V19.6ZM73.3278 18.9V22H74.7278V18.9H73.3278ZM99.6996 22V22.7H100.4V22H99.6996ZM77.9996 22H77.2996V22.7H77.9996V22ZM77.9996 0.299998V-0.400002H77.2996V0.299998H77.9996ZM84.1996 0.299998H84.8996V-0.400002H84.1996V0.299998ZM84.1996 18.9H83.4996V19.6H84.1996V18.9ZM99.6996 18.9H100.4V18.2H99.6996V18.9ZM99.6996 21.3H77.9996V22.7H99.6996V21.3ZM78.6996 22V0.299998H77.2996V22H78.6996ZM77.9996 0.999998H84.1996V-0.400002H77.9996V0.999998ZM83.4996 0.299998V18.9H84.8996V0.299998H83.4996ZM84.1996 19.6H99.6996V18.2H84.1996V19.6ZM98.9996 18.9V22H100.4V18.9H98.9996ZM125.371 18.9V19.6H126.072V18.9H125.371ZM122.271 18.9V18.2H121.572V18.9H122.271ZM122.271 22V22.7H122.972V22H122.271ZM106.771 22H106.072V22.7H106.771V22ZM106.771 18.9H107.471V18.2H106.771V18.9ZM103.672 18.9H102.971V19.6H103.672V18.9ZM103.672 3.4V2.7H102.971V3.4H103.672ZM106.771 3.4V4.1H107.471V3.4H106.771ZM106.771 0.299998V-0.400002H106.072V0.299998H106.771ZM122.271 0.299998H122.972V-0.400002H122.271V0.299998ZM122.271 3.4H121.572V4.1H122.271V3.4ZM125.371 3.4H126.072V2.7H125.371V3.4ZM119.172 18.9V19.6H119.871V18.9H119.172ZM119.172 3.4H119.871V2.7H119.172V3.4ZM109.871 3.4V2.7H109.172V3.4H109.871ZM109.871 18.9H109.172V19.6H109.871V18.9ZM125.371 18.2H122.271V19.6H125.371V18.2ZM121.572 18.9V22H122.972V18.9H121.572ZM122.271 21.3H106.771V22.7H122.271V21.3ZM107.471 22V18.9H106.072V22H107.471ZM106.771 18.2H103.672V19.6H106.771V18.2ZM104.371 18.9V3.4H102.971V18.9H104.371ZM103.672 4.1H106.771V2.7H103.672V4.1ZM107.471 3.4V0.299998H106.072V3.4H107.471ZM106.771 0.999998H122.271V-0.400002H106.771V0.999998ZM121.572 0.299998V3.4H122.972V0.299998H121.572ZM122.271 4.1H125.371V2.7H122.271V4.1ZM124.672 3.4V18.9H126.072V3.4H124.672ZM119.871 18.9V3.4H118.471V18.9H119.871ZM119.172 2.7H109.871V4.1H119.172V2.7ZM109.172 3.4V18.9H110.572V3.4H109.172ZM109.871 19.6H119.172V18.2H109.871V19.6ZM151.043 22V22.7H151.743V22H151.043ZM144.843 22H144.143V22.7H144.843V22ZM144.843 18.9H145.543V18.2H144.843V18.9ZM141.743 18.9H141.043V19.6H141.743V18.9ZM141.743 15.8H142.443V15.1H141.743V15.8ZM138.643 15.8V15.1H137.943V15.8H138.643ZM138.643 18.9V19.6H139.343V18.9H138.643ZM135.543 18.9V18.2H134.843V18.9H135.543ZM135.543 22V22.7H136.243V22H135.543ZM129.343 22H128.643V22.7H129.343V22ZM129.343 0.299998V-0.400002H128.643V0.299998H129.343ZM135.543 0.299998H136.243V-0.400002H135.543V0.299998ZM135.543 9.6H134.843V10.3H135.543V9.6ZM138.643 9.6V10.3H139.343V9.6H138.643ZM138.643 6.5V5.8H137.943V6.5H138.643ZM141.743 6.5H142.443V5.8H141.743V6.5ZM141.743 9.6H141.043V10.3H141.743V9.6ZM144.843 9.6V10.3H145.543V9.6H144.843ZM144.843 0.299998V-0.400002H144.143V0.299998H144.843ZM151.043 0.299998H151.743V-0.400002H151.043V0.299998ZM151.043 21.3H144.843V22.7H151.043V21.3ZM145.543 22V18.9H144.143V22H145.543ZM144.843 18.2H141.743V19.6H144.843V18.2ZM142.443 18.9V15.8H141.043V18.9H142.443ZM141.743 15.1H138.643V16.5H141.743V15.1ZM137.943 15.8V18.9H139.343V15.8H137.943ZM138.643 18.2H135.543V19.6H138.643V18.2ZM134.843 18.9V22H136.243V18.9H134.843ZM135.543 21.3H129.343V22.7H135.543V21.3ZM130.043 22V0.299998H128.643V22H130.043ZM129.343 0.999998H135.543V-0.400002H129.343V0.999998ZM134.843 0.299998V9.6H136.243V0.299998H134.843ZM135.543 10.3H138.643V8.9H135.543V10.3ZM139.343 9.6V6.5H137.943V9.6H139.343ZM138.643 7.2H141.743V5.8H138.643V7.2ZM141.043 6.5V9.6H142.443V6.5H141.043ZM141.743 10.3H144.843V8.9H141.743V10.3ZM145.543 9.6V0.299998H144.143V9.6H145.543ZM144.843 0.999998H151.043V-0.400002H144.843V0.999998ZM150.343 0.299998V22H151.743V0.299998H150.343ZM202.387 22V22.7H203.087V22H202.387ZM196.187 22H195.487V22.7H196.187V22ZM196.187 12.7H196.887V12H196.187V12.7ZM193.087 12.7V12H192.387V12.7H193.087ZM193.087 15.8V16.5H193.787V15.8H193.087ZM189.987 15.8H189.287V16.5H189.987V15.8ZM189.987 12.7H190.687V12H189.987V12.7ZM186.887 12.7V12H186.187V12.7H186.887ZM186.887 22V22.7H187.587V22H186.887ZM180.687 22H179.987V22.7H180.687V22ZM180.687 0.299998V-0.400002H179.987V0.299998H180.687ZM186.887 0.299998H187.587V-0.400002H186.887V0.299998ZM186.887 3.4H186.187V4.1H186.887V3.4ZM189.987 3.4H190.687V2.7H189.987V3.4ZM189.987 6.5H189.287V7.2H189.987V6.5ZM193.087 6.5V7.2H193.787V6.5H193.087ZM193.087 3.4V2.7H192.387V3.4H193.087ZM196.187 3.4V4.1H196.887V3.4H196.187ZM196.187 0.299998V-0.400002H195.487V0.299998H196.187ZM202.387 0.299998H203.087V-0.400002H202.387V0.299998ZM202.387 21.3H196.187V22.7H202.387V21.3ZM196.887 22V12.7H195.487V22H196.887ZM196.187 12H193.087V13.4H196.187V12ZM192.387 12.7V15.8H193.787V12.7H192.387ZM193.087 15.1H189.987V16.5H193.087V15.1ZM190.687 15.8V12.7H189.287V15.8H190.687ZM189.987 12H186.887V13.4H189.987V12ZM186.187 12.7V22H187.587V12.7H186.187ZM186.887 21.3H180.687V22.7H186.887V21.3ZM181.387 22V0.299998H179.987V22H181.387ZM180.687 0.999998H186.887V-0.400002H180.687V0.999998ZM186.187 0.299998V3.4H187.587V0.299998H186.187ZM186.887 4.1H189.987V2.7H186.887V4.1ZM189.287 3.4V6.5H190.687V3.4H189.287ZM189.987 7.2H193.087V5.8H189.987V7.2ZM193.787 6.5V3.4H192.387V6.5H193.787ZM193.087 4.1H196.187V2.7H193.087V4.1ZM196.887 3.4V0.299998H195.487V3.4H196.887ZM196.187 0.999998H202.387V-0.400002H196.187V0.999998ZM201.687 0.299998V22H203.087V0.299998H201.687ZM228.059 22V22.7H228.759V22H228.059ZM206.359 22H205.659V22.7H206.359V22ZM206.359 0.299998V-0.400002H205.659V0.299998H206.359ZM228.059 0.299998H228.759V-0.400002H228.059V0.299998ZM228.059 3.4V4.1H228.759V3.4H228.059ZM212.559 3.4V2.7H211.859V3.4H212.559ZM212.559 9.6H211.859V10.3H212.559V9.6ZM224.959 9.6H225.659V8.9H224.959V9.6ZM224.959 12.7V13.4H225.659V12.7H224.959ZM212.559 12.7V12H211.859V12.7H212.559ZM212.559 18.9H211.859V19.6H212.559V18.9ZM228.059 18.9H228.759V18.2H228.059V18.9ZM228.059 21.3H206.359V22.7H228.059V21.3ZM207.059 22V0.299998H205.659V22H207.059ZM206.359 0.999998H228.059V-0.400002H206.359V0.999998ZM227.359 0.299998V3.4H228.759V0.299998H227.359ZM228.059 2.7H212.559V4.1H228.059V2.7ZM211.859 3.4V9.6H213.259V3.4H211.859ZM212.559 10.3H224.959V8.9H212.559V10.3ZM224.259 9.6V12.7H225.659V9.6H224.259ZM224.959 12H212.559V13.4H224.959V12ZM211.859 12.7V18.9H213.259V12.7H211.859ZM212.559 19.6H228.059V18.2H212.559V19.6ZM227.359 18.9V22H228.759V18.9H227.359ZM279.403 22V22.7H280.103V22H279.403ZM273.203 22H272.503V22.7H273.203V22ZM273.203 15.8H273.903V15.1H273.203V15.8ZM263.903 15.8V15.1H263.203V15.8H263.903ZM263.903 22V22.7H264.603V22H263.903ZM257.703 22H257.003V22.7H257.703V22ZM257.703 6.5V5.8H257.003V6.5H257.703ZM260.803 6.5V7.2H261.503V6.5H260.803ZM260.803 3.4V2.7H260.103V3.4H260.803ZM263.903 3.4V4.1H264.603V3.4H263.903ZM263.903 0.299998V-0.400002H263.203V0.299998H263.903ZM273.203 0.299998H273.903V-0.400002H273.203V0.299998ZM273.203 3.4H272.503V4.1H273.203V3.4ZM276.303 3.4H277.003V2.7H276.303V3.4ZM276.303 6.5H275.603V7.2H276.303V6.5ZM279.403 6.5H280.103V5.8H279.403V6.5ZM273.203 12.7V13.4H273.903V12.7H273.203ZM273.203 6.5H273.903V5.8H273.203V6.5ZM270.103 6.5H269.403V7.2H270.103V6.5ZM270.103 3.4H270.803V2.7H270.103V3.4ZM267.003 3.4V2.7H266.303V3.4H267.003ZM267.003 6.5V7.2H267.703V6.5H267.003ZM263.903 6.5V5.8H263.203V6.5H263.903ZM263.903 12.7H263.203V13.4H263.903V12.7ZM279.403 21.3H273.203V22.7H279.403V21.3ZM273.903 22V15.8H272.503V22H273.903ZM273.203 15.1H263.903V16.5H273.203V15.1ZM263.203 15.8V22H264.603V15.8H263.203ZM263.903 21.3H257.703V22.7H263.903V21.3ZM258.403 22V6.5H257.003V22H258.403ZM257.703 7.2H260.803V5.8H257.703V7.2ZM261.503 6.5V3.4H260.103V6.5H261.503ZM260.803 4.1H263.903V2.7H260.803V4.1ZM264.603 3.4V0.299998H263.203V3.4H264.603ZM263.903 0.999998H273.203V-0.400002H263.903V0.999998ZM272.503 0.299998V3.4H273.903V0.299998H272.503ZM273.203 4.1H276.303V2.7H273.203V4.1ZM275.603 3.4V6.5H277.003V3.4H275.603ZM276.303 7.2H279.403V5.8H276.303V7.2ZM278.703 6.5V22H280.103V6.5H278.703ZM273.903 12.7V6.5H272.503V12.7H273.903ZM273.203 5.8H270.103V7.2H273.203V5.8ZM270.803 6.5V3.4H269.403V6.5H270.803ZM270.103 2.7H267.003V4.1H270.103V2.7ZM266.303 3.4V6.5H267.703V3.4H266.303ZM267.003 5.8H263.903V7.2H267.003V5.8ZM263.203 6.5V12.7H264.603V6.5H263.203ZM263.903 13.4H273.203V12H263.903V13.4ZM301.981 3.4V4.1H302.681V3.4H301.981ZM295.781 3.4V2.7H295.081V3.4H295.781ZM295.781 22V22.7H296.481V22H295.781ZM289.581 22H288.881V22.7H289.581V22ZM289.581 3.4H290.281V2.7H289.581V3.4ZM283.381 3.4H282.681V4.1H283.381V3.4ZM283.381 0.299998V-0.400002H282.681V0.299998H283.381ZM301.981 0.299998H302.681V-0.400002H301.981V0.299998ZM301.981 2.7H295.781V4.1H301.981V2.7ZM295.081 3.4V22H296.481V3.4H295.081ZM295.781 21.3H289.581V22.7H295.781V21.3ZM290.281 22V3.4H288.881V22H290.281ZM289.581 2.7H283.381V4.1H289.581V2.7ZM284.081 3.4V0.299998H282.681V3.4H284.081ZM283.381 0.999998H301.981V-0.400002H283.381V0.999998ZM301.281 0.299998V3.4H302.681V0.299998H301.281Z" fill="black" mask="url(#path-1-outside-1_36_5282)"/>
</g>
<defs>
<filter id="filter0_d_36_5282" x="0.984009" y="0.300049" width="300.997" height="24.7" filterUnits="userSpaceOnUse" color-interpolation-filters="sRGB">
<feFlood flood-opacity="0" result="BackgroundImageFix"/>
<feColorMatrix in="SourceAlpha" type="matrix" values="0 0 0 0 0 0 0 0 0 0 0 0 0 0 0 0 0 0 127 0" result="hardAlpha"/>
<feOffset dy="3"/>
<feComposite in2="hardAlpha" operator="out"/>
<feColorMatrix type="matrix" values="0 0 0 0 0.25098 0 0 0 0 0.184314 0 0 0 0 0.360784 0 0 0 1 0"/>
<feBlend mode="normal" in2="BackgroundImageFix" result="effect1_dropShadow_36_5282"/>
<feBlend mode="normal" in="SourceGraphic" in2="effect1_dropShadow_36_5282" result="shape"/>
</filter>
</defs>
</svg>
