<svg width="272" height="185" viewBox="0 0 272 185" fill="none" xmlns="http://www.w3.org/2000/svg">
<g filter="url(#filter0_d_36_5340)">
<path fill-rule="evenodd" clip-rule="evenodd" d="M36 59V126H41V136H49V141H59V149H214V144H223V136H230V125H236V59H231V49H223V44H213V36H58V44H48V49H40V59H36Z" fill="#402F5C"/>
<path d="M101.392 101.2H98.592V104H84.592V101.2H81.792V98.4H87.392V101.2H95.792V95.6H84.592V92.8H81.792V87.2H84.592V84.4H95.792V87.2H98.592V90H92.992V87.2H87.392V92.8H98.592V95.6H101.392V101.2ZM120.39 87.2H114.79V104H109.19V87.2H103.59V84.4H120.39V87.2ZM143.583 104H137.983V98.4H129.583V104H123.983V90H126.783V87.2H129.583V84.4H137.983V87.2H140.783V90H143.583V104ZM137.983 95.6V90H135.183V87.2H132.383V90H129.583V95.6H137.983ZM166.771 104H158.371V101.2H155.571V98.4H152.771V104H147.171V84.4H163.971V87.2H166.771V95.6H161.171V98.4H163.971V101.2H166.771V104ZM161.171 92.8V87.2H152.771V95.6H158.371V92.8H161.171ZM188.558 87.2H182.958V104H177.358V87.2H171.758V84.4H188.558V87.2Z" fill="white"/>
<mask id="mask0_36_5340" style="mask-type:alpha" maskUnits="userSpaceOnUse" x="81" y="84" width="108" height="20">
<path d="M101.392 101.2H98.592V104H84.592V101.2H81.792V98.4H87.392V101.2H95.792V95.6H84.592V92.8H81.792V87.2H84.592V84.4H95.792V87.2H98.592V90H92.992V87.2H87.392V92.8H98.592V95.6H101.392V101.2ZM120.39 87.2H114.79V104H109.19V87.2H103.59V84.4H120.39V87.2ZM143.583 104H137.983V98.4H129.583V104H123.983V90H126.783V87.2H129.583V84.4H137.983V87.2H140.783V90H143.583V104ZM137.983 95.6V90H135.183V87.2H132.383V90H129.583V95.6H137.983ZM166.771 104H158.371V101.2H155.571V98.4H152.771V104H147.171V84.4H163.971V87.2H166.771V95.6H161.171V98.4H163.971V101.2H166.771V104ZM161.171 92.8V87.2H152.771V95.6H158.371V92.8H161.171ZM188.558 87.2H182.958V104H177.358V87.2H171.758V84.4H188.558V87.2Z" fill="white"/>
</mask>
<g mask="url(#mask0_36_5340)">
<rect x="75" y="94" width="121" height="10" fill="#EB9BD5"/>
</g>
</g>
<defs>
<filter id="filter0_d_36_5340" x="0" y="0" width="272" height="185" filterUnits="userSpaceOnUse" color-interpolation-filters="sRGB">
<feFlood flood-opacity="0" result="BackgroundImageFix"/>
<feColorMatrix in="SourceAlpha" type="matrix" values="0 0 0 0 0 0 0 0 0 0 0 0 0 0 0 0 0 0 127 0" result="hardAlpha"/>
<feOffset/>
<feGaussianBlur stdDeviation="18"/>
<feComposite in2="hardAlpha" operator="out"/>
<feBlend mode="normal" in2="BackgroundImageFix" result="effect1_dropShadow_36_5340"/>
<feBlend mode="normal" in="SourceGraphic" in2="effect1_dropShadow_36_5340" result="shape"/>
</filter>
</defs>
</svg>
