<svg width="447" height="184" viewBox="0 0 447 184" fill="none" xmlns="http://www.w3.org/2000/svg">
<g filter="url(#filter0_d_36_5274)">
<mask id="path-1-outside-1_36_5274" maskUnits="userSpaceOnUse" x="3" y="22" width="436" height="148" fill="black">
<rect fill="white" x="3" y="22" width="436" height="148"/>
<path d="M58.828 77H43.428V69.3H35.728V61.6H28.028V69.3H20.328V77H4.928V23.1H20.328V46.2H28.028V38.5H35.728V46.2H43.428V23.1H58.828V77ZM122.594 77H68.6936V23.1H122.594V30.8H84.0936V46.2H114.894V53.9H84.0936V69.3H122.594V77ZM186.359 77H132.459V23.1H147.859V69.3H186.359V77ZM246.29 69.3H238.59V77H207.79V69.3H200.09V61.6H192.39V38.5H200.09V30.8H207.79V23.1H238.59V30.8H246.29V38.5H230.89V30.8H215.49V38.5H207.79V61.6H215.49V69.3H230.89V61.6H246.29V69.3ZM310.056 69.3H302.356V77H263.856V69.3H256.156V30.8H263.856V23.1H302.356V30.8H310.056V69.3ZM294.656 69.3V30.8H271.556V69.3H294.656ZM373.821 77H358.421V53.9H350.721V61.6H343.021V53.9H335.321V77H319.921V23.1H335.321V30.8H343.021V38.5H350.721V30.8H358.421V23.1H373.821V77ZM437.587 77H383.687V23.1H437.587V30.8H399.087V46.2H429.887V53.9H399.087V69.3H437.587V77ZM58.828 145.9H51.128V153.6H20.328V169H4.928V115.1H51.128V122.8H58.828V145.9ZM43.428 145.9V122.8H20.328V145.9H43.428ZM122.594 169H68.6936V115.1H84.0936V161.3H122.594V169ZM186.359 169H170.959V153.6H147.859V169H132.459V130.5H140.159V122.8H147.859V115.1H170.959V122.8H178.659V130.5H186.359V169ZM170.959 145.9V130.5H163.259V122.8H155.559V130.5H147.859V145.9H170.959ZM246.275 138.2H238.575V145.9H230.875V169H215.475V145.9H207.698V138.2H200.075V115.1H215.475V138.2H230.875V115.1H246.275V138.2ZM313.891 169H259.991V115.1H313.891V122.8H275.39V138.2H306.191V145.9H275.39V161.3H313.891V169ZM377.656 169H354.556V161.3H346.856V153.6H339.156V169H323.756V115.1H369.956V122.8H377.656V145.9H362.256V153.6H369.956V161.3H377.656V169ZM362.256 138.2V122.8H339.156V145.9H354.556V138.2H362.256ZM437.572 169H391.372V161.3H406.772V130.5H398.995V122.8H406.772V115.1H422.172V161.3H437.572V169Z"/>
</mask>
<path d="M58.828 77H43.428V69.3H35.728V61.6H28.028V69.3H20.328V77H4.928V23.1H20.328V46.2H28.028V38.5H35.728V46.2H43.428V23.1H58.828V77ZM122.594 77H68.6936V23.1H122.594V30.8H84.0936V46.2H114.894V53.9H84.0936V69.3H122.594V77ZM186.359 77H132.459V23.1H147.859V69.3H186.359V77ZM246.29 69.3H238.59V77H207.79V69.3H200.09V61.6H192.39V38.5H200.09V30.8H207.79V23.1H238.59V30.8H246.29V38.5H230.89V30.8H215.49V38.5H207.79V61.6H215.49V69.3H230.89V61.6H246.29V69.3ZM310.056 69.3H302.356V77H263.856V69.3H256.156V30.8H263.856V23.1H302.356V30.8H310.056V69.3ZM294.656 69.3V30.8H271.556V69.3H294.656ZM373.821 77H358.421V53.9H350.721V61.6H343.021V53.9H335.321V77H319.921V23.1H335.321V30.8H343.021V38.5H350.721V30.8H358.421V23.1H373.821V77ZM437.587 77H383.687V23.1H437.587V30.8H399.087V46.2H429.887V53.9H399.087V69.3H437.587V77ZM58.828 145.9H51.128V153.6H20.328V169H4.928V115.1H51.128V122.8H58.828V145.9ZM43.428 145.9V122.8H20.328V145.9H43.428ZM122.594 169H68.6936V115.1H84.0936V161.3H122.594V169ZM186.359 169H170.959V153.6H147.859V169H132.459V130.5H140.159V122.8H147.859V115.1H170.959V122.8H178.659V130.5H186.359V169ZM170.959 145.9V130.5H163.259V122.8H155.559V130.5H147.859V145.9H170.959ZM246.275 138.2H238.575V145.9H230.875V169H215.475V145.9H207.698V138.2H200.075V115.1H215.475V138.2H230.875V115.1H246.275V138.2ZM313.891 169H259.991V115.1H313.891V122.8H275.39V138.2H306.191V145.9H275.39V161.3H313.891V169ZM377.656 169H354.556V161.3H346.856V153.6H339.156V169H323.756V115.1H369.956V122.8H377.656V145.9H362.256V153.6H369.956V161.3H377.656V169ZM362.256 138.2V122.8H339.156V145.9H354.556V138.2H362.256ZM437.572 169H391.372V161.3H406.772V130.5H398.995V122.8H406.772V115.1H422.172V161.3H437.572V169Z" fill="white"/>
<path d="M58.828 77V78H59.828V77H58.828ZM43.428 77H42.428V78H43.428V77ZM43.428 69.3H44.428V68.3H43.428V69.3ZM35.728 69.3H34.728V70.3H35.728V69.3ZM35.728 61.6H36.728V60.6H35.728V61.6ZM28.028 61.6V60.6H27.028V61.6H28.028ZM28.028 69.3V70.3H29.028V69.3H28.028ZM20.328 69.3V68.3H19.328V69.3H20.328ZM20.328 77V78H21.328V77H20.328ZM4.928 77H3.928V78H4.928V77ZM4.928 23.1V22.1H3.928V23.1H4.928ZM20.328 23.1H21.328V22.1H20.328V23.1ZM20.328 46.2H19.328V47.2H20.328V46.2ZM28.028 46.2V47.2H29.028V46.2H28.028ZM28.028 38.5V37.5H27.028V38.5H28.028ZM35.728 38.5H36.728V37.5H35.728V38.5ZM35.728 46.2H34.728V47.2H35.728V46.2ZM43.428 46.2V47.2H44.428V46.2H43.428ZM43.428 23.1V22.1H42.428V23.1H43.428ZM58.828 23.1H59.828V22.1H58.828V23.1ZM58.828 76H43.428V78H58.828V76ZM44.428 77V69.3H42.428V77H44.428ZM43.428 68.3H35.728V70.3H43.428V68.3ZM36.728 69.3V61.6H34.728V69.3H36.728ZM35.728 60.6H28.028V62.6H35.728V60.6ZM27.028 61.6V69.3H29.028V61.6H27.028ZM28.028 68.3H20.328V70.3H28.028V68.3ZM19.328 69.3V77H21.328V69.3H19.328ZM20.328 76H4.928V78H20.328V76ZM5.928 77V23.1H3.928V77H5.928ZM4.928 24.1H20.328V22.1H4.928V24.1ZM19.328 23.1V46.2H21.328V23.1H19.328ZM20.328 47.2H28.028V45.2H20.328V47.2ZM29.028 46.2V38.5H27.028V46.2H29.028ZM28.028 39.5H35.728V37.5H28.028V39.5ZM34.728 38.5V46.2H36.728V38.5H34.728ZM35.728 47.2H43.428V45.2H35.728V47.2ZM44.428 46.2V23.1H42.428V46.2H44.428ZM43.428 24.1H58.828V22.1H43.428V24.1ZM57.828 23.1V77H59.828V23.1H57.828ZM122.594 77V78H123.594V77H122.594ZM68.6936 77H67.6936V78H68.6936V77ZM68.6936 23.1V22.1H67.6936V23.1H68.6936ZM122.594 23.1H123.594V22.1H122.594V23.1ZM122.594 30.8V31.8H123.594V30.8H122.594ZM84.0936 30.8V29.8H83.0936V30.8H84.0936ZM84.0936 46.2H83.0936V47.2H84.0936V46.2ZM114.894 46.2H115.894V45.2H114.894V46.2ZM114.894 53.9V54.9H115.894V53.9H114.894ZM84.0936 53.9V52.9H83.0936V53.9H84.0936ZM84.0936 69.3H83.0936V70.3H84.0936V69.3ZM122.594 69.3H123.594V68.3H122.594V69.3ZM122.594 76H68.6936V78H122.594V76ZM69.6936 77V23.1H67.6936V77H69.6936ZM68.6936 24.1H122.594V22.1H68.6936V24.1ZM121.594 23.1V30.8H123.594V23.1H121.594ZM122.594 29.8H84.0936V31.8H122.594V29.8ZM83.0936 30.8V46.2H85.0936V30.8H83.0936ZM84.0936 47.2H114.894V45.2H84.0936V47.2ZM113.894 46.2V53.9H115.894V46.2H113.894ZM114.894 52.9H84.0936V54.9H114.894V52.9ZM83.0936 53.9V69.3H85.0936V53.9H83.0936ZM84.0936 70.3H122.594V68.3H84.0936V70.3ZM121.594 69.3V77H123.594V69.3H121.594ZM186.359 77V78H187.359V77H186.359ZM132.459 77H131.459V78H132.459V77ZM132.459 23.1V22.1H131.459V23.1H132.459ZM147.859 23.1H148.859V22.1H147.859V23.1ZM147.859 69.3H146.859V70.3H147.859V69.3ZM186.359 69.3H187.359V68.3H186.359V69.3ZM186.359 76H132.459V78H186.359V76ZM133.459 77V23.1H131.459V77H133.459ZM132.459 24.1H147.859V22.1H132.459V24.1ZM146.859 23.1V69.3H148.859V23.1H146.859ZM147.859 70.3H186.359V68.3H147.859V70.3ZM185.359 69.3V77H187.359V69.3H185.359ZM246.29 69.3V70.3H247.29V69.3H246.29ZM238.59 69.3V68.3H237.59V69.3H238.59ZM238.59 77V78H239.59V77H238.59ZM207.79 77H206.79V78H207.79V77ZM207.79 69.3H208.79V68.3H207.79V69.3ZM200.09 69.3H199.09V70.3H200.09V69.3ZM200.09 61.6H201.09V60.6H200.09V61.6ZM192.39 61.6H191.39V62.6H192.39V61.6ZM192.39 38.5V37.5H191.39V38.5H192.39ZM200.09 38.5V39.5H201.09V38.5H200.09ZM200.09 30.8V29.8H199.09V30.8H200.09ZM207.79 30.8V31.8H208.79V30.8H207.79ZM207.79 23.1V22.1H206.79V23.1H207.79ZM238.59 23.1H239.59V22.1H238.59V23.1ZM238.59 30.8H237.59V31.8H238.59V30.8ZM246.29 30.8H247.29V29.8H246.29V30.8ZM246.29 38.5V39.5H247.29V38.5H246.29ZM230.89 38.5H229.89V39.5H230.89V38.5ZM230.89 30.8H231.89V29.8H230.89V30.8ZM215.49 30.8V29.8H214.49V30.8H215.49ZM215.49 38.5V39.5H216.49V38.5H215.49ZM207.79 38.5V37.5H206.79V38.5H207.79ZM207.79 61.6H206.79V62.6H207.79V61.6ZM215.49 61.6H216.49V60.6H215.49V61.6ZM215.49 69.3H214.49V70.3H215.49V69.3ZM230.89 69.3V70.3H231.89V69.3H230.89ZM230.89 61.6V60.6H229.89V61.6H230.89ZM246.29 61.6H247.29V60.6H246.29V61.6ZM246.29 68.3H238.59V70.3H246.29V68.3ZM237.59 69.3V77H239.59V69.3H237.59ZM238.59 76H207.79V78H238.59V76ZM208.79 77V69.3H206.79V77H208.79ZM207.79 68.3H200.09V70.3H207.79V68.3ZM201.09 69.3V61.6H199.09V69.3H201.09ZM200.09 60.6H192.39V62.6H200.09V60.6ZM193.39 61.6V38.5H191.39V61.6H193.39ZM192.39 39.5H200.09V37.5H192.39V39.5ZM201.09 38.5V30.8H199.09V38.5H201.09ZM200.09 31.8H207.79V29.8H200.09V31.8ZM208.79 30.8V23.1H206.79V30.8H208.79ZM207.79 24.1H238.59V22.1H207.79V24.1ZM237.59 23.1V30.8H239.59V23.1H237.59ZM238.59 31.8H246.29V29.8H238.59V31.8ZM245.29 30.8V38.5H247.29V30.8H245.29ZM246.29 37.5H230.89V39.5H246.29V37.5ZM231.89 38.5V30.8H229.89V38.5H231.89ZM230.89 29.8H215.49V31.8H230.89V29.8ZM214.49 30.8V38.5H216.49V30.8H214.49ZM215.49 37.5H207.79V39.5H215.49V37.5ZM206.79 38.5V61.6H208.79V38.5H206.79ZM207.79 62.6H215.49V60.6H207.79V62.6ZM214.49 61.6V69.3H216.49V61.6H214.49ZM215.49 70.3H230.89V68.3H215.49V70.3ZM231.89 69.3V61.6H229.89V69.3H231.89ZM230.89 62.6H246.29V60.6H230.89V62.6ZM245.29 61.6V69.3H247.29V61.6H245.29ZM310.056 69.3V70.3H311.056V69.3H310.056ZM302.356 69.3V68.3H301.356V69.3H302.356ZM302.356 77V78H303.356V77H302.356ZM263.856 77H262.856V78H263.856V77ZM263.856 69.3H264.856V68.3H263.856V69.3ZM256.156 69.3H255.156V70.3H256.156V69.3ZM256.156 30.8V29.8H255.156V30.8H256.156ZM263.856 30.8V31.8H264.856V30.8H263.856ZM263.856 23.1V22.1H262.856V23.1H263.856ZM302.356 23.1H303.356V22.1H302.356V23.1ZM302.356 30.8H301.356V31.8H302.356V30.8ZM310.056 30.8H311.056V29.8H310.056V30.8ZM294.656 69.3V70.3H295.656V69.3H294.656ZM294.656 30.8H295.656V29.8H294.656V30.8ZM271.556 30.8V29.8H270.556V30.8H271.556ZM271.556 69.3H270.556V70.3H271.556V69.3ZM310.056 68.3H302.356V70.3H310.056V68.3ZM301.356 69.3V77H303.356V69.3H301.356ZM302.356 76H263.856V78H302.356V76ZM264.856 77V69.3H262.856V77H264.856ZM263.856 68.3H256.156V70.3H263.856V68.3ZM257.156 69.3V30.8H255.156V69.3H257.156ZM256.156 31.8H263.856V29.8H256.156V31.8ZM264.856 30.8V23.1H262.856V30.8H264.856ZM263.856 24.1H302.356V22.1H263.856V24.1ZM301.356 23.1V30.8H303.356V23.1H301.356ZM302.356 31.8H310.056V29.8H302.356V31.8ZM309.056 30.8V69.3H311.056V30.8H309.056ZM295.656 69.3V30.8H293.656V69.3H295.656ZM294.656 29.8H271.556V31.8H294.656V29.8ZM270.556 30.8V69.3H272.556V30.8H270.556ZM271.556 70.3H294.656V68.3H271.556V70.3ZM373.821 77V78H374.821V77H373.821ZM358.421 77H357.421V78H358.421V77ZM358.421 53.9H359.421V52.9H358.421V53.9ZM350.721 53.9V52.9H349.721V53.9H350.721ZM350.721 61.6V62.6H351.721V61.6H350.721ZM343.021 61.6H342.021V62.6H343.021V61.6ZM343.021 53.9H344.021V52.9H343.021V53.9ZM335.321 53.9V52.9H334.321V53.9H335.321ZM335.321 77V78H336.321V77H335.321ZM319.921 77H318.921V78H319.921V77ZM319.921 23.1V22.1H318.921V23.1H319.921ZM335.321 23.1H336.321V22.1H335.321V23.1ZM335.321 30.8H334.321V31.8H335.321V30.8ZM343.021 30.8H344.021V29.8H343.021V30.8ZM343.021 38.5H342.021V39.5H343.021V38.5ZM350.721 38.5V39.5H351.721V38.5H350.721ZM350.721 30.8V29.8H349.721V30.8H350.721ZM358.421 30.8V31.8H359.421V30.8H358.421ZM358.421 23.1V22.1H357.421V23.1H358.421ZM373.821 23.1H374.821V22.1H373.821V23.1ZM373.821 76H358.421V78H373.821V76ZM359.421 77V53.9H357.421V77H359.421ZM358.421 52.9H350.721V54.9H358.421V52.9ZM349.721 53.9V61.6H351.721V53.9H349.721ZM350.721 60.6H343.021V62.6H350.721V60.6ZM344.021 61.6V53.9H342.021V61.6H344.021ZM343.021 52.9H335.321V54.9H343.021V52.9ZM334.321 53.9V77H336.321V53.9H334.321ZM335.321 76H319.921V78H335.321V76ZM320.921 77V23.1H318.921V77H320.921ZM319.921 24.1H335.321V22.1H319.921V24.1ZM334.321 23.1V30.8H336.321V23.1H334.321ZM335.321 31.8H343.021V29.8H335.321V31.8ZM342.021 30.8V38.5H344.021V30.8H342.021ZM343.021 39.5H350.721V37.5H343.021V39.5ZM351.721 38.5V30.8H349.721V38.5H351.721ZM350.721 31.8H358.421V29.8H350.721V31.8ZM359.421 30.8V23.1H357.421V30.8H359.421ZM358.421 24.1H373.821V22.1H358.421V24.1ZM372.821 23.1V77H374.821V23.1H372.821ZM437.587 77V78H438.587V77H437.587ZM383.687 77H382.687V78H383.687V77ZM383.687 23.1V22.1H382.687V23.1H383.687ZM437.587 23.1H438.587V22.1H437.587V23.1ZM437.587 30.8V31.8H438.587V30.8H437.587ZM399.087 30.8V29.8H398.087V30.8H399.087ZM399.087 46.2H398.087V47.2H399.087V46.2ZM429.887 46.2H430.887V45.2H429.887V46.2ZM429.887 53.9V54.9H430.887V53.9H429.887ZM399.087 53.9V52.9H398.087V53.9H399.087ZM399.087 69.3H398.087V70.3H399.087V69.3ZM437.587 69.3H438.587V68.3H437.587V69.3ZM437.587 76H383.687V78H437.587V76ZM384.687 77V23.1H382.687V77H384.687ZM383.687 24.1H437.587V22.1H383.687V24.1ZM436.587 23.1V30.8H438.587V23.1H436.587ZM437.587 29.8H399.087V31.8H437.587V29.8ZM398.087 30.8V46.2H400.087V30.8H398.087ZM399.087 47.2H429.887V45.2H399.087V47.2ZM428.887 46.2V53.9H430.887V46.2H428.887ZM429.887 52.9H399.087V54.9H429.887V52.9ZM398.087 53.9V69.3H400.087V53.9H398.087ZM399.087 70.3H437.587V68.3H399.087V70.3ZM436.587 69.3V77H438.587V69.3H436.587ZM58.828 145.9V146.9H59.828V145.9H58.828ZM51.128 145.9V144.9H50.128V145.9H51.128ZM51.128 153.6V154.6H52.128V153.6H51.128ZM20.328 153.6V152.6H19.328V153.6H20.328ZM20.328 169V170H21.328V169H20.328ZM4.928 169H3.928V170H4.928V169ZM4.928 115.1V114.1H3.928V115.1H4.928ZM51.128 115.1H52.128V114.1H51.128V115.1ZM51.128 122.8H50.128V123.8H51.128V122.8ZM58.828 122.8H59.828V121.8H58.828V122.8ZM43.428 145.9V146.9H44.428V145.9H43.428ZM43.428 122.8H44.428V121.8H43.428V122.8ZM20.328 122.8V121.8H19.328V122.8H20.328ZM20.328 145.9H19.328V146.9H20.328V145.9ZM58.828 144.9H51.128V146.9H58.828V144.9ZM50.128 145.9V153.6H52.128V145.9H50.128ZM51.128 152.6H20.328V154.6H51.128V152.6ZM19.328 153.6V169H21.328V153.6H19.328ZM20.328 168H4.928V170H20.328V168ZM5.928 169V115.1H3.928V169H5.928ZM4.928 116.1H51.128V114.1H4.928V116.1ZM50.128 115.1V122.8H52.128V115.1H50.128ZM51.128 123.8H58.828V121.8H51.128V123.8ZM57.828 122.8V145.9H59.828V122.8H57.828ZM44.428 145.9V122.8H42.428V145.9H44.428ZM43.428 121.8H20.328V123.8H43.428V121.8ZM19.328 122.8V145.9H21.328V122.8H19.328ZM20.328 146.9H43.428V144.9H20.328V146.9ZM122.594 169V170H123.594V169H122.594ZM68.6936 169H67.6936V170H68.6936V169ZM68.6936 115.1V114.1H67.6936V115.1H68.6936ZM84.0936 115.1H85.0936V114.1H84.0936V115.1ZM84.0936 161.3H83.0936V162.3H84.0936V161.3ZM122.594 161.3H123.594V160.3H122.594V161.3ZM122.594 168H68.6936V170H122.594V168ZM69.6936 169V115.1H67.6936V169H69.6936ZM68.6936 116.1H84.0936V114.1H68.6936V116.1ZM83.0936 115.1V161.3H85.0936V115.1H83.0936ZM84.0936 162.3H122.594V160.3H84.0936V162.3ZM121.594 161.3V169H123.594V161.3H121.594ZM186.359 169V170H187.359V169H186.359ZM170.959 169H169.959V170H170.959V169ZM170.959 153.6H171.959V152.6H170.959V153.6ZM147.859 153.6V152.6H146.859V153.6H147.859ZM147.859 169V170H148.859V169H147.859ZM132.459 169H131.459V170H132.459V169ZM132.459 130.5V129.5H131.459V130.5H132.459ZM140.159 130.5V131.5H141.159V130.5H140.159ZM140.159 122.8V121.8H139.159V122.8H140.159ZM147.859 122.8V123.8H148.859V122.8H147.859ZM147.859 115.1V114.1H146.859V115.1H147.859ZM170.959 115.1H171.959V114.1H170.959V115.1ZM170.959 122.8H169.959V123.8H170.959V122.8ZM178.659 122.8H179.659V121.8H178.659V122.8ZM178.659 130.5H177.659V131.5H178.659V130.5ZM186.359 130.5H187.359V129.5H186.359V130.5ZM170.959 145.9V146.9H171.959V145.9H170.959ZM170.959 130.5H171.959V129.5H170.959V130.5ZM163.259 130.5H162.259V131.5H163.259V130.5ZM163.259 122.8H164.259V121.8H163.259V122.8ZM155.559 122.8V121.8H154.559V122.8H155.559ZM155.559 130.5V131.5H156.559V130.5H155.559ZM147.859 130.5V129.5H146.859V130.5H147.859ZM147.859 145.9H146.859V146.9H147.859V145.9ZM186.359 168H170.959V170H186.359V168ZM171.959 169V153.6H169.959V169H171.959ZM170.959 152.6H147.859V154.6H170.959V152.6ZM146.859 153.6V169H148.859V153.6H146.859ZM147.859 168H132.459V170H147.859V168ZM133.459 169V130.5H131.459V169H133.459ZM132.459 131.5H140.159V129.5H132.459V131.5ZM141.159 130.5V122.8H139.159V130.5H141.159ZM140.159 123.8H147.859V121.8H140.159V123.8ZM148.859 122.8V115.1H146.859V122.8H148.859ZM147.859 116.1H170.959V114.1H147.859V116.1ZM169.959 115.1V122.8H171.959V115.1H169.959ZM170.959 123.8H178.659V121.8H170.959V123.8ZM177.659 122.8V130.5H179.659V122.8H177.659ZM178.659 131.5H186.359V129.5H178.659V131.5ZM185.359 130.5V169H187.359V130.5H185.359ZM171.959 145.9V130.5H169.959V145.9H171.959ZM170.959 129.5H163.259V131.5H170.959V129.5ZM164.259 130.5V122.8H162.259V130.5H164.259ZM163.259 121.8H155.559V123.8H163.259V121.8ZM154.559 122.8V130.5H156.559V122.8H154.559ZM155.559 129.5H147.859V131.5H155.559V129.5ZM146.859 130.5V145.9H148.859V130.5H146.859ZM147.859 146.9H170.959V144.9H147.859V146.9ZM246.275 138.2V139.2H247.275V138.2H246.275ZM238.575 138.2V137.2H237.575V138.2H238.575ZM238.575 145.9V146.9H239.575V145.9H238.575ZM230.875 145.9V144.9H229.875V145.9H230.875ZM230.875 169V170H231.875V169H230.875ZM215.475 169H214.475V170H215.475V169ZM215.475 145.9H216.475V144.9H215.475V145.9ZM207.698 145.9H206.698V146.9H207.698V145.9ZM207.698 138.2H208.698V137.2H207.698V138.2ZM200.075 138.2H199.075V139.2H200.075V138.2ZM200.075 115.1V114.1H199.075V115.1H200.075ZM215.475 115.1H216.475V114.1H215.475V115.1ZM215.475 138.2H214.475V139.2H215.475V138.2ZM230.875 138.2V139.2H231.875V138.2H230.875ZM230.875 115.1V114.1H229.875V115.1H230.875ZM246.275 115.1H247.275V114.1H246.275V115.1ZM246.275 137.2H238.575V139.2H246.275V137.2ZM237.575 138.2V145.9H239.575V138.2H237.575ZM238.575 144.9H230.875V146.9H238.575V144.9ZM229.875 145.9V169H231.875V145.9H229.875ZM230.875 168H215.475V170H230.875V168ZM216.475 169V145.9H214.475V169H216.475ZM215.475 144.9H207.698V146.9H215.475V144.9ZM208.698 145.9V138.2H206.698V145.9H208.698ZM207.698 137.2H200.075V139.2H207.698V137.2ZM201.075 138.2V115.1H199.075V138.2H201.075ZM200.075 116.1H215.475V114.1H200.075V116.1ZM214.475 115.1V138.2H216.475V115.1H214.475ZM215.475 139.2H230.875V137.2H215.475V139.2ZM231.875 138.2V115.1H229.875V138.2H231.875ZM230.875 116.1H246.275V114.1H230.875V116.1ZM245.275 115.1V138.2H247.275V115.1H245.275ZM313.891 169V170H314.891V169H313.891ZM259.991 169H258.991V170H259.991V169ZM259.991 115.1V114.1H258.991V115.1H259.991ZM313.891 115.1H314.891V114.1H313.891V115.1ZM313.891 122.8V123.8H314.891V122.8H313.891ZM275.391 122.8V121.8H274.391V122.8H275.391ZM275.391 138.2H274.391V139.2H275.391V138.2ZM306.19 138.2H307.19V137.2H306.19V138.2ZM306.19 145.9V146.9H307.19V145.9H306.19ZM275.391 145.9V144.9H274.391V145.9H275.391ZM275.391 161.3H274.391V162.3H275.391V161.3ZM313.891 161.3H314.891V160.3H313.891V161.3ZM313.891 168H259.991V170H313.891V168ZM260.991 169V115.1H258.991V169H260.991ZM259.991 116.1H313.891V114.1H259.991V116.1ZM312.891 115.1V122.8H314.891V115.1H312.891ZM313.891 121.8H275.391V123.8H313.891V121.8ZM274.391 122.8V138.2H276.391V122.8H274.391ZM275.391 139.2H306.19V137.2H275.391V139.2ZM305.19 138.2V145.9H307.19V138.2H305.19ZM306.19 144.9H275.391V146.9H306.19V144.9ZM274.391 145.9V161.3H276.391V145.9H274.391ZM275.391 162.3H313.891V160.3H275.391V162.3ZM312.891 161.3V169H314.891V161.3H312.891ZM377.656 169V170H378.656V169H377.656ZM354.556 169H353.556V170H354.556V169ZM354.556 161.3H355.556V160.3H354.556V161.3ZM346.856 161.3H345.856V162.3H346.856V161.3ZM346.856 153.6H347.856V152.6H346.856V153.6ZM339.156 153.6V152.6H338.156V153.6H339.156ZM339.156 169V170H340.156V169H339.156ZM323.756 169H322.756V170H323.756V169ZM323.756 115.1V114.1H322.756V115.1H323.756ZM369.956 115.1H370.956V114.1H369.956V115.1ZM369.956 122.8H368.956V123.8H369.956V122.8ZM377.656 122.8H378.656V121.8H377.656V122.8ZM377.656 145.9V146.9H378.656V145.9H377.656ZM362.256 145.9V144.9H361.256V145.9H362.256ZM362.256 153.6H361.256V154.6H362.256V153.6ZM369.956 153.6H370.956V152.6H369.956V153.6ZM369.956 161.3H368.956V162.3H369.956V161.3ZM377.656 161.3H378.656V160.3H377.656V161.3ZM362.256 138.2V139.2H363.256V138.2H362.256ZM362.256 122.8H363.256V121.8H362.256V122.8ZM339.156 122.8V121.8H338.156V122.8H339.156ZM339.156 145.9H338.156V146.9H339.156V145.9ZM354.556 145.9V146.9H355.556V145.9H354.556ZM354.556 138.2V137.2H353.556V138.2H354.556ZM377.656 168H354.556V170H377.656V168ZM355.556 169V161.3H353.556V169H355.556ZM354.556 160.3H346.856V162.3H354.556V160.3ZM347.856 161.3V153.6H345.856V161.3H347.856ZM346.856 152.6H339.156V154.6H346.856V152.6ZM338.156 153.6V169H340.156V153.6H338.156ZM339.156 168H323.756V170H339.156V168ZM324.756 169V115.1H322.756V169H324.756ZM323.756 116.1H369.956V114.1H323.756V116.1ZM368.956 115.1V122.8H370.956V115.1H368.956ZM369.956 123.8H377.656V121.8H369.956V123.8ZM376.656 122.8V145.9H378.656V122.8H376.656ZM377.656 144.9H362.256V146.9H377.656V144.9ZM361.256 145.9V153.6H363.256V145.9H361.256ZM362.256 154.6H369.956V152.6H362.256V154.6ZM368.956 153.6V161.3H370.956V153.6H368.956ZM369.956 162.3H377.656V160.3H369.956V162.3ZM376.656 161.3V169H378.656V161.3H376.656ZM363.256 138.2V122.8H361.256V138.2H363.256ZM362.256 121.8H339.156V123.8H362.256V121.8ZM338.156 122.8V145.9H340.156V122.8H338.156ZM339.156 146.9H354.556V144.9H339.156V146.9ZM355.556 145.9V138.2H353.556V145.9H355.556ZM354.556 139.2H362.256V137.2H354.556V139.2ZM437.572 169V170H438.572V169H437.572ZM391.372 169H390.372V170H391.372V169ZM391.372 161.3V160.3H390.372V161.3H391.372ZM406.772 161.3V162.3H407.772V161.3H406.772ZM406.772 130.5H407.772V129.5H406.772V130.5ZM398.995 130.5H397.995V131.5H398.995V130.5ZM398.995 122.8V121.8H397.995V122.8H398.995ZM406.772 122.8V123.8H407.772V122.8H406.772ZM406.772 115.1V114.1H405.772V115.1H406.772ZM422.172 115.1H423.172V114.1H422.172V115.1ZM422.172 161.3H421.172V162.3H422.172V161.3ZM437.572 161.3H438.572V160.3H437.572V161.3ZM437.572 168H391.372V170H437.572V168ZM392.372 169V161.3H390.372V169H392.372ZM391.372 162.3H406.772V160.3H391.372V162.3ZM407.772 161.3V130.5H405.772V161.3H407.772ZM406.772 129.5H398.995V131.5H406.772V129.5ZM399.995 130.5V122.8H397.995V130.5H399.995ZM398.995 123.8H406.772V121.8H398.995V123.8ZM407.772 122.8V115.1H405.772V122.8H407.772ZM406.772 116.1H422.172V114.1H406.772V116.1ZM421.172 115.1V161.3H423.172V115.1H421.172ZM422.172 162.3H437.572V160.3H422.172V162.3ZM436.572 161.3V169H438.572V161.3H436.572Z" fill="black" mask="url(#path-1-outside-1_36_5274)"/>
</g>
<mask id="mask0_36_5274" style="mask-type:alpha" maskUnits="userSpaceOnUse" x="4" y="23" width="434" height="146">
<path d="M58.828 77H43.428V69.3H35.728V61.6H28.028V69.3H20.328V77H4.928V23.1H20.328V46.2H28.028V38.5H35.728V46.2H43.428V23.1H58.828V77ZM122.594 77H68.6936V23.1H122.594V30.8H84.0936V46.2H114.894V53.9H84.0936V69.3H122.594V77ZM186.359 77H132.459V23.1H147.859V69.3H186.359V77ZM246.29 69.3H238.59V77H207.79V69.3H200.09V61.6H192.39V38.5H200.09V30.8H207.79V23.1H238.59V30.8H246.29V38.5H230.89V30.8H215.49V38.5H207.79V61.6H215.49V69.3H230.89V61.6H246.29V69.3ZM310.056 69.3H302.356V77H263.856V69.3H256.156V30.8H263.856V23.1H302.356V30.8H310.056V69.3ZM294.656 69.3V30.8H271.556V69.3H294.656ZM373.821 77H358.421V53.9H350.721V61.6H343.021V53.9H335.321V77H319.921V23.1H335.321V30.8H343.021V38.5H350.721V30.8H358.421V23.1H373.821V77ZM437.587 77H383.687V23.1H437.587V30.8H399.087V46.2H429.887V53.9H399.087V69.3H437.587V77ZM58.828 145.9H51.128V153.6H20.328V169H4.928V115.1H51.128V122.8H58.828V145.9ZM43.428 145.9V122.8H20.328V145.9H43.428ZM122.594 169H68.6936V115.1H84.0936V161.3H122.594V169ZM186.359 169H170.959V153.6H147.859V169H132.459V130.5H140.159V122.8H147.859V115.1H170.959V122.8H178.659V130.5H186.359V169ZM170.959 145.9V130.5H163.259V122.8H155.559V130.5H147.859V145.9H170.959ZM246.275 138.2H238.575V145.9H230.875V169H215.475V145.9H207.698V138.2H200.075V115.1H215.475V138.2H230.875V115.1H246.275V138.2ZM313.891 169H259.991V115.1H313.891V122.8H275.39V138.2H306.191V145.9H275.39V161.3H313.891V169ZM377.656 169H354.556V161.3H346.856V153.6H339.156V169H323.756V115.1H369.956V122.8H377.656V145.9H362.256V153.6H369.956V161.3H377.656V169ZM362.256 138.2V122.8H339.156V145.9H354.556V138.2H362.256ZM437.572 169H391.372V161.3H406.772V130.5H398.995V122.8H406.772V115.1H422.172V161.3H437.572V169Z" fill="white"/>
</mask>
<g mask="url(#mask0_36_5274)">
<rect x="4" y="53" width="443" height="30" fill="#FEB0DC"/>
<rect x="4" y="142" width="443" height="31" fill="#FEB0DC"/>
</g>
<defs>
<filter id="filter0_d_36_5274" x="4.92798" y="23.1001" width="432.659" height="149.9" filterUnits="userSpaceOnUse" color-interpolation-filters="sRGB">
<feFlood flood-opacity="0" result="BackgroundImageFix"/>
<feColorMatrix in="SourceAlpha" type="matrix" values="0 0 0 0 0 0 0 0 0 0 0 0 0 0 0 0 0 0 127 0" result="hardAlpha"/>
<feOffset dy="4"/>
<feComposite in2="hardAlpha" operator="out"/>
<feColorMatrix type="matrix" values="0 0 0 0 0.363422 0 0 0 0 0.0411111 0 0 0 0 0.616667 0 0 0 1 0"/>
<feBlend mode="normal" in2="BackgroundImageFix" result="effect1_dropShadow_36_5274"/>
<feBlend mode="normal" in="SourceGraphic" in2="effect1_dropShadow_36_5274" result="shape"/>
</filter>
</defs>
</svg>
