<svg width="1728" height="1117" viewBox="0 0 1728 1117" fill="none" xmlns="http://www.w3.org/2000/svg">
<g clip-path="url(#clip0_26_5)">
<rect width="1728" height="1117" fill="black"/>
<g opacity="0.1">
<path d="M1779 89.1785C1753.84 90.1134 1726.96 89.7424 1711.77 90.3063C1634.8 93.1258 1577.84 99.9224 1509.89 114.154C1401.94 136.769 1290.26 140.524 1169.9 140.731C983.511 141.058 797.017 137.467 610.968 133.148C476.119 130.032 342.41 126.723 212.209 111.186C159.38 104.894 151.683 95.0401 113.819 82.0406C62.5879 64.4408 -25.9445 57.5404 -89.4315 50.6994C-119.865 47.4346 -149.899 44.1254 -179 40V77.9746C-95.7816 81.8329 8.98886 76.0157 59.9383 103.291C75.0662 111.379 75.9987 119.481 98.7794 126.085C128.798 134.795 173.916 138.179 209.071 141.918C263.84 147.75 338.399 140.345 381.636 156.966C407.732 166.983 423.082 182.49 450.97 191.349C513.939 211.323 630.877 218.654 707.582 221.845C809.807 226.104 901.062 217.986 999.009 207.332C1078.16 198.725 1157.16 192.047 1237.16 184.953C1276.48 181.451 1339.74 178.187 1369.61 166.048C1385.7 159.503 1384.71 150.065 1401.13 144.085C1421.41 136.665 1460.19 135.671 1485.32 133.326C1523.54 129.75 1558.34 126.144 1595.14 121.009C1625.07 116.686 1655.29 114.815 1685.52 115.415C1714.34 116.083 1747.69 119.674 1779 119.763V89.1785Z" fill="url(#paint0_linear_26_5)"/>
<path d="M1779 860.271C1765.25 855.018 1753.54 847.633 1749.78 838.444C1760.81 834.833 1768.18 830.024 1779 826.309V787.42C1714.46 792.954 1652.49 792.57 1589.18 806.184C1486.76 828.218 1378.79 810.002 1273.54 822.861C1213.5 830.26 1159.46 839.272 1097.73 839.139C953.809 838.917 810.569 833.457 667.269 845.798C562.81 854.781 459.565 871.044 356.424 847.929C305.948 836.624 258.729 819.103 209.32 805.74C172.314 795.722 134.924 793.591 96.2462 788.633C75.7155 786.014 54.4597 779.754 33.5886 779.607C8.80981 779.399 -8.68636 784.875 -35.1822 780.894C-76.6283 774.664 -112.272 750.587 -152.475 747.391C-161.045 746.696 -169.926 746.266 -179 746V788.915C-165.263 789.745 -151.596 791.48 -138.087 794.109C-116.224 798.548 -106.321 808.907 -89.4913 814.826C-58.8065 825.584 2.28204 820.553 35.2612 823.601C92.7972 828.929 149.504 836.032 205.205 848.003C225.217 852.31 279.319 858.673 291.176 872.938C300.057 883.563 290.273 892.768 305.282 904.887C336.811 930.34 405.019 934.38 447.635 940.403C525.02 951.353 650.424 978.33 721.948 948.186C750.768 936.037 755.742 923.548 736.055 905.79C728.313 898.805 717.197 897.266 716.072 886.715C738.586 882.276 756.348 871.103 780.772 868.957C880.553 860.389 987.366 898.642 1087.59 880.47C1087.12 878.177 1088.61 874.374 1088.32 871.887C1140.51 862.165 1210.75 859.738 1262.63 871.887C1359.09 894.588 1461.55 917.066 1564.59 903.289C1596.58 899.012 1598.72 886.271 1622.56 877.008C1642.98 869.061 1665.48 870.763 1685.18 876.652C1717.16 886.212 1747.84 898.139 1778.91 909.297L1779 860.271Z" fill="url(#paint1_linear_26_5)"/>
<path d="M1779 449.915C1762.72 449.076 1746.32 447.928 1729.78 446.382C1663.96 440.186 1595.65 426.011 1528.85 423.42C1484.19 421.683 1399.67 425.231 1361.9 435.961C1331.4 444.616 1336.48 453.433 1295.45 456.171C1254.12 458.923 1207.66 453.094 1165.92 452.918C1125.42 452.726 1084.92 453.404 1044.44 452.918C965.338 451.917 894.451 452.918 816.489 459.335C766.163 463.457 715.969 471.332 665.021 472.171C567.121 473.79 479.879 451.107 386.641 441.393C229.015 424.995 43.9171 425.819 -115.796 432.561C-138.842 433.532 -159.328 434.106 -179 435.313V448.796C-100.949 452.329 -22.3511 454.095 55.9659 455.773C178.2 458.393 295.757 467.549 415.919 476.616C499.906 482.96 579.584 498.887 665.776 500.27C778.715 502.051 882.935 479.781 995.904 481.253C1053.72 482.062 1103.75 476.837 1160.07 472.774C1230.04 467.74 1297.08 488.171 1365.45 484.447C1422.18 481.37 1409.62 462.176 1443.08 451.74C1471.62 442.835 1548.65 455.273 1575.01 460.866C1618.96 470.184 1587.43 468.226 1597.72 481.576C1608.64 495.81 1649.28 505.967 1678.75 508.852C1709.83 511.898 1752.76 512.134 1779 506.732V449.915Z" fill="url(#paint2_linear_26_5)"/>
</g>
<g filter="url(#filter0_d_26_5)">
<mask id="path-4-outside-1_26_5" maskUnits="userSpaceOnUse" x="480" y="496" width="769" height="39" fill="black">
<rect fill="white" x="480" y="496" width="769" height="39"/>
<path d="M513.128 502.8H502.728V528.8H513.128V534H481.928V528.8H492.328V502.8H481.928V497.6H513.128V502.8ZM558.791 534H548.391V528.8H543.191V523.6H537.991V518.4H532.79V534H522.391V497.6H532.79V502.8H537.991V508H543.191V513.2H548.391V497.6H558.791V534ZM599.253 502.8H588.853V528.8H599.253V534H568.053V528.8H578.453V502.8H568.053V497.6H599.253V502.8ZM642.316 502.8H631.915V534H621.516V502.8H611.116V497.6H642.316V502.8ZM685.378 502.8H674.978V528.8H685.378V534H654.178V528.8H664.578V502.8H654.178V497.6H685.378V502.8ZM731.041 534H720.641V523.6H705.04V534H694.641V508H699.841V502.8H705.04V497.6H720.641V502.8H725.841V508H731.041V534ZM720.641 518.4V508H715.441V502.8H710.241V508H705.04V518.4H720.641ZM774.103 534H737.703V497.6H748.103V528.8H774.103V534ZM814.566 502.8H804.165V528.8H814.566V534H783.366V528.8H793.766V502.8H783.366V497.6H814.566V502.8ZM860.228 534H823.828V523.6H829.028V518.4H834.228V513.2H839.428V508H844.628V502.8H823.828V497.6H860.228V508H855.028V513.2H849.828V518.4H844.628V523.6H839.428V528.8H860.228V534ZM900.691 502.8H890.29V528.8H900.691V534H869.491V528.8H879.891V502.8H869.491V497.6H900.691V502.8ZM946.353 534H935.953V528.8H930.753V523.6H925.553V518.4H920.353V534H909.953V497.6H920.353V502.8H925.553V508H930.753V513.2H935.953V497.6H946.353V534ZM989.416 534H963.415V528.696H958.216V523.6H953.016V508H958.216V502.8H963.415V497.6H989.416V502.8H968.616V508H963.415V523.6H968.616V528.8H979.016V518.4H973.816V513.2H989.416V534ZM1075.54 534H1065.14V528.8H1059.94V523.6H1054.74V528.8H1049.54V534H1039.14V497.6H1049.54V513.2H1054.74V508H1059.94V513.2H1065.14V497.6H1075.54V534ZM1118.6 528.8H1113.4V534H1087.4V528.8H1082.2V502.8H1087.4V497.6H1113.4V502.8H1118.6V528.8ZM1108.2 528.8V502.8H1092.6V528.8H1108.2ZM1161.67 534H1146.07V528.8H1140.87V523.6H1135.67V534H1125.27V497.6H1156.47V502.8H1161.67V518.4H1151.27V523.6H1156.47V528.8H1161.67V534ZM1151.27 513.2V502.8H1135.67V518.4H1146.07V513.2H1151.27ZM1204.73 534H1168.33V497.6H1178.73V528.8H1204.73V534ZM1247.79 523.6H1242.59V528.8H1237.39V534H1211.39V497.6H1237.39V502.8H1242.59V508H1247.79V523.6ZM1237.39 523.6V508H1232.19V502.8H1221.79V528.8H1232.19V523.6H1237.39Z"/>
</mask>
<path d="M513.128 502.8H502.728V528.8H513.128V534H481.928V528.8H492.328V502.8H481.928V497.6H513.128V502.8ZM558.791 534H548.391V528.8H543.191V523.6H537.991V518.4H532.79V534H522.391V497.6H532.79V502.8H537.991V508H543.191V513.2H548.391V497.6H558.791V534ZM599.253 502.8H588.853V528.8H599.253V534H568.053V528.8H578.453V502.8H568.053V497.6H599.253V502.8ZM642.316 502.8H631.915V534H621.516V502.8H611.116V497.6H642.316V502.8ZM685.378 502.8H674.978V528.8H685.378V534H654.178V528.8H664.578V502.8H654.178V497.6H685.378V502.8ZM731.041 534H720.641V523.6H705.04V534H694.641V508H699.841V502.8H705.04V497.6H720.641V502.8H725.841V508H731.041V534ZM720.641 518.4V508H715.441V502.8H710.241V508H705.04V518.4H720.641ZM774.103 534H737.703V497.6H748.103V528.8H774.103V534ZM814.566 502.8H804.165V528.8H814.566V534H783.366V528.8H793.766V502.8H783.366V497.6H814.566V502.8ZM860.228 534H823.828V523.6H829.028V518.4H834.228V513.2H839.428V508H844.628V502.8H823.828V497.6H860.228V508H855.028V513.2H849.828V518.4H844.628V523.6H839.428V528.8H860.228V534ZM900.691 502.8H890.29V528.8H900.691V534H869.491V528.8H879.891V502.8H869.491V497.6H900.691V502.8ZM946.353 534H935.953V528.8H930.753V523.6H925.553V518.4H920.353V534H909.953V497.6H920.353V502.8H925.553V508H930.753V513.2H935.953V497.6H946.353V534ZM989.416 534H963.415V528.696H958.216V523.6H953.016V508H958.216V502.8H963.415V497.6H989.416V502.8H968.616V508H963.415V523.6H968.616V528.8H979.016V518.4H973.816V513.2H989.416V534ZM1075.54 534H1065.14V528.8H1059.94V523.6H1054.74V528.8H1049.54V534H1039.14V497.6H1049.54V513.2H1054.74V508H1059.94V513.2H1065.14V497.6H1075.54V534ZM1118.6 528.8H1113.4V534H1087.4V528.8H1082.2V502.8H1087.4V497.6H1113.4V502.8H1118.6V528.8ZM1108.2 528.8V502.8H1092.6V528.8H1108.2ZM1161.67 534H1146.07V528.8H1140.87V523.6H1135.67V534H1125.27V497.6H1156.47V502.8H1161.67V518.4H1151.27V523.6H1156.47V528.8H1161.67V534ZM1151.27 513.2V502.8H1135.67V518.4H1146.07V513.2H1151.27ZM1204.73 534H1168.33V497.6H1178.73V528.8H1204.73V534ZM1247.79 523.6H1242.59V528.8H1237.39V534H1211.39V497.6H1237.39V502.8H1242.59V508H1247.79V523.6ZM1237.39 523.6V508H1232.19V502.8H1221.79V528.8H1232.19V523.6H1237.39Z" fill="white"/>
<path d="M513.128 502.8V503.8H514.128V502.8H513.128ZM502.728 502.8V501.8H501.728V502.8H502.728ZM502.728 528.8H501.728V529.8H502.728V528.8ZM513.128 528.8H514.128V527.8H513.128V528.8ZM513.128 534V535H514.128V534H513.128ZM481.928 534H480.928V535H481.928V534ZM481.928 528.8V527.8H480.928V528.8H481.928ZM492.328 528.8V529.8H493.328V528.8H492.328ZM492.328 502.8H493.328V501.8H492.328V502.8ZM481.928 502.8H480.928V503.8H481.928V502.8ZM481.928 497.6V496.6H480.928V497.6H481.928ZM513.128 497.6H514.128V496.6H513.128V497.6ZM513.128 501.8H502.728V503.8H513.128V501.8ZM501.728 502.8V528.8H503.728V502.8H501.728ZM502.728 529.8H513.128V527.8H502.728V529.8ZM512.128 528.8V534H514.128V528.8H512.128ZM513.128 533H481.928V535H513.128V533ZM482.928 534V528.8H480.928V534H482.928ZM481.928 529.8H492.328V527.8H481.928V529.8ZM493.328 528.8V502.8H491.328V528.8H493.328ZM492.328 501.8H481.928V503.8H492.328V501.8ZM482.928 502.8V497.6H480.928V502.8H482.928ZM481.928 498.6H513.128V496.6H481.928V498.6ZM512.128 497.6V502.8H514.128V497.6H512.128ZM558.791 534V535H559.791V534H558.791ZM548.391 534H547.391V535H548.391V534ZM548.391 528.8H549.391V527.8H548.391V528.8ZM543.19 528.8H542.19V529.8H543.19V528.8ZM543.19 523.6H544.19V522.6H543.19V523.6ZM537.991 523.6H536.991V524.6H537.991V523.6ZM537.991 518.4H538.991V517.4H537.991V518.4ZM532.791 518.4V517.4H531.791V518.4H532.791ZM532.791 534V535H533.791V534H532.791ZM522.39 534H521.39V535H522.39V534ZM522.39 497.6V496.6H521.39V497.6H522.39ZM532.791 497.6H533.791V496.6H532.791V497.6ZM532.791 502.8H531.791V503.8H532.791V502.8ZM537.991 502.8H538.991V501.8H537.991V502.8ZM537.991 508H536.991V509H537.991V508ZM543.19 508H544.19V507H543.19V508ZM543.19 513.2H542.19V514.2H543.19V513.2ZM548.391 513.2V514.2H549.391V513.2H548.391ZM548.391 497.6V496.6H547.391V497.6H548.391ZM558.791 497.6H559.791V496.6H558.791V497.6ZM558.791 533H548.391V535H558.791V533ZM549.391 534V528.8H547.391V534H549.391ZM548.391 527.8H543.19V529.8H548.391V527.8ZM544.19 528.8V523.6H542.19V528.8H544.19ZM543.19 522.6H537.991V524.6H543.19V522.6ZM538.991 523.6V518.4H536.991V523.6H538.991ZM537.991 517.4H532.791V519.4H537.991V517.4ZM531.791 518.4V534H533.791V518.4H531.791ZM532.791 533H522.39V535H532.791V533ZM523.39 534V497.6H521.39V534H523.39ZM522.39 498.6H532.791V496.6H522.39V498.6ZM531.791 497.6V502.8H533.791V497.6H531.791ZM532.791 503.8H537.991V501.8H532.791V503.8ZM536.991 502.8V508H538.991V502.8H536.991ZM537.991 509H543.19V507H537.991V509ZM542.19 508V513.2H544.19V508H542.19ZM543.19 514.2H548.391V512.2H543.19V514.2ZM549.391 513.2V497.6H547.391V513.2H549.391ZM548.391 498.6H558.791V496.6H548.391V498.6ZM557.791 497.6V534H559.791V497.6H557.791ZM599.253 502.8V503.8H600.253V502.8H599.253ZM588.853 502.8V501.8H587.853V502.8H588.853ZM588.853 528.8H587.853V529.8H588.853V528.8ZM599.253 528.8H600.253V527.8H599.253V528.8ZM599.253 534V535H600.253V534H599.253ZM568.053 534H567.053V535H568.053V534ZM568.053 528.8V527.8H567.053V528.8H568.053ZM578.453 528.8V529.8H579.453V528.8H578.453ZM578.453 502.8H579.453V501.8H578.453V502.8ZM568.053 502.8H567.053V503.8H568.053V502.8ZM568.053 497.6V496.6H567.053V497.6H568.053ZM599.253 497.6H600.253V496.6H599.253V497.6ZM599.253 501.8H588.853V503.8H599.253V501.8ZM587.853 502.8V528.8H589.853V502.8H587.853ZM588.853 529.8H599.253V527.8H588.853V529.8ZM598.253 528.8V534H600.253V528.8H598.253ZM599.253 533H568.053V535H599.253V533ZM569.053 534V528.8H567.053V534H569.053ZM568.053 529.8H578.453V527.8H568.053V529.8ZM579.453 528.8V502.8H577.453V528.8H579.453ZM578.453 501.8H568.053V503.8H578.453V501.8ZM569.053 502.8V497.6H567.053V502.8H569.053ZM568.053 498.6H599.253V496.6H568.053V498.6ZM598.253 497.6V502.8H600.253V497.6H598.253ZM642.316 502.8V503.8H643.316V502.8H642.316ZM631.915 502.8V501.8H630.915V502.8H631.915ZM631.915 534V535H632.915V534H631.915ZM621.516 534H620.516V535H621.516V534ZM621.516 502.8H622.516V501.8H621.516V502.8ZM611.115 502.8H610.115V503.8H611.115V502.8ZM611.115 497.6V496.6H610.115V497.6H611.115ZM642.316 497.6H643.316V496.6H642.316V497.6ZM642.316 501.8H631.915V503.8H642.316V501.8ZM630.915 502.8V534H632.915V502.8H630.915ZM631.915 533H621.516V535H631.915V533ZM622.516 534V502.8H620.516V534H622.516ZM621.516 501.8H611.115V503.8H621.516V501.8ZM612.115 502.8V497.6H610.115V502.8H612.115ZM611.115 498.6H642.316V496.6H611.115V498.6ZM641.316 497.6V502.8H643.316V497.6H641.316ZM685.378 502.8V503.8H686.378V502.8H685.378ZM674.978 502.8V501.8H673.978V502.8H674.978ZM674.978 528.8H673.978V529.8H674.978V528.8ZM685.378 528.8H686.378V527.8H685.378V528.8ZM685.378 534V535H686.378V534H685.378ZM654.178 534H653.178V535H654.178V534ZM654.178 528.8V527.8H653.178V528.8H654.178ZM664.578 528.8V529.8H665.578V528.8H664.578ZM664.578 502.8H665.578V501.8H664.578V502.8ZM654.178 502.8H653.178V503.8H654.178V502.8ZM654.178 497.6V496.6H653.178V497.6H654.178ZM685.378 497.6H686.378V496.6H685.378V497.6ZM685.378 501.8H674.978V503.8H685.378V501.8ZM673.978 502.8V528.8H675.978V502.8H673.978ZM674.978 529.8H685.378V527.8H674.978V529.8ZM684.378 528.8V534H686.378V528.8H684.378ZM685.378 533H654.178V535H685.378V533ZM655.178 534V528.8H653.178V534H655.178ZM654.178 529.8H664.578V527.8H654.178V529.8ZM665.578 528.8V502.8H663.578V528.8H665.578ZM664.578 501.8H654.178V503.8H664.578V501.8ZM655.178 502.8V497.6H653.178V502.8H655.178ZM654.178 498.6H685.378V496.6H654.178V498.6ZM684.378 497.6V502.8H686.378V497.6H684.378ZM731.04 534V535H732.04V534H731.04ZM720.641 534H719.641V535H720.641V534ZM720.641 523.6H721.641V522.6H720.641V523.6ZM705.04 523.6V522.6H704.04V523.6H705.04ZM705.04 534V535H706.04V534H705.04ZM694.641 534H693.641V535H694.641V534ZM694.641 508V507H693.641V508H694.641ZM699.84 508V509H700.84V508H699.84ZM699.84 502.8V501.8H698.84V502.8H699.84ZM705.04 502.8V503.8H706.04V502.8H705.04ZM705.04 497.6V496.6H704.04V497.6H705.04ZM720.641 497.6H721.641V496.6H720.641V497.6ZM720.641 502.8H719.641V503.8H720.641V502.8ZM725.84 502.8H726.84V501.8H725.84V502.8ZM725.84 508H724.84V509H725.84V508ZM731.04 508H732.04V507H731.04V508ZM720.641 518.4V519.4H721.641V518.4H720.641ZM720.641 508H721.641V507H720.641V508ZM715.441 508H714.441V509H715.441V508ZM715.441 502.8H716.441V501.8H715.441V502.8ZM710.24 502.8V501.8H709.24V502.8H710.24ZM710.24 508V509H711.24V508H710.24ZM705.04 508V507H704.04V508H705.04ZM705.04 518.4H704.04V519.4H705.04V518.4ZM731.04 533H720.641V535H731.04V533ZM721.641 534V523.6H719.641V534H721.641ZM720.641 522.6H705.04V524.6H720.641V522.6ZM704.04 523.6V534H706.04V523.6H704.04ZM705.04 533H694.641V535H705.04V533ZM695.641 534V508H693.641V534H695.641ZM694.641 509H699.84V507H694.641V509ZM700.84 508V502.8H698.84V508H700.84ZM699.84 503.8H705.04V501.8H699.84V503.8ZM706.04 502.8V497.6H704.04V502.8H706.04ZM705.04 498.6H720.641V496.6H705.04V498.6ZM719.641 497.6V502.8H721.641V497.6H719.641ZM720.641 503.8H725.84V501.8H720.641V503.8ZM724.84 502.8V508H726.84V502.8H724.84ZM725.84 509H731.04V507H725.84V509ZM730.04 508V534H732.04V508H730.04ZM721.641 518.4V508H719.641V518.4H721.641ZM720.641 507H715.441V509H720.641V507ZM716.441 508V502.8H714.441V508H716.441ZM715.441 501.8H710.24V503.8H715.441V501.8ZM709.24 502.8V508H711.24V502.8H709.24ZM710.24 507H705.04V509H710.24V507ZM704.04 508V518.4H706.04V508H704.04ZM705.04 519.4H720.641V517.4H705.04V519.4ZM774.103 534V535H775.103V534H774.103ZM737.703 534H736.703V535H737.703V534ZM737.703 497.6V496.6H736.703V497.6H737.703ZM748.103 497.6H749.103V496.6H748.103V497.6ZM748.103 528.8H747.103V529.8H748.103V528.8ZM774.103 528.8H775.103V527.8H774.103V528.8ZM774.103 533H737.703V535H774.103V533ZM738.703 534V497.6H736.703V534H738.703ZM737.703 498.6H748.103V496.6H737.703V498.6ZM747.103 497.6V528.8H749.103V497.6H747.103ZM748.103 529.8H774.103V527.8H748.103V529.8ZM773.103 528.8V534H775.103V528.8H773.103ZM814.565 502.8V503.8H815.565V502.8H814.565ZM804.165 502.8V501.8H803.165V502.8H804.165ZM804.165 528.8H803.165V529.8H804.165V528.8ZM814.565 528.8H815.565V527.8H814.565V528.8ZM814.565 534V535H815.565V534H814.565ZM783.366 534H782.366V535H783.366V534ZM783.366 528.8V527.8H782.366V528.8H783.366ZM793.766 528.8V529.8H794.766V528.8H793.766ZM793.766 502.8H794.766V501.8H793.766V502.8ZM783.366 502.8H782.366V503.8H783.366V502.8ZM783.366 497.6V496.6H782.366V497.6H783.366ZM814.565 497.6H815.565V496.6H814.565V497.6ZM814.565 501.8H804.165V503.8H814.565V501.8ZM803.165 502.8V528.8H805.165V502.8H803.165ZM804.165 529.8H814.565V527.8H804.165V529.8ZM813.565 528.8V534H815.565V528.8H813.565ZM814.565 533H783.366V535H814.565V533ZM784.366 534V528.8H782.366V534H784.366ZM783.366 529.8H793.766V527.8H783.366V529.8ZM794.766 528.8V502.8H792.766V528.8H794.766ZM793.766 501.8H783.366V503.8H793.766V501.8ZM784.366 502.8V497.6H782.366V502.8H784.366ZM783.366 498.6H814.565V496.6H783.366V498.6ZM813.565 497.6V502.8H815.565V497.6H813.565ZM860.228 534V535H861.228V534H860.228ZM823.828 534H822.828V535H823.828V534ZM823.828 523.6V522.6H822.828V523.6H823.828ZM829.028 523.6V524.6H830.028V523.6H829.028ZM829.028 518.4V517.4H828.028V518.4H829.028ZM834.228 518.4V519.4H835.228V518.4H834.228ZM834.228 513.2V512.2H833.228V513.2H834.228ZM839.428 513.2V514.2H840.428V513.2H839.428ZM839.428 508V507H838.428V508H839.428ZM844.628 508V509H845.628V508H844.628ZM844.628 502.8H845.628V501.8H844.628V502.8ZM823.828 502.8H822.828V503.8H823.828V502.8ZM823.828 497.6V496.6H822.828V497.6H823.828ZM860.228 497.6H861.228V496.6H860.228V497.6ZM860.228 508V509H861.228V508H860.228ZM855.028 508V507H854.028V508H855.028ZM855.028 513.2V514.2H856.028V513.2H855.028ZM849.828 513.2V512.2H848.828V513.2H849.828ZM849.828 518.4V519.4H850.828V518.4H849.828ZM844.628 518.4V517.4H843.628V518.4H844.628ZM844.628 523.6V524.6H845.628V523.6H844.628ZM839.428 523.6V522.6H838.428V523.6H839.428ZM839.428 528.8H838.428V529.8H839.428V528.8ZM860.228 528.8H861.228V527.8H860.228V528.8ZM860.228 533H823.828V535H860.228V533ZM824.828 534V523.6H822.828V534H824.828ZM823.828 524.6H829.028V522.6H823.828V524.6ZM830.028 523.6V518.4H828.028V523.6H830.028ZM829.028 519.4H834.228V517.4H829.028V519.4ZM835.228 518.4V513.2H833.228V518.4H835.228ZM834.228 514.2H839.428V512.2H834.228V514.2ZM840.428 513.2V508H838.428V513.2H840.428ZM839.428 509H844.628V507H839.428V509ZM845.628 508V502.8H843.628V508H845.628ZM844.628 501.8H823.828V503.8H844.628V501.8ZM824.828 502.8V497.6H822.828V502.8H824.828ZM823.828 498.6H860.228V496.6H823.828V498.6ZM859.228 497.6V508H861.228V497.6H859.228ZM860.228 507H855.028V509H860.228V507ZM854.028 508V513.2H856.028V508H854.028ZM855.028 512.2H849.828V514.2H855.028V512.2ZM848.828 513.2V518.4H850.828V513.2H848.828ZM849.828 517.4H844.628V519.4H849.828V517.4ZM843.628 518.4V523.6H845.628V518.4H843.628ZM844.628 522.6H839.428V524.6H844.628V522.6ZM838.428 523.6V528.8H840.428V523.6H838.428ZM839.428 529.8H860.228V527.8H839.428V529.8ZM859.228 528.8V534H861.228V528.8H859.228ZM900.69 502.8V503.8H901.69V502.8H900.69ZM890.29 502.8V501.8H889.29V502.8H890.29ZM890.29 528.8H889.29V529.8H890.29V528.8ZM900.69 528.8H901.69V527.8H900.69V528.8ZM900.69 534V535H901.69V534H900.69ZM869.491 534H868.491V535H869.491V534ZM869.491 528.8V527.8H868.491V528.8H869.491ZM879.891 528.8V529.8H880.891V528.8H879.891ZM879.891 502.8H880.891V501.8H879.891V502.8ZM869.491 502.8H868.491V503.8H869.491V502.8ZM869.491 497.6V496.6H868.491V497.6H869.491ZM900.69 497.6H901.69V496.6H900.69V497.6ZM900.69 501.8H890.29V503.8H900.69V501.8ZM889.29 502.8V528.8H891.29V502.8H889.29ZM890.29 529.8H900.69V527.8H890.29V529.8ZM899.69 528.8V534H901.69V528.8H899.69ZM900.69 533H869.491V535H900.69V533ZM870.491 534V528.8H868.491V534H870.491ZM869.491 529.8H879.891V527.8H869.491V529.8ZM880.891 528.8V502.8H878.891V528.8H880.891ZM879.891 501.8H869.491V503.8H879.891V501.8ZM870.491 502.8V497.6H868.491V502.8H870.491ZM869.491 498.6H900.69V496.6H869.491V498.6ZM899.69 497.6V502.8H901.69V497.6H899.69ZM946.353 534V535H947.353V534H946.353ZM935.953 534H934.953V535H935.953V534ZM935.953 528.8H936.953V527.8H935.953V528.8ZM930.753 528.8H929.753V529.8H930.753V528.8ZM930.753 523.6H931.753V522.6H930.753V523.6ZM925.553 523.6H924.553V524.6H925.553V523.6ZM925.553 518.4H926.553V517.4H925.553V518.4ZM920.353 518.4V517.4H919.353V518.4H920.353ZM920.353 534V535H921.353V534H920.353ZM909.953 534H908.953V535H909.953V534ZM909.953 497.6V496.6H908.953V497.6H909.953ZM920.353 497.6H921.353V496.6H920.353V497.6ZM920.353 502.8H919.353V503.8H920.353V502.8ZM925.553 502.8H926.553V501.8H925.553V502.8ZM925.553 508H924.553V509H925.553V508ZM930.753 508H931.753V507H930.753V508ZM930.753 513.2H929.753V514.2H930.753V513.2ZM935.953 513.2V514.2H936.953V513.2H935.953ZM935.953 497.6V496.6H934.953V497.6H935.953ZM946.353 497.6H947.353V496.6H946.353V497.6ZM946.353 533H935.953V535H946.353V533ZM936.953 534V528.8H934.953V534H936.953ZM935.953 527.8H930.753V529.8H935.953V527.8ZM931.753 528.8V523.6H929.753V528.8H931.753ZM930.753 522.6H925.553V524.6H930.753V522.6ZM926.553 523.6V518.4H924.553V523.6H926.553ZM925.553 517.4H920.353V519.4H925.553V517.4ZM919.353 518.4V534H921.353V518.4H919.353ZM920.353 533H909.953V535H920.353V533ZM910.953 534V497.6H908.953V534H910.953ZM909.953 498.6H920.353V496.6H909.953V498.6ZM919.353 497.6V502.8H921.353V497.6H919.353ZM920.353 503.8H925.553V501.8H920.353V503.8ZM924.553 502.8V508H926.553V502.8H924.553ZM925.553 509H930.753V507H925.553V509ZM929.753 508V513.2H931.753V508H929.753ZM930.753 514.2H935.953V512.2H930.753V514.2ZM936.953 513.2V497.6H934.953V513.2H936.953ZM935.953 498.6H946.353V496.6H935.953V498.6ZM945.353 497.6V534H947.353V497.6H945.353ZM989.416 534V535H990.416V534H989.416ZM963.415 534H962.415V535H963.415V534ZM963.415 528.696H964.415V527.696H963.415V528.696ZM958.216 528.696H957.216V529.696H958.216V528.696ZM958.216 523.6H959.216V522.6H958.216V523.6ZM953.016 523.6H952.016V524.6H953.016V523.6ZM953.016 508V507H952.016V508H953.016ZM958.216 508V509H959.216V508H958.216ZM958.216 502.8V501.8H957.216V502.8H958.216ZM963.415 502.8V503.8H964.415V502.8H963.415ZM963.415 497.6V496.6H962.415V497.6H963.415ZM989.416 497.6H990.416V496.6H989.416V497.6ZM989.416 502.8V503.8H990.416V502.8H989.416ZM968.616 502.8V501.8H967.616V502.8H968.616ZM968.616 508V509H969.616V508H968.616ZM963.415 508V507H962.415V508H963.415ZM963.415 523.6H962.415V524.6H963.415V523.6ZM968.616 523.6H969.616V522.6H968.616V523.6ZM968.616 528.8H967.616V529.8H968.616V528.8ZM979.016 528.8V529.8H980.016V528.8H979.016ZM979.016 518.4H980.016V517.4H979.016V518.4ZM973.815 518.4H972.815V519.4H973.815V518.4ZM973.815 513.2V512.2H972.815V513.2H973.815ZM989.416 513.2H990.416V512.2H989.416V513.2ZM989.416 533H963.415V535H989.416V533ZM964.415 534V528.696H962.415V534H964.415ZM963.415 527.696H958.216V529.696H963.415V527.696ZM959.216 528.696V523.6H957.216V528.696H959.216ZM958.216 522.6H953.016V524.6H958.216V522.6ZM954.016 523.6V508H952.016V523.6H954.016ZM953.016 509H958.216V507H953.016V509ZM959.216 508V502.8H957.216V508H959.216ZM958.216 503.8H963.415V501.8H958.216V503.8ZM964.415 502.8V497.6H962.415V502.8H964.415ZM963.415 498.6H989.416V496.6H963.415V498.6ZM988.416 497.6V502.8H990.416V497.6H988.416ZM989.416 501.8H968.616V503.8H989.416V501.8ZM967.616 502.8V508H969.616V502.8H967.616ZM968.616 507H963.415V509H968.616V507ZM962.415 508V523.6H964.415V508H962.415ZM963.415 524.6H968.616V522.6H963.415V524.6ZM967.616 523.6V528.8H969.616V523.6H967.616ZM968.616 529.8H979.016V527.8H968.616V529.8ZM980.016 528.8V518.4H978.016V528.8H980.016ZM979.016 517.4H973.815V519.4H979.016V517.4ZM974.815 518.4V513.2H972.815V518.4H974.815ZM973.815 514.2H989.416V512.2H973.815V514.2ZM988.416 513.2V534H990.416V513.2H988.416ZM1075.54 534V535H1076.54V534H1075.54ZM1065.14 534H1064.14V535H1065.14V534ZM1065.14 528.8H1066.14V527.8H1065.14V528.8ZM1059.94 528.8H1058.94V529.8H1059.94V528.8ZM1059.94 523.6H1060.94V522.6H1059.94V523.6ZM1054.74 523.6V522.6H1053.74V523.6H1054.74ZM1054.74 528.8V529.8H1055.74V528.8H1054.74ZM1049.54 528.8V527.8H1048.54V528.8H1049.54ZM1049.54 534V535H1050.54V534H1049.54ZM1039.14 534H1038.14V535H1039.14V534ZM1039.14 497.6V496.6H1038.14V497.6H1039.14ZM1049.54 497.6H1050.54V496.6H1049.54V497.6ZM1049.54 513.2H1048.54V514.2H1049.54V513.2ZM1054.74 513.2V514.2H1055.74V513.2H1054.74ZM1054.74 508V507H1053.74V508H1054.74ZM1059.94 508H1060.94V507H1059.94V508ZM1059.94 513.2H1058.94V514.2H1059.94V513.2ZM1065.14 513.2V514.2H1066.14V513.2H1065.14ZM1065.14 497.6V496.6H1064.14V497.6H1065.14ZM1075.54 497.6H1076.54V496.6H1075.54V497.6ZM1075.54 533H1065.14V535H1075.54V533ZM1066.14 534V528.8H1064.14V534H1066.14ZM1065.14 527.8H1059.94V529.8H1065.14V527.8ZM1060.94 528.8V523.6H1058.94V528.8H1060.94ZM1059.94 522.6H1054.74V524.6H1059.94V522.6ZM1053.74 523.6V528.8H1055.74V523.6H1053.74ZM1054.74 527.8H1049.54V529.8H1054.74V527.8ZM1048.54 528.8V534H1050.54V528.8H1048.54ZM1049.54 533H1039.14V535H1049.54V533ZM1040.14 534V497.6H1038.14V534H1040.14ZM1039.14 498.6H1049.54V496.6H1039.14V498.6ZM1048.54 497.6V513.2H1050.54V497.6H1048.54ZM1049.54 514.2H1054.74V512.2H1049.54V514.2ZM1055.74 513.2V508H1053.74V513.2H1055.74ZM1054.74 509H1059.94V507H1054.74V509ZM1058.94 508V513.2H1060.94V508H1058.94ZM1059.94 514.2H1065.14V512.2H1059.94V514.2ZM1066.14 513.2V497.6H1064.14V513.2H1066.14ZM1065.14 498.6H1075.54V496.6H1065.14V498.6ZM1074.54 497.6V534H1076.54V497.6H1074.54ZM1118.6 528.8V529.8H1119.6V528.8H1118.6ZM1113.4 528.8V527.8H1112.4V528.8H1113.4ZM1113.4 534V535H1114.4V534H1113.4ZM1087.4 534H1086.4V535H1087.4V534ZM1087.4 528.8H1088.4V527.8H1087.4V528.8ZM1082.2 528.8H1081.2V529.8H1082.2V528.8ZM1082.2 502.8V501.8H1081.2V502.8H1082.2ZM1087.4 502.8V503.8H1088.4V502.8H1087.4ZM1087.4 497.6V496.6H1086.4V497.6H1087.4ZM1113.4 497.6H1114.4V496.6H1113.4V497.6ZM1113.4 502.8H1112.4V503.8H1113.4V502.8ZM1118.6 502.8H1119.6V501.8H1118.6V502.8ZM1108.2 528.8V529.8H1109.2V528.8H1108.2ZM1108.2 502.8H1109.2V501.8H1108.2V502.8ZM1092.6 502.8V501.8H1091.6V502.8H1092.6ZM1092.6 528.8H1091.6V529.8H1092.6V528.8ZM1118.6 527.8H1113.4V529.8H1118.6V527.8ZM1112.4 528.8V534H1114.4V528.8H1112.4ZM1113.4 533H1087.4V535H1113.4V533ZM1088.4 534V528.8H1086.4V534H1088.4ZM1087.4 527.8H1082.2V529.8H1087.4V527.8ZM1083.2 528.8V502.8H1081.2V528.8H1083.2ZM1082.2 503.8H1087.4V501.8H1082.2V503.8ZM1088.4 502.8V497.6H1086.4V502.8H1088.4ZM1087.4 498.6H1113.4V496.6H1087.4V498.6ZM1112.4 497.6V502.8H1114.4V497.6H1112.4ZM1113.4 503.8H1118.6V501.8H1113.4V503.8ZM1117.6 502.8V528.8H1119.6V502.8H1117.6ZM1109.2 528.8V502.8H1107.2V528.8H1109.2ZM1108.2 501.8H1092.6V503.8H1108.2V501.8ZM1091.6 502.8V528.8H1093.6V502.8H1091.6ZM1092.6 529.8H1108.2V527.8H1092.6V529.8ZM1161.67 534V535H1162.67V534H1161.67ZM1146.07 534H1145.07V535H1146.07V534ZM1146.07 528.8H1147.07V527.8H1146.07V528.8ZM1140.87 528.8H1139.87V529.8H1140.87V528.8ZM1140.87 523.6H1141.87V522.6H1140.87V523.6ZM1135.67 523.6V522.6H1134.67V523.6H1135.67ZM1135.67 534V535H1136.67V534H1135.67ZM1125.27 534H1124.27V535H1125.27V534ZM1125.27 497.6V496.6H1124.27V497.6H1125.27ZM1156.47 497.6H1157.47V496.6H1156.47V497.6ZM1156.47 502.8H1155.47V503.8H1156.47V502.8ZM1161.67 502.8H1162.67V501.8H1161.67V502.8ZM1161.67 518.4V519.4H1162.67V518.4H1161.67ZM1151.27 518.4V517.4H1150.27V518.4H1151.27ZM1151.27 523.6H1150.27V524.6H1151.27V523.6ZM1156.47 523.6H1157.47V522.6H1156.47V523.6ZM1156.47 528.8H1155.47V529.8H1156.47V528.8ZM1161.67 528.8H1162.67V527.8H1161.67V528.8ZM1151.27 513.2V514.2H1152.27V513.2H1151.27ZM1151.27 502.8H1152.27V501.8H1151.27V502.8ZM1135.67 502.8V501.8H1134.67V502.8H1135.67ZM1135.67 518.4H1134.67V519.4H1135.67V518.4ZM1146.07 518.4V519.4H1147.07V518.4H1146.07ZM1146.07 513.2V512.2H1145.07V513.2H1146.07ZM1161.67 533H1146.07V535H1161.67V533ZM1147.07 534V528.8H1145.07V534H1147.07ZM1146.07 527.8H1140.87V529.8H1146.07V527.8ZM1141.87 528.8V523.6H1139.87V528.8H1141.87ZM1140.87 522.6H1135.67V524.6H1140.87V522.6ZM1134.67 523.6V534H1136.67V523.6H1134.67ZM1135.67 533H1125.27V535H1135.67V533ZM1126.27 534V497.6H1124.27V534H1126.27ZM1125.27 498.6H1156.47V496.6H1125.27V498.6ZM1155.47 497.6V502.8H1157.47V497.6H1155.47ZM1156.47 503.8H1161.67V501.8H1156.47V503.8ZM1160.67 502.8V518.4H1162.67V502.8H1160.67ZM1161.67 517.4H1151.27V519.4H1161.67V517.4ZM1150.27 518.4V523.6H1152.27V518.4H1150.27ZM1151.27 524.6H1156.47V522.6H1151.27V524.6ZM1155.47 523.6V528.8H1157.47V523.6H1155.47ZM1156.47 529.8H1161.67V527.8H1156.47V529.8ZM1160.67 528.8V534H1162.67V528.8H1160.67ZM1152.27 513.2V502.8H1150.27V513.2H1152.27ZM1151.27 501.8H1135.67V503.8H1151.27V501.8ZM1134.67 502.8V518.4H1136.67V502.8H1134.67ZM1135.67 519.4H1146.07V517.4H1135.67V519.4ZM1147.07 518.4V513.2H1145.07V518.4H1147.07ZM1146.07 514.2H1151.27V512.2H1146.07V514.2ZM1204.73 534V535H1205.73V534H1204.73ZM1168.33 534H1167.33V535H1168.33V534ZM1168.33 497.6V496.6H1167.33V497.6H1168.33ZM1178.73 497.6H1179.73V496.6H1178.73V497.6ZM1178.73 528.8H1177.73V529.8H1178.73V528.8ZM1204.73 528.8H1205.73V527.8H1204.73V528.8ZM1204.73 533H1168.33V535H1204.73V533ZM1169.33 534V497.6H1167.33V534H1169.33ZM1168.33 498.6H1178.73V496.6H1168.33V498.6ZM1177.73 497.6V528.8H1179.73V497.6H1177.73ZM1178.73 529.8H1204.73V527.8H1178.73V529.8ZM1203.73 528.8V534H1205.73V528.8H1203.73ZM1247.79 523.6V524.6H1248.79V523.6H1247.79ZM1242.59 523.6V522.6H1241.59V523.6H1242.59ZM1242.59 528.8V529.8H1243.59V528.8H1242.59ZM1237.39 528.8V527.8H1236.39V528.8H1237.39ZM1237.39 534V535H1238.39V534H1237.39ZM1211.39 534H1210.39V535H1211.39V534ZM1211.39 497.6V496.6H1210.39V497.6H1211.39ZM1237.39 497.6H1238.39V496.6H1237.39V497.6ZM1237.39 502.8H1236.39V503.8H1237.39V502.8ZM1242.59 502.8H1243.59V501.8H1242.59V502.8ZM1242.59 508H1241.59V509H1242.59V508ZM1247.79 508H1248.79V507H1247.79V508ZM1237.39 523.6V524.6H1238.39V523.6H1237.39ZM1237.39 508H1238.39V507H1237.39V508ZM1232.19 508H1231.19V509H1232.19V508ZM1232.19 502.8H1233.19V501.8H1232.19V502.8ZM1221.79 502.8V501.8H1220.79V502.8H1221.79ZM1221.79 528.8H1220.79V529.8H1221.79V528.8ZM1232.19 528.8V529.8H1233.19V528.8H1232.19ZM1232.19 523.6V522.6H1231.19V523.6H1232.19ZM1247.79 522.6H1242.59V524.6H1247.79V522.6ZM1241.59 523.6V528.8H1243.59V523.6H1241.59ZM1242.59 527.8H1237.39V529.8H1242.59V527.8ZM1236.39 528.8V534H1238.39V528.8H1236.39ZM1237.39 533H1211.39V535H1237.39V533ZM1212.39 534V497.6H1210.39V534H1212.39ZM1211.39 498.6H1237.39V496.6H1211.39V498.6ZM1236.39 497.6V502.8H1238.39V497.6H1236.39ZM1237.39 503.8H1242.59V501.8H1237.39V503.8ZM1241.59 502.8V508H1243.59V502.8H1241.59ZM1242.59 509H1247.79V507H1242.59V509ZM1246.79 508V523.6H1248.79V508H1246.79ZM1238.39 523.6V508H1236.39V523.6H1238.39ZM1237.39 507H1232.19V509H1237.39V507ZM1233.19 508V502.8H1231.19V508H1233.19ZM1232.19 501.8H1221.79V503.8H1232.19V501.8ZM1220.79 502.8V528.8H1222.79V502.8H1220.79ZM1221.79 529.8H1232.19V527.8H1221.79V529.8ZM1233.19 528.8V523.6H1231.19V528.8H1233.19ZM1232.19 524.6H1237.39V522.6H1232.19V524.6Z" fill="black" mask="url(#path-4-outside-1_26_5)"/>
</g>
<mask id="mask0_26_5" style="mask-type:alpha" maskUnits="userSpaceOnUse" x="481" y="497" width="767" height="37">
<path d="M513.128 502.8H502.728V528.8H513.128V534H481.928V528.8H492.328V502.8H481.928V497.6H513.128V502.8ZM558.791 534H548.391V528.8H543.191V523.6H537.991V518.4H532.79V534H522.391V497.6H532.79V502.8H537.991V508H543.191V513.2H548.391V497.6H558.791V534ZM599.253 502.8H588.853V528.8H599.253V534H568.053V528.8H578.453V502.8H568.053V497.6H599.253V502.8ZM642.316 502.8H631.915V534H621.516V502.8H611.116V497.6H642.316V502.8ZM685.378 502.8H674.978V528.8H685.378V534H654.178V528.8H664.578V502.8H654.178V497.6H685.378V502.8ZM731.041 534H720.641V523.6H705.04V534H694.641V508H699.841V502.8H705.04V497.6H720.641V502.8H725.841V508H731.041V534ZM720.641 518.4V508H715.441V502.8H710.241V508H705.04V518.4H720.641ZM774.103 534H737.703V497.6H748.103V528.8H774.103V534ZM814.566 502.8H804.165V528.8H814.566V534H783.366V528.8H793.766V502.8H783.366V497.6H814.566V502.8ZM860.228 534H823.828V523.6H829.028V518.4H834.228V513.2H839.428V508H844.628V502.8H823.828V497.6H860.228V508H855.028V513.2H849.828V518.4H844.628V523.6H839.428V528.8H860.228V534ZM900.691 502.8H890.29V528.8H900.691V534H869.491V528.8H879.891V502.8H869.491V497.6H900.691V502.8ZM946.353 534H935.953V528.8H930.753V523.6H925.553V518.4H920.353V534H909.953V497.6H920.353V502.8H925.553V508H930.753V513.2H935.953V497.6H946.353V534ZM989.416 534H963.415V528.696H958.216V523.6H953.016V508H958.216V502.8H963.415V497.6H989.416V502.8H968.616V508H963.415V523.6H968.616V528.8H979.016V518.4H973.816V513.2H989.416V534ZM1075.54 534H1065.14V528.8H1059.94V523.6H1054.74V528.8H1049.54V534H1039.14V497.6H1049.54V513.2H1054.74V508H1059.94V513.2H1065.14V497.6H1075.54V534ZM1118.6 528.8H1113.4V534H1087.4V528.8H1082.2V502.8H1087.4V497.6H1113.4V502.8H1118.6V528.8ZM1108.2 528.8V502.8H1092.6V528.8H1108.2ZM1161.67 534H1146.07V528.8H1140.87V523.6H1135.67V534H1125.27V497.6H1156.47V502.8H1161.67V518.4H1151.27V523.6H1156.47V528.8H1161.67V534ZM1151.27 513.2V502.8H1135.67V518.4H1146.07V513.2H1151.27ZM1204.73 534H1168.33V497.6H1178.73V528.8H1204.73V534ZM1247.79 523.6H1242.59V528.8H1237.39V534H1211.39V497.6H1237.39V502.8H1242.59V508H1247.79V523.6ZM1237.39 523.6V508H1232.19V502.8H1221.79V528.8H1232.19V523.6H1237.39Z" fill="white"/>
</mask>
<g mask="url(#mask0_26_5)">
<rect x="477" y="518" width="775" height="16" fill="#FEB0DC"/>
</g>
<g filter="url(#filter1_d_26_5)">
<mask id="path-8-outside-2_26_5" maskUnits="userSpaceOnUse" x="491" y="574" width="229" height="13" fill="black">
<rect fill="white" x="491" y="574" width="229" height="13"/>
<path d="M502.728 586H492.328V575.6H502.728V586ZM545.79 586H535.391V575.6H545.79V586ZM588.853 586H578.453V575.6H588.853V586ZM631.915 586H621.516V575.6H631.915V586ZM674.978 586H664.578V575.6H674.978V586ZM718.04 586H707.641V575.6H718.04V586Z"/>
</mask>
<path d="M502.728 586H492.328V575.6H502.728V586ZM545.79 586H535.391V575.6H545.79V586ZM588.853 586H578.453V575.6H588.853V586ZM631.915 586H621.516V575.6H631.915V586ZM674.978 586H664.578V575.6H674.978V586ZM718.04 586H707.641V575.6H718.04V586Z" fill="white"/>
<path d="M502.728 586V587H503.728V586H502.728ZM492.328 586H491.328V587H492.328V586ZM492.328 575.6V574.6H491.328V575.6H492.328ZM502.728 575.6H503.728V574.6H502.728V575.6ZM502.728 585H492.328V587H502.728V585ZM493.328 586V575.6H491.328V586H493.328ZM492.328 576.6H502.728V574.6H492.328V576.6ZM501.728 575.6V586H503.728V575.6H501.728ZM545.79 586V587H546.79V586H545.79ZM535.39 586H534.39V587H535.39V586ZM535.39 575.6V574.6H534.39V575.6H535.39ZM545.79 575.6H546.79V574.6H545.79V575.6ZM545.79 585H535.39V587H545.79V585ZM536.39 586V575.6H534.39V586H536.39ZM535.39 576.6H545.79V574.6H535.39V576.6ZM544.79 575.6V586H546.79V575.6H544.79ZM588.853 586V587H589.853V586H588.853ZM578.453 586H577.453V587H578.453V586ZM578.453 575.6V574.6H577.453V575.6H578.453ZM588.853 575.6H589.853V574.6H588.853V575.6ZM588.853 585H578.453V587H588.853V585ZM579.453 586V575.6H577.453V586H579.453ZM578.453 576.6H588.853V574.6H578.453V576.6ZM587.853 575.6V586H589.853V575.6H587.853ZM631.915 586V587H632.915V586H631.915ZM621.516 586H620.516V587H621.516V586ZM621.516 575.6V574.6H620.516V575.6H621.516ZM631.915 575.6H632.915V574.6H631.915V575.6ZM631.915 585H621.516V587H631.915V585ZM622.516 586V575.6H620.516V586H622.516ZM621.516 576.6H631.915V574.6H621.516V576.6ZM630.915 575.6V586H632.915V575.6H630.915ZM674.978 586V587H675.978V586H674.978ZM664.578 586H663.578V587H664.578V586ZM664.578 575.6V574.6H663.578V575.6H664.578ZM674.978 575.6H675.978V574.6H674.978V575.6ZM674.978 585H664.578V587H674.978V585ZM665.578 586V575.6H663.578V586H665.578ZM664.578 576.6H674.978V574.6H664.578V576.6ZM673.978 575.6V586H675.978V575.6H673.978ZM718.04 586V587H719.04V586H718.04ZM707.641 586H706.641V587H707.641V586ZM707.641 575.6V574.6H706.641V575.6H707.641ZM718.04 575.6H719.04V574.6H718.04V575.6ZM718.04 585H707.641V587H718.04V585ZM708.641 586V575.6H706.641V586H708.641ZM707.641 576.6H718.04V574.6H707.641V576.6ZM717.04 575.6V586H719.04V575.6H717.04Z" fill="black" mask="url(#path-8-outside-2_26_5)"/>
</g>
<circle cx="101" cy="203" r="3" fill="#9767BB"/>
<circle cx="335" cy="318" r="3" fill="#9767BB"/>
<circle cx="203" cy="542" r="3" fill="#9767BB"/>
<circle cx="86" cy="551" r="3" fill="#9767BB"/>
<circle cx="418" cy="688" r="3" fill="#9767BB"/>
<circle cx="738" cy="736" r="3" fill="#9767BB"/>
<circle cx="606" cy="851" r="3" fill="#9767BB"/>
<circle cx="694" cy="312" r="3" fill="#9767BB"/>
<circle cx="606" cy="55" r="3" fill="#9767BB"/>
<circle cx="954" cy="99" r="3" fill="#9767BB"/>
<circle cx="1131" cy="280" r="3" fill="#9767BB"/>
<circle cx="983" cy="420" r="3" fill="#9767BB"/>
<circle cx="861" cy="585" r="3" fill="#9767BB"/>
<circle cx="1009" cy="998" r="3" fill="#9767BB"/>
<circle cx="141" cy="1027" r="3" fill="#9767BB"/>
<circle cx="1497" cy="240" r="3" fill="#9767BB"/>
<circle cx="1378" cy="383" r="3" fill="#9767BB"/>
<circle cx="1674" cy="711" r="3" fill="#9767BB"/>
<circle cx="1538" cy="1020" r="3" fill="#9767BB"/>
<circle cx="1231" cy="694" r="3" fill="#9767BB"/>
<circle cx="1578.5" cy="839.5" r="1.5" transform="rotate(180 1578.5 839.5)" fill="white"/>
<circle cx="1344.5" cy="724.5" r="1.5" transform="rotate(180 1344.5 724.5)" fill="white"/>
<circle cx="1476.5" cy="500.5" r="1.5" transform="rotate(180 1476.5 500.5)" fill="white"/>
<circle cx="1593.5" cy="491.5" r="1.5" transform="rotate(180 1593.5 491.5)" fill="white"/>
<circle cx="1261.5" cy="354.5" r="1.5" transform="rotate(180 1261.5 354.5)" fill="white"/>
<circle cx="941.5" cy="306.5" r="1.5" transform="rotate(180 941.5 306.5)" fill="white"/>
<circle cx="1073.5" cy="191.5" r="1.5" transform="rotate(180 1073.5 191.5)" fill="white"/>
<circle cx="985.5" cy="730.5" r="1.5" transform="rotate(180 985.5 730.5)" fill="white"/>
<circle cx="1073.5" cy="987.5" r="1.5" transform="rotate(180 1073.5 987.5)" fill="white"/>
<circle cx="725.5" cy="943.5" r="1.5" transform="rotate(180 725.5 943.5)" fill="white"/>
<circle cx="548.5" cy="762.5" r="1.5" transform="rotate(180 548.5 762.5)" fill="white"/>
<circle cx="696.5" cy="622.5" r="1.5" transform="rotate(180 696.5 622.5)" fill="white"/>
<circle cx="818.5" cy="457.5" r="1.5" transform="rotate(180 818.5 457.5)" fill="white"/>
<circle cx="670.5" cy="44.5" r="1.5" transform="rotate(180 670.5 44.5)" fill="white"/>
<circle cx="1538.5" cy="15.5" r="1.5" transform="rotate(180 1538.5 15.5)" fill="white"/>
<circle cx="182.5" cy="802.5" r="1.5" transform="rotate(180 182.5 802.5)" fill="white"/>
<circle cx="301.5" cy="659.5" r="1.5" transform="rotate(180 301.5 659.5)" fill="white"/>
<circle cx="5.5" cy="331.5" r="1.5" transform="rotate(180 5.5 331.5)" fill="white"/>
<circle cx="141.5" cy="22.5" r="1.5" transform="rotate(180 141.5 22.5)" fill="white"/>
<circle cx="448.5" cy="348.5" r="1.5" transform="rotate(180 448.5 348.5)" fill="white"/>
</g>
<defs>
<filter id="filter0_d_26_5" x="480.928" y="496.6" width="767.863" height="42.4" filterUnits="userSpaceOnUse" color-interpolation-filters="sRGB">
<feFlood flood-opacity="0" result="BackgroundImageFix"/>
<feColorMatrix in="SourceAlpha" type="matrix" values="0 0 0 0 0 0 0 0 0 0 0 0 0 0 0 0 0 0 127 0" result="hardAlpha"/>
<feOffset dy="4"/>
<feComposite in2="hardAlpha" operator="out"/>
<feColorMatrix type="matrix" values="0 0 0 0 0.25098 0 0 0 0 0.184314 0 0 0 0 0.360784 0 0 0 1 0"/>
<feBlend mode="normal" in2="BackgroundImageFix" result="effect1_dropShadow_26_5"/>
<feBlend mode="normal" in="SourceGraphic" in2="effect1_dropShadow_26_5" result="shape"/>
</filter>
<filter id="filter1_d_26_5" x="491.328" y="574.6" width="227.712" height="16.4" filterUnits="userSpaceOnUse" color-interpolation-filters="sRGB">
<feFlood flood-opacity="0" result="BackgroundImageFix"/>
<feColorMatrix in="SourceAlpha" type="matrix" values="0 0 0 0 0 0 0 0 0 0 0 0 0 0 0 0 0 0 127 0" result="hardAlpha"/>
<feOffset dy="4"/>
<feComposite in2="hardAlpha" operator="out"/>
<feColorMatrix type="matrix" values="0 0 0 0 0.25098 0 0 0 0 0.184314 0 0 0 0 0.360784 0 0 0 1 0"/>
<feBlend mode="normal" in2="BackgroundImageFix" result="effect1_dropShadow_26_5"/>
<feBlend mode="normal" in="SourceGraphic" in2="effect1_dropShadow_26_5" result="shape"/>
</filter>
<linearGradient id="paint0_linear_26_5" x1="799.993" y1="1210.92" x2="799.993" y2="172.325" gradientUnits="userSpaceOnUse">
<stop stop-color="#FFFFE6"/>
<stop offset="0.04" stop-color="#FFF2E4"/>
<stop offset="0.19" stop-color="#FFBDDE"/>
<stop offset="0.31" stop-color="#FF9CDA"/>
<stop offset="0.37" stop-color="#FF90D8"/>
<stop offset="0.41" stop-color="#F789D5"/>
<stop offset="0.69" stop-color="#BE5AC3"/>
<stop offset="0.89" stop-color="#9B3DB7"/>
<stop offset="1" stop-color="#8E32B3"/>
</linearGradient>
<linearGradient id="paint1_linear_26_5" x1="800" y1="1815.67" x2="800" y2="779.977" gradientUnits="userSpaceOnUse">
<stop stop-color="#FFFFE6"/>
<stop offset="0.04" stop-color="#FFF2E4"/>
<stop offset="0.19" stop-color="#FFBDDE"/>
<stop offset="0.31" stop-color="#FF9CDA"/>
<stop offset="0.37" stop-color="#FF90D8"/>
<stop offset="0.41" stop-color="#F789D5"/>
<stop offset="0.69" stop-color="#BE5AC3"/>
<stop offset="0.89" stop-color="#9B3DB7"/>
<stop offset="1" stop-color="#8E32B3"/>
</linearGradient>
<linearGradient id="paint2_linear_26_5" x1="800.015" y1="1248.81" x2="800.015" y2="218.629" gradientUnits="userSpaceOnUse">
<stop stop-color="#FFFFE6"/>
<stop offset="0.04" stop-color="#FFF2E4"/>
<stop offset="0.19" stop-color="#FFBDDE"/>
<stop offset="0.31" stop-color="#FF9CDA"/>
<stop offset="0.37" stop-color="#FF90D8"/>
<stop offset="0.41" stop-color="#F789D5"/>
<stop offset="0.69" stop-color="#BE5AC3"/>
<stop offset="0.89" stop-color="#9B3DB7"/>
<stop offset="1" stop-color="#8E32B3"/>
</linearGradient>
<clipPath id="clip0_26_5">
<rect width="1728" height="1117" fill="white"/>
</clipPath>
</defs>
</svg>
