<svg width="1728" height="1117" viewBox="0 0 1728 1117" fill="none" xmlns="http://www.w3.org/2000/svg">
<g clip-path="url(#clip0_26_542)">
<rect width="1728" height="1117" fill="black"/>
<g opacity="0.1">
<path d="M1779 89.1785C1753.84 90.1134 1726.96 89.7424 1711.77 90.3063C1634.8 93.1258 1577.84 99.9224 1509.89 114.154C1401.94 136.769 1290.26 140.524 1169.9 140.731C983.511 141.058 797.017 137.467 610.968 133.148C476.119 130.032 342.41 126.723 212.209 111.186C159.38 104.894 151.683 95.0401 113.819 82.0406C62.5879 64.4408 -25.9445 57.5404 -89.4315 50.6994C-119.865 47.4346 -149.899 44.1254 -179 40V77.9746C-95.7816 81.8329 8.98886 76.0157 59.9383 103.291C75.0662 111.379 75.9987 119.481 98.7794 126.085C128.798 134.795 173.916 138.179 209.071 141.918C263.84 147.75 338.399 140.345 381.636 156.966C407.732 166.983 423.082 182.49 450.97 191.349C513.939 211.323 630.877 218.654 707.582 221.845C809.807 226.104 901.062 217.986 999.009 207.332C1078.16 198.725 1157.16 192.047 1237.16 184.953C1276.48 181.451 1339.74 178.187 1369.61 166.048C1385.7 159.503 1384.71 150.065 1401.13 144.085C1421.41 136.665 1460.19 135.671 1485.32 133.326C1523.54 129.75 1558.34 126.144 1595.14 121.009C1625.07 116.686 1655.29 114.815 1685.52 115.415C1714.34 116.083 1747.69 119.674 1779 119.763V89.1785Z" fill="url(#paint0_linear_26_542)"/>
<path d="M1779 860.271C1765.25 855.018 1753.54 847.633 1749.78 838.444C1760.81 834.833 1768.18 830.024 1779 826.309V787.42C1714.46 792.954 1652.49 792.57 1589.18 806.184C1486.76 828.218 1378.79 810.002 1273.54 822.861C1213.5 830.26 1159.46 839.272 1097.73 839.139C953.809 838.917 810.569 833.457 667.269 845.798C562.81 854.781 459.565 871.044 356.424 847.929C305.948 836.624 258.729 819.103 209.32 805.74C172.314 795.722 134.924 793.591 96.2462 788.633C75.7155 786.014 54.4597 779.754 33.5886 779.607C8.80981 779.399 -8.68636 784.875 -35.1822 780.894C-76.6283 774.664 -112.272 750.587 -152.475 747.391C-161.045 746.696 -169.926 746.266 -179 746V788.915C-165.263 789.745 -151.596 791.48 -138.087 794.109C-116.224 798.548 -106.321 808.907 -89.4913 814.826C-58.8065 825.584 2.28204 820.553 35.2612 823.601C92.7972 828.929 149.504 836.032 205.205 848.003C225.217 852.31 279.319 858.673 291.176 872.938C300.057 883.563 290.273 892.768 305.282 904.887C336.811 930.34 405.019 934.38 447.635 940.403C525.02 951.353 650.424 978.33 721.948 948.186C750.768 936.037 755.742 923.548 736.055 905.79C728.313 898.805 717.197 897.266 716.072 886.715C738.586 882.276 756.348 871.103 780.772 868.957C880.553 860.389 987.366 898.642 1087.59 880.47C1087.12 878.177 1088.61 874.374 1088.32 871.887C1140.51 862.165 1210.75 859.738 1262.63 871.887C1359.09 894.588 1461.55 917.066 1564.59 903.289C1596.58 899.012 1598.72 886.271 1622.56 877.008C1642.98 869.061 1665.48 870.763 1685.18 876.652C1717.16 886.212 1747.84 898.139 1778.91 909.297L1779 860.271Z" fill="url(#paint1_linear_26_542)"/>
<path d="M1779 449.915C1762.72 449.076 1746.32 447.928 1729.78 446.382C1663.96 440.186 1595.65 426.011 1528.85 423.42C1484.19 421.683 1399.67 425.231 1361.9 435.961C1331.4 444.616 1336.48 453.433 1295.45 456.171C1254.12 458.923 1207.66 453.094 1165.92 452.918C1125.42 452.726 1084.92 453.404 1044.44 452.918C965.338 451.917 894.451 452.918 816.489 459.335C766.163 463.457 715.969 471.332 665.021 472.171C567.121 473.79 479.879 451.107 386.641 441.393C229.015 424.995 43.9171 425.819 -115.796 432.561C-138.842 433.532 -159.328 434.106 -179 435.313V448.796C-100.949 452.329 -22.3511 454.095 55.9659 455.773C178.2 458.393 295.757 467.549 415.919 476.616C499.906 482.96 579.584 498.887 665.776 500.27C778.715 502.051 882.935 479.781 995.904 481.253C1053.72 482.062 1103.75 476.837 1160.07 472.774C1230.04 467.74 1297.08 488.171 1365.45 484.447C1422.18 481.37 1409.62 462.176 1443.08 451.74C1471.62 442.835 1548.65 455.273 1575.01 460.866C1618.96 470.184 1587.43 468.226 1597.72 481.576C1608.64 495.81 1649.28 505.967 1678.75 508.852C1709.83 511.898 1752.76 512.134 1779 506.732V449.915Z" fill="url(#paint2_linear_26_542)"/>
</g>
<circle cx="101" cy="203" r="3" fill="#9767BB"/>
<circle cx="335" cy="318" r="3" fill="#9767BB"/>
<circle cx="203" cy="542" r="3" fill="#9767BB"/>
<circle cx="86" cy="551" r="3" fill="#9767BB"/>
<circle cx="418" cy="688" r="3" fill="#9767BB"/>
<circle cx="738" cy="736" r="3" fill="#9767BB"/>
<circle cx="606" cy="851" r="3" fill="#9767BB"/>
<circle cx="694" cy="312" r="3" fill="#9767BB"/>
<circle cx="606" cy="55" r="3" fill="#9767BB"/>
<circle cx="954" cy="99" r="3" fill="#9767BB"/>
<circle cx="1131" cy="280" r="3" fill="#9767BB"/>
<circle cx="983" cy="420" r="3" fill="#9767BB"/>
<circle cx="861" cy="585" r="3" fill="#9767BB"/>
<circle cx="1009" cy="998" r="3" fill="#9767BB"/>
<circle cx="141" cy="1027" r="3" fill="#9767BB"/>
<circle cx="1497" cy="240" r="3" fill="#9767BB"/>
<circle cx="1378" cy="383" r="3" fill="#9767BB"/>
<circle cx="1674" cy="711" r="3" fill="#9767BB"/>
<circle cx="1538" cy="1020" r="3" fill="#9767BB"/>
<circle cx="1231" cy="694" r="3" fill="#9767BB"/>
<circle cx="1578.5" cy="839.5" r="1.5" transform="rotate(180 1578.5 839.5)" fill="white"/>
<circle cx="1344.5" cy="724.5" r="1.5" transform="rotate(180 1344.5 724.5)" fill="white"/>
<circle cx="1476.5" cy="500.5" r="1.5" transform="rotate(180 1476.5 500.5)" fill="white"/>
<circle cx="1593.5" cy="491.5" r="1.5" transform="rotate(180 1593.5 491.5)" fill="white"/>
<circle cx="1261.5" cy="354.5" r="1.5" transform="rotate(180 1261.5 354.5)" fill="white"/>
<circle cx="941.5" cy="306.5" r="1.5" transform="rotate(180 941.5 306.5)" fill="white"/>
<circle cx="1073.5" cy="191.5" r="1.5" transform="rotate(180 1073.5 191.5)" fill="white"/>
<circle cx="985.5" cy="730.5" r="1.5" transform="rotate(180 985.5 730.5)" fill="white"/>
<circle cx="1073.5" cy="987.5" r="1.5" transform="rotate(180 1073.5 987.5)" fill="white"/>
<circle cx="725.5" cy="943.5" r="1.5" transform="rotate(180 725.5 943.5)" fill="white"/>
<circle cx="548.5" cy="762.5" r="1.5" transform="rotate(180 548.5 762.5)" fill="white"/>
<circle cx="696.5" cy="622.5" r="1.5" transform="rotate(180 696.5 622.5)" fill="white"/>
<circle cx="818.5" cy="457.5" r="1.5" transform="rotate(180 818.5 457.5)" fill="white"/>
<circle cx="670.5" cy="44.5" r="1.5" transform="rotate(180 670.5 44.5)" fill="white"/>
<circle cx="1538.5" cy="15.5" r="1.5" transform="rotate(180 1538.5 15.5)" fill="white"/>
<circle cx="182.5" cy="802.5" r="1.5" transform="rotate(180 182.5 802.5)" fill="white"/>
<circle cx="301.5" cy="659.5" r="1.5" transform="rotate(180 301.5 659.5)" fill="white"/>
<circle cx="5.5" cy="331.5" r="1.5" transform="rotate(180 5.5 331.5)" fill="white"/>
<circle cx="141.5" cy="22.5" r="1.5" transform="rotate(180 141.5 22.5)" fill="white"/>
<circle cx="448.5" cy="348.5" r="1.5" transform="rotate(180 448.5 348.5)" fill="white"/>
<g filter="url(#filter0_d_26_542)">
<mask id="path-44-outside-1_26_542" maskUnits="userSpaceOnUse" x="692" y="394" width="340" height="44" fill="black">
<rect fill="white" x="692" y="394" width="340" height="44"/>
<path d="M735.84 437H693.84V395H705.84V431H735.84V437ZM785.528 437H743.528V395H785.528V401H755.527V413H779.528V419H755.527V431H785.528V437ZM835.215 419H829.215V425H823.215V431H817.215V437H811.215V431H805.215V425H799.215V419H793.215V395H805.215V413H811.215V419H817.215V413H823.215V395H835.215V419ZM884.903 437H842.903V395H884.903V401H854.902V413H878.903V419H854.902V431H884.903V437ZM934.59 437H892.59V395H904.59V431H934.59V437ZM1030.97 437H994.965V431H1006.97V407H1000.91V401H1006.97V395H1018.96V431H1030.97V437Z"/>
</mask>
<path d="M735.84 437H693.84V395H705.84V431H735.84V437ZM785.528 437H743.528V395H785.528V401H755.527V413H779.528V419H755.527V431H785.528V437ZM835.215 419H829.215V425H823.215V431H817.215V437H811.215V431H805.215V425H799.215V419H793.215V395H805.215V413H811.215V419H817.215V413H823.215V395H835.215V419ZM884.903 437H842.903V395H884.903V401H854.902V413H878.903V419H854.902V431H884.903V437ZM934.59 437H892.59V395H904.59V431H934.59V437ZM1030.97 437H994.965V431H1006.97V407H1000.91V401H1006.97V395H1018.96V431H1030.97V437Z" fill="white"/>
<path d="M735.84 437V438H736.84V437H735.84ZM693.84 437H692.84V438H693.84V437ZM693.84 395V394H692.84V395H693.84ZM705.84 395H706.84V394H705.84V395ZM705.84 431H704.84V432H705.84V431ZM735.84 431H736.84V430H735.84V431ZM735.84 436H693.84V438H735.84V436ZM694.84 437V395H692.84V437H694.84ZM693.84 396H705.84V394H693.84V396ZM704.84 395V431H706.84V395H704.84ZM705.84 432H735.84V430H705.84V432ZM734.84 431V437H736.84V431H734.84ZM785.528 437V438H786.528V437H785.528ZM743.528 437H742.528V438H743.528V437ZM743.528 395V394H742.528V395H743.528ZM785.528 395H786.528V394H785.528V395ZM785.528 401V402H786.528V401H785.528ZM755.527 401V400H754.527V401H755.527ZM755.527 413H754.527V414H755.527V413ZM779.528 413H780.528V412H779.528V413ZM779.528 419V420H780.528V419H779.528ZM755.527 419V418H754.527V419H755.527ZM755.527 431H754.527V432H755.527V431ZM785.528 431H786.528V430H785.528V431ZM785.528 436H743.528V438H785.528V436ZM744.528 437V395H742.528V437H744.528ZM743.528 396H785.528V394H743.528V396ZM784.528 395V401H786.528V395H784.528ZM785.528 400H755.527V402H785.528V400ZM754.527 401V413H756.527V401H754.527ZM755.527 414H779.528V412H755.527V414ZM778.528 413V419H780.528V413H778.528ZM779.528 418H755.527V420H779.528V418ZM754.527 419V431H756.527V419H754.527ZM755.527 432H785.528V430H755.527V432ZM784.528 431V437H786.528V431H784.528ZM835.215 419V420H836.215V419H835.215ZM829.215 419V418H828.215V419H829.215ZM829.215 425V426H830.215V425H829.215ZM823.215 425V424H822.215V425H823.215ZM823.215 431V432H824.215V431H823.215ZM817.215 431V430H816.215V431H817.215ZM817.215 437V438H818.215V437H817.215ZM811.215 437H810.215V438H811.215V437ZM811.215 431H812.215V430H811.215V431ZM805.215 431H804.215V432H805.215V431ZM805.215 425H806.215V424H805.215V425ZM799.215 425H798.215V426H799.215V425ZM799.215 419H800.215V418H799.215V419ZM793.215 419H792.215V420H793.215V419ZM793.215 395V394H792.215V395H793.215ZM805.215 395H806.215V394H805.215V395ZM805.215 413H804.215V414H805.215V413ZM811.215 413H812.215V412H811.215V413ZM811.215 419H810.215V420H811.215V419ZM817.215 419V420H818.215V419H817.215ZM817.215 413V412H816.215V413H817.215ZM823.215 413V414H824.215V413H823.215ZM823.215 395V394H822.215V395H823.215ZM835.215 395H836.215V394H835.215V395ZM835.215 418H829.215V420H835.215V418ZM828.215 419V425H830.215V419H828.215ZM829.215 424H823.215V426H829.215V424ZM822.215 425V431H824.215V425H822.215ZM823.215 430H817.215V432H823.215V430ZM816.215 431V437H818.215V431H816.215ZM817.215 436H811.215V438H817.215V436ZM812.215 437V431H810.215V437H812.215ZM811.215 430H805.215V432H811.215V430ZM806.215 431V425H804.215V431H806.215ZM805.215 424H799.215V426H805.215V424ZM800.215 425V419H798.215V425H800.215ZM799.215 418H793.215V420H799.215V418ZM794.215 419V395H792.215V419H794.215ZM793.215 396H805.215V394H793.215V396ZM804.215 395V413H806.215V395H804.215ZM805.215 414H811.215V412H805.215V414ZM810.215 413V419H812.215V413H810.215ZM811.215 420H817.215V418H811.215V420ZM818.215 419V413H816.215V419H818.215ZM817.215 414H823.215V412H817.215V414ZM824.215 413V395H822.215V413H824.215ZM823.215 396H835.215V394H823.215V396ZM834.215 395V419H836.215V395H834.215ZM884.902 437V438H885.902V437H884.902ZM842.902 437H841.902V438H842.902V437ZM842.902 395V394H841.902V395H842.902ZM884.902 395H885.902V394H884.902V395ZM884.902 401V402H885.902V401H884.902ZM854.902 401V400H853.902V401H854.902ZM854.902 413H853.902V414H854.902V413ZM878.902 413H879.902V412H878.902V413ZM878.902 419V420H879.902V419H878.902ZM854.902 419V418H853.902V419H854.902ZM854.902 431H853.902V432H854.902V431ZM884.902 431H885.902V430H884.902V431ZM884.902 436H842.902V438H884.902V436ZM843.902 437V395H841.902V437H843.902ZM842.902 396H884.902V394H842.902V396ZM883.902 395V401H885.902V395H883.902ZM884.902 400H854.902V402H884.902V400ZM853.902 401V413H855.902V401H853.902ZM854.902 414H878.902V412H854.902V414ZM877.902 413V419H879.902V413H877.902ZM878.902 418H854.902V420H878.902V418ZM853.902 419V431H855.902V419H853.902ZM854.902 432H884.902V430H854.902V432ZM883.902 431V437H885.902V431H883.902ZM934.59 437V438H935.59V437H934.59ZM892.59 437H891.59V438H892.59V437ZM892.59 395V394H891.59V395H892.59ZM904.59 395H905.59V394H904.59V395ZM904.59 431H903.59V432H904.59V431ZM934.59 431H935.59V430H934.59V431ZM934.59 436H892.59V438H934.59V436ZM893.59 437V395H891.59V437H893.59ZM892.59 396H904.59V394H892.59V396ZM903.59 395V431H905.59V395H903.59ZM904.59 432H934.59V430H904.59V432ZM933.59 431V437H935.59V431H933.59ZM1030.96 437V438H1031.96V437H1030.96ZM994.965 437H993.965V438H994.965V437ZM994.965 431V430H993.965V431H994.965ZM1006.96 431V432H1007.96V431H1006.96ZM1006.96 407H1007.96V406H1006.96V407ZM1000.9 407H999.905V408H1000.9V407ZM1000.9 401V400H999.905V401H1000.9ZM1006.96 401V402H1007.96V401H1006.96ZM1006.96 395V394H1005.96V395H1006.96ZM1018.96 395H1019.96V394H1018.96V395ZM1018.96 431H1017.96V432H1018.96V431ZM1030.96 431H1031.96V430H1030.96V431ZM1030.96 436H994.965V438H1030.96V436ZM995.965 437V431H993.965V437H995.965ZM994.965 432H1006.96V430H994.965V432ZM1007.96 431V407H1005.96V431H1007.96ZM1006.96 406H1000.9V408H1006.96V406ZM1001.9 407V401H999.905V407H1001.9ZM1000.9 402H1006.96V400H1000.9V402ZM1007.96 401V395H1005.96V401H1007.96ZM1006.96 396H1018.96V394H1006.96V396ZM1017.96 395V431H1019.96V395H1017.96ZM1018.96 432H1030.96V430H1018.96V432ZM1029.96 431V437H1031.96V431H1029.96Z" fill="black" mask="url(#path-44-outside-1_26_542)"/>
</g>
<mask id="mask0_26_542" style="mask-type:alpha" maskUnits="userSpaceOnUse" x="693" y="395" width="338" height="42">
<path d="M735.84 437H693.84V395H705.84V431H735.84V437ZM785.528 437H743.528V395H785.528V401H755.527V413H779.528V419H755.527V431H785.528V437ZM835.215 419H829.215V425H823.215V431H817.215V437H811.215V431H805.215V425H799.215V419H793.215V395H805.215V413H811.215V419H817.215V413H823.215V395H835.215V419ZM884.903 437H842.903V395H884.903V401H854.902V413H878.903V419H854.902V431H884.903V437ZM934.59 437H892.59V395H904.59V431H934.59V437ZM1030.97 437H994.965V431H1006.97V407H1000.91V401H1006.97V395H1018.96V431H1030.97V437Z" fill="white"/>
</mask>
<g mask="url(#mask0_26_542)">
<rect x="691" y="416" width="340" height="29" fill="#FEB0DC"/>
</g>
<g filter="url(#filter1_d_26_542)">
<mask id="path-48-outside-2_26_542" maskUnits="userSpaceOnUse" x="671" y="501" width="385" height="27" fill="black">
<rect fill="white" x="671" y="501" width="385" height="27"/>
<path d="M697.504 527H686.704V523.4H683.104V519.8H679.504V527H672.304V501.8H679.504V512.6H683.104V509H686.704V505.4H690.304V501.8H697.504V505.4H693.904V509H690.304V512.6H686.704V516.2H690.304V519.8H693.904V523.4H697.504V527ZM727.317 527H720.117V523.4H716.517V519.8H712.917V516.2H709.316V527H702.117V501.8H709.316V505.4H712.917V509H716.517V512.6H720.117V501.8H727.317V527ZM757.129 523.4H753.529V527H735.529V523.4H731.929V505.4H735.529V501.8H753.529V505.4H757.129V523.4ZM749.929 523.4V505.4H739.129V523.4H749.929ZM786.942 527H779.742V523.4H776.142V519.8H772.542V523.4H768.941V527H761.742V501.8H768.941V512.6H772.542V509H776.142V512.6H779.742V501.8H786.942V527ZM846.567 527H839.367V519.8H828.566V527H821.367V509H824.967V505.4H828.566V501.8H839.367V505.4H842.967V509H846.567V527ZM839.367 516.2V509H835.767V505.4H832.167V509H828.566V516.2H839.367ZM876.379 523.4H872.779V527H851.179V501.8H872.779V505.4H876.379V512.6H872.779V516.2H876.379V523.4ZM869.179 512.6V505.4H858.379V512.6H869.179ZM869.179 523.4V516.2H858.379V523.4H869.179ZM906.192 523.4H902.592V527H884.592V523.4H880.992V505.4H884.592V501.8H902.592V505.4H906.192V523.4ZM898.992 523.4V505.4H888.191V523.4H898.992ZM936.004 523.4H932.404V527H914.404V523.4H910.804V501.8H918.004V523.4H928.804V501.8H936.004V523.4ZM964.017 505.4H956.816V527H949.617V505.4H942.417V501.8H964.017V505.4ZM1025.44 527H1018.24V516.2H1014.64V519.8H1011.04V516.2H1007.44V527H1000.24V501.8H1007.44V505.4H1011.04V509H1014.64V505.4H1018.24V501.8H1025.44V527ZM1055.25 527H1030.05V501.8H1055.25V505.4H1037.25V512.6H1051.65V516.2H1037.25V523.4H1055.25V527Z"/>
</mask>
<path d="M697.504 527H686.704V523.4H683.104V519.8H679.504V527H672.304V501.8H679.504V512.6H683.104V509H686.704V505.4H690.304V501.8H697.504V505.4H693.904V509H690.304V512.6H686.704V516.2H690.304V519.8H693.904V523.4H697.504V527ZM727.317 527H720.117V523.4H716.517V519.8H712.917V516.2H709.316V527H702.117V501.8H709.316V505.4H712.917V509H716.517V512.6H720.117V501.8H727.317V527ZM757.129 523.4H753.529V527H735.529V523.4H731.929V505.4H735.529V501.8H753.529V505.4H757.129V523.4ZM749.929 523.4V505.4H739.129V523.4H749.929ZM786.942 527H779.742V523.4H776.142V519.8H772.542V523.4H768.941V527H761.742V501.8H768.941V512.6H772.542V509H776.142V512.6H779.742V501.8H786.942V527ZM846.567 527H839.367V519.8H828.566V527H821.367V509H824.967V505.4H828.566V501.8H839.367V505.4H842.967V509H846.567V527ZM839.367 516.2V509H835.767V505.4H832.167V509H828.566V516.2H839.367ZM876.379 523.4H872.779V527H851.179V501.8H872.779V505.4H876.379V512.6H872.779V516.2H876.379V523.4ZM869.179 512.6V505.4H858.379V512.6H869.179ZM869.179 523.4V516.2H858.379V523.4H869.179ZM906.192 523.4H902.592V527H884.592V523.4H880.992V505.4H884.592V501.8H902.592V505.4H906.192V523.4ZM898.992 523.4V505.4H888.191V523.4H898.992ZM936.004 523.4H932.404V527H914.404V523.4H910.804V501.8H918.004V523.4H928.804V501.8H936.004V523.4ZM964.017 505.4H956.816V527H949.617V505.4H942.417V501.8H964.017V505.4ZM1025.44 527H1018.24V516.2H1014.64V519.8H1011.04V516.2H1007.44V527H1000.24V501.8H1007.44V505.4H1011.04V509H1014.64V505.4H1018.24V501.8H1025.44V527ZM1055.25 527H1030.05V501.8H1055.25V505.4H1037.25V512.6H1051.65V516.2H1037.25V523.4H1055.25V527Z" fill="white"/>
<path d="M697.504 527V527.7H698.204V527H697.504ZM686.704 527H686.004V527.7H686.704V527ZM686.704 523.4H687.404V522.7H686.704V523.4ZM683.104 523.4H682.404V524.1H683.104V523.4ZM683.104 519.8H683.804V519.1H683.104V519.8ZM679.504 519.8V519.1H678.804V519.8H679.504ZM679.504 527V527.7H680.204V527H679.504ZM672.304 527H671.604V527.7H672.304V527ZM672.304 501.8V501.1H671.604V501.8H672.304ZM679.504 501.8H680.204V501.1H679.504V501.8ZM679.504 512.6H678.804V513.3H679.504V512.6ZM683.104 512.6V513.3H683.804V512.6H683.104ZM683.104 509V508.3H682.404V509H683.104ZM686.704 509V509.7H687.404V509H686.704ZM686.704 505.4V504.7H686.004V505.4H686.704ZM690.304 505.4V506.1H691.004V505.4H690.304ZM690.304 501.8V501.1H689.604V501.8H690.304ZM697.504 501.8H698.204V501.1H697.504V501.8ZM697.504 505.4V506.1H698.204V505.4H697.504ZM693.904 505.4V504.7H693.204V505.4H693.904ZM693.904 509V509.7H694.604V509H693.904ZM690.304 509V508.3H689.604V509H690.304ZM690.304 512.6V513.3H691.004V512.6H690.304ZM686.704 512.6V511.9H686.004V512.6H686.704ZM686.704 516.2H686.004V516.9H686.704V516.2ZM690.304 516.2H691.004V515.5H690.304V516.2ZM690.304 519.8H689.604V520.5H690.304V519.8ZM693.904 519.8H694.604V519.1H693.904V519.8ZM693.904 523.4H693.204V524.1H693.904V523.4ZM697.504 523.4H698.204V522.7H697.504V523.4ZM697.504 526.3H686.704V527.7H697.504V526.3ZM687.404 527V523.4H686.004V527H687.404ZM686.704 522.7H683.104V524.1H686.704V522.7ZM683.804 523.4V519.8H682.404V523.4H683.804ZM683.104 519.1H679.504V520.5H683.104V519.1ZM678.804 519.8V527H680.204V519.8H678.804ZM679.504 526.3H672.304V527.7H679.504V526.3ZM673.004 527V501.8H671.604V527H673.004ZM672.304 502.5H679.504V501.1H672.304V502.5ZM678.804 501.8V512.6H680.204V501.8H678.804ZM679.504 513.3H683.104V511.9H679.504V513.3ZM683.804 512.6V509H682.404V512.6H683.804ZM683.104 509.7H686.704V508.3H683.104V509.7ZM687.404 509V505.4H686.004V509H687.404ZM686.704 506.1H690.304V504.7H686.704V506.1ZM691.004 505.4V501.8H689.604V505.4H691.004ZM690.304 502.5H697.504V501.1H690.304V502.5ZM696.804 501.8V505.4H698.204V501.8H696.804ZM697.504 504.7H693.904V506.1H697.504V504.7ZM693.204 505.4V509H694.604V505.4H693.204ZM693.904 508.3H690.304V509.7H693.904V508.3ZM689.604 509V512.6H691.004V509H689.604ZM690.304 511.9H686.704V513.3H690.304V511.9ZM686.004 512.6V516.2H687.404V512.6H686.004ZM686.704 516.9H690.304V515.5H686.704V516.9ZM689.604 516.2V519.8H691.004V516.2H689.604ZM690.304 520.5H693.904V519.1H690.304V520.5ZM693.204 519.8V523.4H694.604V519.8H693.204ZM693.904 524.1H697.504V522.7H693.904V524.1ZM696.804 523.4V527H698.204V523.4H696.804ZM727.317 527V527.7H728.017V527H727.317ZM720.117 527H719.417V527.7H720.117V527ZM720.117 523.4H720.817V522.7H720.117V523.4ZM716.517 523.4H715.817V524.1H716.517V523.4ZM716.517 519.8H717.216V519.1H716.517V519.8ZM712.917 519.8H712.216V520.5H712.917V519.8ZM712.917 516.2H713.617V515.5H712.917V516.2ZM709.317 516.2V515.5H708.617V516.2H709.317ZM709.317 527V527.7H710.016V527H709.317ZM702.117 527H701.417V527.7H702.117V527ZM702.117 501.8V501.1H701.417V501.8H702.117ZM709.317 501.8H710.016V501.1H709.317V501.8ZM709.317 505.4H708.617V506.1H709.317V505.4ZM712.917 505.4H713.617V504.7H712.917V505.4ZM712.917 509H712.216V509.7H712.917V509ZM716.517 509H717.216V508.3H716.517V509ZM716.517 512.6H715.817V513.3H716.517V512.6ZM720.117 512.6V513.3H720.817V512.6H720.117ZM720.117 501.8V501.1H719.417V501.8H720.117ZM727.317 501.8H728.017V501.1H727.317V501.8ZM727.317 526.3H720.117V527.7H727.317V526.3ZM720.817 527V523.4H719.417V527H720.817ZM720.117 522.7H716.517V524.1H720.117V522.7ZM717.216 523.4V519.8H715.817V523.4H717.216ZM716.517 519.1H712.917V520.5H716.517V519.1ZM713.617 519.8V516.2H712.216V519.8H713.617ZM712.917 515.5H709.317V516.9H712.917V515.5ZM708.617 516.2V527H710.016V516.2H708.617ZM709.317 526.3H702.117V527.7H709.317V526.3ZM702.817 527V501.8H701.417V527H702.817ZM702.117 502.5H709.317V501.1H702.117V502.5ZM708.617 501.8V505.4H710.016V501.8H708.617ZM709.317 506.1H712.917V504.7H709.317V506.1ZM712.216 505.4V509H713.617V505.4H712.216ZM712.917 509.7H716.517V508.3H712.917V509.7ZM715.817 509V512.6H717.216V509H715.817ZM716.517 513.3H720.117V511.9H716.517V513.3ZM720.817 512.6V501.8H719.417V512.6H720.817ZM720.117 502.5H727.317V501.1H720.117V502.5ZM726.617 501.8V527H728.017V501.8H726.617ZM757.129 523.4V524.1H757.829V523.4H757.129ZM753.529 523.4V522.7H752.829V523.4H753.529ZM753.529 527V527.7H754.229V527H753.529ZM735.529 527H734.829V527.7H735.529V527ZM735.529 523.4H736.229V522.7H735.529V523.4ZM731.929 523.4H731.229V524.1H731.929V523.4ZM731.929 505.4V504.7H731.229V505.4H731.929ZM735.529 505.4V506.1H736.229V505.4H735.529ZM735.529 501.8V501.1H734.829V501.8H735.529ZM753.529 501.8H754.229V501.1H753.529V501.8ZM753.529 505.4H752.829V506.1H753.529V505.4ZM757.129 505.4H757.829V504.7H757.129V505.4ZM749.929 523.4V524.1H750.629V523.4H749.929ZM749.929 505.4H750.629V504.7H749.929V505.4ZM739.129 505.4V504.7H738.429V505.4H739.129ZM739.129 523.4H738.429V524.1H739.129V523.4ZM757.129 522.7H753.529V524.1H757.129V522.7ZM752.829 523.4V527H754.229V523.4H752.829ZM753.529 526.3H735.529V527.7H753.529V526.3ZM736.229 527V523.4H734.829V527H736.229ZM735.529 522.7H731.929V524.1H735.529V522.7ZM732.629 523.4V505.4H731.229V523.4H732.629ZM731.929 506.1H735.529V504.7H731.929V506.1ZM736.229 505.4V501.8H734.829V505.4H736.229ZM735.529 502.5H753.529V501.1H735.529V502.5ZM752.829 501.8V505.4H754.229V501.8H752.829ZM753.529 506.1H757.129V504.7H753.529V506.1ZM756.429 505.4V523.4H757.829V505.4H756.429ZM750.629 523.4V505.4H749.229V523.4H750.629ZM749.929 504.7H739.129V506.1H749.929V504.7ZM738.429 505.4V523.4H739.829V505.4H738.429ZM739.129 524.1H749.929V522.7H739.129V524.1ZM786.942 527V527.7H787.642V527H786.942ZM779.742 527H779.042V527.7H779.742V527ZM779.742 523.4H780.441V522.7H779.742V523.4ZM776.142 523.4H775.441V524.1H776.142V523.4ZM776.142 519.8H776.841V519.1H776.142V519.8ZM772.542 519.8V519.1H771.841V519.8H772.542ZM772.542 523.4V524.1H773.242V523.4H772.542ZM768.941 523.4V522.7H768.242V523.4H768.941ZM768.941 527V527.7H769.642V527H768.941ZM761.742 527H761.042V527.7H761.742V527ZM761.742 501.8V501.1H761.042V501.8H761.742ZM768.941 501.8H769.642V501.1H768.941V501.8ZM768.941 512.6H768.242V513.3H768.941V512.6ZM772.542 512.6V513.3H773.242V512.6H772.542ZM772.542 509V508.3H771.841V509H772.542ZM776.142 509H776.841V508.3H776.142V509ZM776.142 512.6H775.441V513.3H776.142V512.6ZM779.742 512.6V513.3H780.441V512.6H779.742ZM779.742 501.8V501.1H779.042V501.8H779.742ZM786.942 501.8H787.642V501.1H786.942V501.8ZM786.942 526.3H779.742V527.7H786.942V526.3ZM780.441 527V523.4H779.042V527H780.441ZM779.742 522.7H776.142V524.1H779.742V522.7ZM776.841 523.4V519.8H775.441V523.4H776.841ZM776.142 519.1H772.542V520.5H776.142V519.1ZM771.841 519.8V523.4H773.242V519.8H771.841ZM772.542 522.7H768.941V524.1H772.542V522.7ZM768.242 523.4V527H769.642V523.4H768.242ZM768.941 526.3H761.742V527.7H768.941V526.3ZM762.441 527V501.8H761.042V527H762.441ZM761.742 502.5H768.941V501.1H761.742V502.5ZM768.242 501.8V512.6H769.642V501.8H768.242ZM768.941 513.3H772.542V511.9H768.941V513.3ZM773.242 512.6V509H771.841V512.6H773.242ZM772.542 509.7H776.142V508.3H772.542V509.7ZM775.441 509V512.6H776.841V509H775.441ZM776.142 513.3H779.742V511.9H776.142V513.3ZM780.441 512.6V501.8H779.042V512.6H780.441ZM779.742 502.5H786.942V501.1H779.742V502.5ZM786.242 501.8V527H787.642V501.8H786.242ZM846.566 527V527.7H847.266V527H846.566ZM839.367 527H838.667V527.7H839.367V527ZM839.367 519.8H840.066V519.1H839.367V519.8ZM828.566 519.8V519.1H827.867V519.8H828.566ZM828.566 527V527.7H829.266V527H828.566ZM821.367 527H820.667V527.7H821.367V527ZM821.367 509V508.3H820.667V509H821.367ZM824.967 509V509.7H825.667V509H824.967ZM824.967 505.4V504.7H824.266V505.4H824.967ZM828.566 505.4V506.1H829.266V505.4H828.566ZM828.566 501.8V501.1H827.867V501.8H828.566ZM839.367 501.8H840.066V501.1H839.367V501.8ZM839.367 505.4H838.667V506.1H839.367V505.4ZM842.967 505.4H843.667V504.7H842.967V505.4ZM842.967 509H842.266V509.7H842.967V509ZM846.566 509H847.266V508.3H846.566V509ZM839.367 516.2V516.9H840.066V516.2H839.367ZM839.367 509H840.066V508.3H839.367V509ZM835.766 509H835.066V509.7H835.766V509ZM835.766 505.4H836.467V504.7H835.766V505.4ZM832.167 505.4V504.7H831.467V505.4H832.167ZM832.167 509V509.7H832.867V509H832.167ZM828.566 509V508.3H827.867V509H828.566ZM828.566 516.2H827.867V516.9H828.566V516.2ZM846.566 526.3H839.367V527.7H846.566V526.3ZM840.066 527V519.8H838.667V527H840.066ZM839.367 519.1H828.566V520.5H839.367V519.1ZM827.867 519.8V527H829.266V519.8H827.867ZM828.566 526.3H821.367V527.7H828.566V526.3ZM822.066 527V509H820.667V527H822.066ZM821.367 509.7H824.967V508.3H821.367V509.7ZM825.667 509V505.4H824.266V509H825.667ZM824.967 506.1H828.566V504.7H824.967V506.1ZM829.266 505.4V501.8H827.867V505.4H829.266ZM828.566 502.5H839.367V501.1H828.566V502.5ZM838.667 501.8V505.4H840.066V501.8H838.667ZM839.367 506.1H842.967V504.7H839.367V506.1ZM842.266 505.4V509H843.667V505.4H842.266ZM842.967 509.7H846.566V508.3H842.967V509.7ZM845.867 509V527H847.266V509H845.867ZM840.066 516.2V509H838.667V516.2H840.066ZM839.367 508.3H835.766V509.7H839.367V508.3ZM836.467 509V505.4H835.066V509H836.467ZM835.766 504.7H832.167V506.1H835.766V504.7ZM831.467 505.4V509H832.867V505.4H831.467ZM832.167 508.3H828.566V509.7H832.167V508.3ZM827.867 509V516.2H829.266V509H827.867ZM828.566 516.9H839.367V515.5H828.566V516.9ZM876.379 523.4V524.1H877.079V523.4H876.379ZM872.779 523.4V522.7H872.079V523.4H872.779ZM872.779 527V527.7H873.479V527H872.779ZM851.179 527H850.479V527.7H851.179V527ZM851.179 501.8V501.1H850.479V501.8H851.179ZM872.779 501.8H873.479V501.1H872.779V501.8ZM872.779 505.4H872.079V506.1H872.779V505.4ZM876.379 505.4H877.079V504.7H876.379V505.4ZM876.379 512.6V513.3H877.079V512.6H876.379ZM872.779 512.6V511.9H872.079V512.6H872.779ZM872.779 516.2H872.079V516.9H872.779V516.2ZM876.379 516.2H877.079V515.5H876.379V516.2ZM869.179 512.6V513.3H869.879V512.6H869.179ZM869.179 505.4H869.879V504.7H869.179V505.4ZM858.379 505.4V504.7H857.679V505.4H858.379ZM858.379 512.6H857.679V513.3H858.379V512.6ZM869.179 523.4V524.1H869.879V523.4H869.179ZM869.179 516.2H869.879V515.5H869.179V516.2ZM858.379 516.2V515.5H857.679V516.2H858.379ZM858.379 523.4H857.679V524.1H858.379V523.4ZM876.379 522.7H872.779V524.1H876.379V522.7ZM872.079 523.4V527H873.479V523.4H872.079ZM872.779 526.3H851.179V527.7H872.779V526.3ZM851.879 527V501.8H850.479V527H851.879ZM851.179 502.5H872.779V501.1H851.179V502.5ZM872.079 501.8V505.4H873.479V501.8H872.079ZM872.779 506.1H876.379V504.7H872.779V506.1ZM875.679 505.4V512.6H877.079V505.4H875.679ZM876.379 511.9H872.779V513.3H876.379V511.9ZM872.079 512.6V516.2H873.479V512.6H872.079ZM872.779 516.9H876.379V515.5H872.779V516.9ZM875.679 516.2V523.4H877.079V516.2H875.679ZM869.879 512.6V505.4H868.479V512.6H869.879ZM869.179 504.7H858.379V506.1H869.179V504.7ZM857.679 505.4V512.6H859.079V505.4H857.679ZM858.379 513.3H869.179V511.9H858.379V513.3ZM869.879 523.4V516.2H868.479V523.4H869.879ZM869.179 515.5H858.379V516.9H869.179V515.5ZM857.679 516.2V523.4H859.079V516.2H857.679ZM858.379 524.1H869.179V522.7H858.379V524.1ZM906.191 523.4V524.1H906.891V523.4H906.191ZM902.592 523.4V522.7H901.891V523.4H902.592ZM902.592 527V527.7H903.292V527H902.592ZM884.592 527H883.891V527.7H884.592V527ZM884.592 523.4H885.292V522.7H884.592V523.4ZM880.992 523.4H880.292V524.1H880.992V523.4ZM880.992 505.4V504.7H880.292V505.4H880.992ZM884.592 505.4V506.1H885.292V505.4H884.592ZM884.592 501.8V501.1H883.891V501.8H884.592ZM902.592 501.8H903.292V501.1H902.592V501.8ZM902.592 505.4H901.891V506.1H902.592V505.4ZM906.191 505.4H906.891V504.7H906.191V505.4ZM898.992 523.4V524.1H899.691V523.4H898.992ZM898.992 505.4H899.691V504.7H898.992V505.4ZM888.191 505.4V504.7H887.492V505.4H888.191ZM888.191 523.4H887.492V524.1H888.191V523.4ZM906.191 522.7H902.592V524.1H906.191V522.7ZM901.891 523.4V527H903.292V523.4H901.891ZM902.592 526.3H884.592V527.7H902.592V526.3ZM885.292 527V523.4H883.891V527H885.292ZM884.592 522.7H880.992V524.1H884.592V522.7ZM881.691 523.4V505.4H880.292V523.4H881.691ZM880.992 506.1H884.592V504.7H880.992V506.1ZM885.292 505.4V501.8H883.891V505.4H885.292ZM884.592 502.5H902.592V501.1H884.592V502.5ZM901.891 501.8V505.4H903.292V501.8H901.891ZM902.592 506.1H906.191V504.7H902.592V506.1ZM905.492 505.4V523.4H906.891V505.4H905.492ZM899.691 523.4V505.4H898.292V523.4H899.691ZM898.992 504.7H888.191V506.1H898.992V504.7ZM887.492 505.4V523.4H888.891V505.4H887.492ZM888.191 524.1H898.992V522.7H888.191V524.1ZM936.004 523.4V524.1H936.704V523.4H936.004ZM932.404 523.4V522.7H931.704V523.4H932.404ZM932.404 527V527.7H933.104V527H932.404ZM914.404 527H913.704V527.7H914.404V527ZM914.404 523.4H915.104V522.7H914.404V523.4ZM910.804 523.4H910.104V524.1H910.804V523.4ZM910.804 501.8V501.1H910.104V501.8H910.804ZM918.004 501.8H918.704V501.1H918.004V501.8ZM918.004 523.4H917.304V524.1H918.004V523.4ZM928.804 523.4V524.1H929.504V523.4H928.804ZM928.804 501.8V501.1H928.104V501.8H928.804ZM936.004 501.8H936.704V501.1H936.004V501.8ZM936.004 522.7H932.404V524.1H936.004V522.7ZM931.704 523.4V527H933.104V523.4H931.704ZM932.404 526.3H914.404V527.7H932.404V526.3ZM915.104 527V523.4H913.704V527H915.104ZM914.404 522.7H910.804V524.1H914.404V522.7ZM911.504 523.4V501.8H910.104V523.4H911.504ZM910.804 502.5H918.004V501.1H910.804V502.5ZM917.304 501.8V523.4H918.704V501.8H917.304ZM918.004 524.1H928.804V522.7H918.004V524.1ZM929.504 523.4V501.8H928.104V523.4H929.504ZM928.804 502.5H936.004V501.1H928.804V502.5ZM935.304 501.8V523.4H936.704V501.8H935.304ZM964.017 505.4V506.1H964.716V505.4H964.017ZM956.816 505.4V504.7H956.116V505.4H956.816ZM956.816 527V527.7H957.517V527H956.816ZM949.616 527H948.917V527.7H949.616V527ZM949.616 505.4H950.316V504.7H949.616V505.4ZM942.417 505.4H941.716V506.1H942.417V505.4ZM942.417 501.8V501.1H941.716V501.8H942.417ZM964.017 501.8H964.716V501.1H964.017V501.8ZM964.017 504.7H956.816V506.1H964.017V504.7ZM956.116 505.4V527H957.517V505.4H956.116ZM956.816 526.3H949.616V527.7H956.816V526.3ZM950.316 527V505.4H948.917V527H950.316ZM949.616 504.7H942.417V506.1H949.616V504.7ZM943.116 505.4V501.8H941.716V505.4H943.116ZM942.417 502.5H964.017V501.1H942.417V502.5ZM963.316 501.8V505.4H964.716V501.8H963.316ZM1025.44 527V527.7H1026.14V527H1025.44ZM1018.24 527H1017.54V527.7H1018.24V527ZM1018.24 516.2H1018.94V515.5H1018.24V516.2ZM1014.64 516.2V515.5H1013.94V516.2H1014.64ZM1014.64 519.8V520.5H1015.34V519.8H1014.64ZM1011.04 519.8H1010.34V520.5H1011.04V519.8ZM1011.04 516.2H1011.74V515.5H1011.04V516.2ZM1007.44 516.2V515.5H1006.74V516.2H1007.44ZM1007.44 527V527.7H1008.14V527H1007.44ZM1000.24 527H999.542V527.7H1000.24V527ZM1000.24 501.8V501.1H999.542V501.8H1000.24ZM1007.44 501.8H1008.14V501.1H1007.44V501.8ZM1007.44 505.4H1006.74V506.1H1007.44V505.4ZM1011.04 505.4H1011.74V504.7H1011.04V505.4ZM1011.04 509H1010.34V509.7H1011.04V509ZM1014.64 509V509.7H1015.34V509H1014.64ZM1014.64 505.4V504.7H1013.94V505.4H1014.64ZM1018.24 505.4V506.1H1018.94V505.4H1018.24ZM1018.24 501.8V501.1H1017.54V501.8H1018.24ZM1025.44 501.8H1026.14V501.1H1025.44V501.8ZM1025.44 526.3H1018.24V527.7H1025.44V526.3ZM1018.94 527V516.2H1017.54V527H1018.94ZM1018.24 515.5H1014.64V516.9H1018.24V515.5ZM1013.94 516.2V519.8H1015.34V516.2H1013.94ZM1014.64 519.1H1011.04V520.5H1014.64V519.1ZM1011.74 519.8V516.2H1010.34V519.8H1011.74ZM1011.04 515.5H1007.44V516.9H1011.04V515.5ZM1006.74 516.2V527H1008.14V516.2H1006.74ZM1007.44 526.3H1000.24V527.7H1007.44V526.3ZM1000.94 527V501.8H999.542V527H1000.94ZM1000.24 502.5H1007.44V501.1H1000.24V502.5ZM1006.74 501.8V505.4H1008.14V501.8H1006.74ZM1007.44 506.1H1011.04V504.7H1007.44V506.1ZM1010.34 505.4V509H1011.74V505.4H1010.34ZM1011.04 509.7H1014.64V508.3H1011.04V509.7ZM1015.34 509V505.4H1013.94V509H1015.34ZM1014.64 506.1H1018.24V504.7H1014.64V506.1ZM1018.94 505.4V501.8H1017.54V505.4H1018.94ZM1018.24 502.5H1025.44V501.1H1018.24V502.5ZM1024.74 501.8V527H1026.14V501.8H1024.74ZM1055.25 527V527.7H1055.95V527H1055.25ZM1030.05 527H1029.35V527.7H1030.05V527ZM1030.05 501.8V501.1H1029.35V501.8H1030.05ZM1055.25 501.8H1055.95V501.1H1055.25V501.8ZM1055.25 505.4V506.1H1055.95V505.4H1055.25ZM1037.25 505.4V504.7H1036.55V505.4H1037.25ZM1037.25 512.6H1036.55V513.3H1037.25V512.6ZM1051.65 512.6H1052.35V511.9H1051.65V512.6ZM1051.65 516.2V516.9H1052.35V516.2H1051.65ZM1037.25 516.2V515.5H1036.55V516.2H1037.25ZM1037.25 523.4H1036.55V524.1H1037.25V523.4ZM1055.25 523.4H1055.95V522.7H1055.25V523.4ZM1055.25 526.3H1030.05V527.7H1055.25V526.3ZM1030.75 527V501.8H1029.35V527H1030.75ZM1030.05 502.5H1055.25V501.1H1030.05V502.5ZM1054.55 501.8V505.4H1055.95V501.8H1054.55ZM1055.25 504.7H1037.25V506.1H1055.25V504.7ZM1036.55 505.4V512.6H1037.95V505.4H1036.55ZM1037.25 513.3H1051.65V511.9H1037.25V513.3ZM1050.95 512.6V516.2H1052.35V512.6H1050.95ZM1051.65 515.5H1037.25V516.9H1051.65V515.5ZM1036.55 516.2V523.4H1037.95V516.2H1036.55ZM1037.25 524.1H1055.25V522.7H1037.25V524.1ZM1054.55 523.4V527H1055.95V523.4H1054.55Z" fill="black" mask="url(#path-48-outside-2_26_542)"/>
</g>
</g>
<defs>
<filter id="filter0_d_26_542" x="692.84" y="394" width="339.125" height="48" filterUnits="userSpaceOnUse" color-interpolation-filters="sRGB">
<feFlood flood-opacity="0" result="BackgroundImageFix"/>
<feColorMatrix in="SourceAlpha" type="matrix" values="0 0 0 0 0 0 0 0 0 0 0 0 0 0 0 0 0 0 127 0" result="hardAlpha"/>
<feOffset dy="4"/>
<feComposite in2="hardAlpha" operator="out"/>
<feColorMatrix type="matrix" values="0 0 0 0 0.25098 0 0 0 0 0.184314 0 0 0 0 0.360784 0 0 0 1 0"/>
<feBlend mode="normal" in2="BackgroundImageFix" result="effect1_dropShadow_26_542"/>
<feBlend mode="normal" in="SourceGraphic" in2="effect1_dropShadow_26_542" result="shape"/>
</filter>
<filter id="filter1_d_26_542" x="671.604" y="501.1" width="384.35" height="29.6" filterUnits="userSpaceOnUse" color-interpolation-filters="sRGB">
<feFlood flood-opacity="0" result="BackgroundImageFix"/>
<feColorMatrix in="SourceAlpha" type="matrix" values="0 0 0 0 0 0 0 0 0 0 0 0 0 0 0 0 0 0 127 0" result="hardAlpha"/>
<feOffset dy="3"/>
<feComposite in2="hardAlpha" operator="out"/>
<feColorMatrix type="matrix" values="0 0 0 0 0.25098 0 0 0 0 0.184314 0 0 0 0 0.360784 0 0 0 1 0"/>
<feBlend mode="normal" in2="BackgroundImageFix" result="effect1_dropShadow_26_542"/>
<feBlend mode="normal" in="SourceGraphic" in2="effect1_dropShadow_26_542" result="shape"/>
</filter>
<linearGradient id="paint0_linear_26_542" x1="799.993" y1="1210.92" x2="799.993" y2="172.325" gradientUnits="userSpaceOnUse">
<stop stop-color="#FFFFE6"/>
<stop offset="0.04" stop-color="#FFF2E4"/>
<stop offset="0.19" stop-color="#FFBDDE"/>
<stop offset="0.31" stop-color="#FF9CDA"/>
<stop offset="0.37" stop-color="#FF90D8"/>
<stop offset="0.41" stop-color="#F789D5"/>
<stop offset="0.69" stop-color="#BE5AC3"/>
<stop offset="0.89" stop-color="#9B3DB7"/>
<stop offset="1" stop-color="#8E32B3"/>
</linearGradient>
<linearGradient id="paint1_linear_26_542" x1="800" y1="1815.67" x2="800" y2="779.977" gradientUnits="userSpaceOnUse">
<stop stop-color="#FFFFE6"/>
<stop offset="0.04" stop-color="#FFF2E4"/>
<stop offset="0.19" stop-color="#FFBDDE"/>
<stop offset="0.31" stop-color="#FF9CDA"/>
<stop offset="0.37" stop-color="#FF90D8"/>
<stop offset="0.41" stop-color="#F789D5"/>
<stop offset="0.69" stop-color="#BE5AC3"/>
<stop offset="0.89" stop-color="#9B3DB7"/>
<stop offset="1" stop-color="#8E32B3"/>
</linearGradient>
<linearGradient id="paint2_linear_26_542" x1="800.015" y1="1248.81" x2="800.015" y2="218.629" gradientUnits="userSpaceOnUse">
<stop stop-color="#FFFFE6"/>
<stop offset="0.04" stop-color="#FFF2E4"/>
<stop offset="0.19" stop-color="#FFBDDE"/>
<stop offset="0.31" stop-color="#FF9CDA"/>
<stop offset="0.37" stop-color="#FF90D8"/>
<stop offset="0.41" stop-color="#F789D5"/>
<stop offset="0.69" stop-color="#BE5AC3"/>
<stop offset="0.89" stop-color="#9B3DB7"/>
<stop offset="1" stop-color="#8E32B3"/>
</linearGradient>
<clipPath id="clip0_26_542">
<rect width="1728" height="1117" fill="white"/>
</clipPath>
</defs>
</svg>
