<svg width="405" height="62" viewBox="0 0 405 62" fill="none" xmlns="http://www.w3.org/2000/svg">
<g filter="url(#filter0_d_36_5281)">
<mask id="path-1-outside-1_36_5281" maskUnits="userSpaceOnUse" x="0" y="-1" width="406" height="61" fill="black">
<rect fill="white" y="-1" width="406" height="61"/>
<path d="M22.684 12.7H19.584V15.8H7.184V22H0.984V0.299999H19.584V3.4H22.684V12.7ZM16.484 12.7V3.4H7.184V12.7H16.484ZM48.3559 22H39.0559V18.9H35.9559V15.8H32.8559V22H26.6559V0.299999H45.2559V3.4H48.3559V12.7H42.1559V15.8H45.2559V18.9H48.3559V22ZM42.1559 9.6V3.4H32.8559V12.7H39.0559V9.6H42.1559ZM74.0278 22H52.3278V0.299999H74.0278V3.4H58.5277V9.6H70.9278V12.7H58.5277V18.9H74.0278V22ZM99.6996 18.9H96.5996V22H81.0996V18.9H77.9996V15.8H84.1996V18.9H93.4996V12.7H81.0996V9.6H77.9996V3.4H81.0996V0.299999H93.4996V3.4H96.5996V6.5H90.3996V3.4H84.1996V9.6H96.5996V12.7H99.6996V18.9ZM125.372 18.9H122.272V22H106.772V18.9H103.672V15.8H109.871V18.9H119.172V12.7H106.772V9.6H103.672V3.4H106.772V0.299999H119.172V3.4H122.272V6.5H116.072V3.4H109.871V9.6H122.272V12.7H125.372V18.9ZM176.715 12.7H173.615V15.8H161.215V22H155.015V0.299999H173.615V3.4H176.715V12.7ZM170.515 12.7V3.4H161.215V12.7H170.515ZM202.387 22H180.687V0.299999H186.887V18.9H202.387V22ZM228.059 22H221.859V15.8H212.559V22H206.359V6.5H209.459V3.4H212.559V0.299999H221.859V3.4H224.959V6.5H228.059V22ZM221.859 12.7V6.5H218.759V3.4H215.659V6.5H212.559V12.7H221.859ZM252.181 9.6H249.081V12.7H245.981V22H239.781V12.7H236.65V9.6H233.581V0.299999H239.781V9.6H245.981V0.299999H252.181V9.6ZM303.525 3.4H297.325V22H291.125V3.4H284.925V0.299999H303.525V3.4ZM330.747 18.9H327.647V22H312.147V18.9H309.047V3.4H312.147V0.299999H327.647V3.4H330.747V18.9ZM324.547 18.9V3.4H315.246V18.9H324.547ZM22.684 59H0.984V37.3H22.684V40.4H7.184V46.6H19.584V49.7H7.184V55.9H22.684V59ZM48.3559 59H42.1559V55.9H39.0559V52.8H35.9559V49.7H32.8559V59H26.6559V37.3H32.8559V40.4H35.9559V43.5H39.0559V46.6H42.1559V37.3H48.3559V59ZM72.4778 40.4H66.2777V59H60.0778V40.4H53.8778V37.3H72.4778V40.4ZM99.6996 59H77.9996V37.3H99.6996V40.4H84.1996V46.6H96.5996V49.7H84.1996V55.9H99.6996V59ZM125.372 59H116.072V55.9H112.972V52.8H109.871V59H103.672V37.3H122.272V40.4H125.372V49.7H119.172V52.8H122.272V55.9H125.372V59ZM119.172 46.6V40.4H109.871V49.7H116.072V46.6H119.172ZM176.715 55.9H173.615V59H158.115V55.9H155.015V52.8H161.215V55.9H170.515V49.7H158.115V46.6H155.015V40.4H158.115V37.3H170.515V40.4H173.615V43.5H167.415V40.4H161.215V46.6H173.615V49.7H176.715V55.9ZM197.749 40.4H191.549V59H185.349V40.4H179.149V37.3H197.749V40.4ZM224.971 55.9H221.871V59H206.371V55.9H203.271V40.4H206.371V37.3H221.871V40.4H224.971V55.9ZM218.771 55.9V40.4H209.471V55.9H218.771ZM250.643 59H241.343V55.9H238.243V52.8H235.143V59H228.943V37.3H247.543V40.4H250.643V49.7H244.443V52.8H247.543V55.9H250.643V59ZM244.443 46.6V40.4H235.143V49.7H241.343V46.6H244.443ZM274.765 46.6H271.665V49.7H268.565V59H262.365V49.7H259.234V46.6H256.165V37.3H262.365V46.6H268.565V37.3H274.765V46.6ZM327.659 59H321.459V49.7H318.359V52.8H315.259V49.7H312.159V59H305.959V37.3H312.159V40.4H315.259V43.5H318.359V40.4H321.459V37.3H327.659V59ZM353.33 55.9H350.23V59H334.73V55.9H331.63V40.4H334.73V37.3H350.23V40.4H353.33V55.9ZM347.13 55.9V40.4H337.83V55.9H347.13ZM379.002 52.8H375.902V55.9H372.802V59H357.302V37.3H372.802V40.4H375.902V43.5H379.002V52.8ZM372.802 52.8V43.5H369.702V40.4H363.502V55.9H369.702V52.8H372.802ZM404.674 59H382.974V37.3H404.674V40.4H389.174V46.6H401.574V49.7H389.174V55.9H404.674V59Z"/>
</mask>
<path d="M22.684 12.7H19.584V15.8H7.184V22H0.984V0.299999H19.584V3.4H22.684V12.7ZM16.484 12.7V3.4H7.184V12.7H16.484ZM48.3559 22H39.0559V18.9H35.9559V15.8H32.8559V22H26.6559V0.299999H45.2559V3.4H48.3559V12.7H42.1559V15.8H45.2559V18.9H48.3559V22ZM42.1559 9.6V3.4H32.8559V12.7H39.0559V9.6H42.1559ZM74.0278 22H52.3278V0.299999H74.0278V3.4H58.5277V9.6H70.9278V12.7H58.5277V18.9H74.0278V22ZM99.6996 18.9H96.5996V22H81.0996V18.9H77.9996V15.8H84.1996V18.9H93.4996V12.7H81.0996V9.6H77.9996V3.4H81.0996V0.299999H93.4996V3.4H96.5996V6.5H90.3996V3.4H84.1996V9.6H96.5996V12.7H99.6996V18.9ZM125.372 18.9H122.272V22H106.772V18.9H103.672V15.8H109.871V18.9H119.172V12.7H106.772V9.6H103.672V3.4H106.772V0.299999H119.172V3.4H122.272V6.5H116.072V3.4H109.871V9.6H122.272V12.7H125.372V18.9ZM176.715 12.7H173.615V15.8H161.215V22H155.015V0.299999H173.615V3.4H176.715V12.7ZM170.515 12.7V3.4H161.215V12.7H170.515ZM202.387 22H180.687V0.299999H186.887V18.9H202.387V22ZM228.059 22H221.859V15.8H212.559V22H206.359V6.5H209.459V3.4H212.559V0.299999H221.859V3.4H224.959V6.5H228.059V22ZM221.859 12.7V6.5H218.759V3.4H215.659V6.5H212.559V12.7H221.859ZM252.181 9.6H249.081V12.7H245.981V22H239.781V12.7H236.65V9.6H233.581V0.299999H239.781V9.6H245.981V0.299999H252.181V9.6ZM303.525 3.4H297.325V22H291.125V3.4H284.925V0.299999H303.525V3.4ZM330.747 18.9H327.647V22H312.147V18.9H309.047V3.4H312.147V0.299999H327.647V3.4H330.747V18.9ZM324.547 18.9V3.4H315.246V18.9H324.547ZM22.684 59H0.984V37.3H22.684V40.4H7.184V46.6H19.584V49.7H7.184V55.9H22.684V59ZM48.3559 59H42.1559V55.9H39.0559V52.8H35.9559V49.7H32.8559V59H26.6559V37.3H32.8559V40.4H35.9559V43.5H39.0559V46.6H42.1559V37.3H48.3559V59ZM72.4778 40.4H66.2777V59H60.0778V40.4H53.8778V37.3H72.4778V40.4ZM99.6996 59H77.9996V37.3H99.6996V40.4H84.1996V46.6H96.5996V49.7H84.1996V55.9H99.6996V59ZM125.372 59H116.072V55.9H112.972V52.8H109.871V59H103.672V37.3H122.272V40.4H125.372V49.7H119.172V52.8H122.272V55.9H125.372V59ZM119.172 46.6V40.4H109.871V49.7H116.072V46.6H119.172ZM176.715 55.9H173.615V59H158.115V55.9H155.015V52.8H161.215V55.9H170.515V49.7H158.115V46.6H155.015V40.4H158.115V37.3H170.515V40.4H173.615V43.5H167.415V40.4H161.215V46.6H173.615V49.7H176.715V55.9ZM197.749 40.4H191.549V59H185.349V40.4H179.149V37.3H197.749V40.4ZM224.971 55.9H221.871V59H206.371V55.9H203.271V40.4H206.371V37.3H221.871V40.4H224.971V55.9ZM218.771 55.9V40.4H209.471V55.9H218.771ZM250.643 59H241.343V55.9H238.243V52.8H235.143V59H228.943V37.3H247.543V40.4H250.643V49.7H244.443V52.8H247.543V55.9H250.643V59ZM244.443 46.6V40.4H235.143V49.7H241.343V46.6H244.443ZM274.765 46.6H271.665V49.7H268.565V59H262.365V49.7H259.234V46.6H256.165V37.3H262.365V46.6H268.565V37.3H274.765V46.6ZM327.659 59H321.459V49.7H318.359V52.8H315.259V49.7H312.159V59H305.959V37.3H312.159V40.4H315.259V43.5H318.359V40.4H321.459V37.3H327.659V59ZM353.33 55.9H350.23V59H334.73V55.9H331.63V40.4H334.73V37.3H350.23V40.4H353.33V55.9ZM347.13 55.9V40.4H337.83V55.9H347.13ZM379.002 52.8H375.902V55.9H372.802V59H357.302V37.3H372.802V40.4H375.902V43.5H379.002V52.8ZM372.802 52.8V43.5H369.702V40.4H363.502V55.9H369.702V52.8H372.802ZM404.674 59H382.974V37.3H404.674V40.4H389.174V46.6H401.574V49.7H389.174V55.9H404.674V59Z" fill="white"/>
<path d="M22.684 12.7V13.4H23.384V12.7H22.684ZM19.584 12.7V12H18.884V12.7H19.584ZM19.584 15.8V16.5H20.284V15.8H19.584ZM7.184 15.8V15.1H6.484V15.8H7.184ZM7.184 22V22.7H7.884V22H7.184ZM0.984 22H0.284V22.7H0.984V22ZM0.984 0.299998V-0.400002H0.284V0.299998H0.984ZM19.584 0.299998H20.284V-0.400002H19.584V0.299998ZM19.584 3.4H18.884V4.1H19.584V3.4ZM22.684 3.4H23.384V2.7H22.684V3.4ZM16.484 12.7V13.4H17.184V12.7H16.484ZM16.484 3.4H17.184V2.7H16.484V3.4ZM7.184 3.4V2.7H6.484V3.4H7.184ZM7.184 12.7H6.484V13.4H7.184V12.7ZM22.684 12H19.584V13.4H22.684V12ZM18.884 12.7V15.8H20.284V12.7H18.884ZM19.584 15.1H7.184V16.5H19.584V15.1ZM6.484 15.8V22H7.884V15.8H6.484ZM7.184 21.3H0.984V22.7H7.184V21.3ZM1.684 22V0.299998H0.284V22H1.684ZM0.984 0.999998H19.584V-0.400002H0.984V0.999998ZM18.884 0.299998V3.4H20.284V0.299998H18.884ZM19.584 4.1H22.684V2.7H19.584V4.1ZM21.984 3.4V12.7H23.384V3.4H21.984ZM17.184 12.7V3.4H15.784V12.7H17.184ZM16.484 2.7H7.184V4.1H16.484V2.7ZM6.484 3.4V12.7H7.884V3.4H6.484ZM7.184 13.4H16.484V12H7.184V13.4ZM48.3559 22V22.7H49.0559V22H48.3559ZM39.0559 22H38.3559V22.7H39.0559V22ZM39.0559 18.9H39.7559V18.2H39.0559V18.9ZM35.9559 18.9H35.2559V19.6H35.9559V18.9ZM35.9559 15.8H36.6559V15.1H35.9559V15.8ZM32.8559 15.8V15.1H32.1559V15.8H32.8559ZM32.8559 22V22.7H33.5559V22H32.8559ZM26.6559 22H25.9559V22.7H26.6559V22ZM26.6559 0.299998V-0.400002H25.9559V0.299998H26.6559ZM45.2559 0.299998H45.9559V-0.400002H45.2559V0.299998ZM45.2559 3.4H44.5559V4.1H45.2559V3.4ZM48.3559 3.4H49.0559V2.7H48.3559V3.4ZM48.3559 12.7V13.4H49.0559V12.7H48.3559ZM42.1559 12.7V12H41.4559V12.7H42.1559ZM42.1559 15.8H41.4559V16.5H42.1559V15.8ZM45.2559 15.8H45.9559V15.1H45.2559V15.8ZM45.2559 18.9H44.5559V19.6H45.2559V18.9ZM48.3559 18.9H49.0559V18.2H48.3559V18.9ZM42.1559 9.6V10.3H42.8559V9.6H42.1559ZM42.1559 3.4H42.8559V2.7H42.1559V3.4ZM32.8559 3.4V2.7H32.1559V3.4H32.8559ZM32.8559 12.7H32.1559V13.4H32.8559V12.7ZM39.0559 12.7V13.4H39.7559V12.7H39.0559ZM39.0559 9.6V8.9H38.3559V9.6H39.0559ZM48.3559 21.3H39.0559V22.7H48.3559V21.3ZM39.7559 22V18.9H38.3559V22H39.7559ZM39.0559 18.2H35.9559V19.6H39.0559V18.2ZM36.6559 18.9V15.8H35.2559V18.9H36.6559ZM35.9559 15.1H32.8559V16.5H35.9559V15.1ZM32.1559 15.8V22H33.5559V15.8H32.1559ZM32.8559 21.3H26.6559V22.7H32.8559V21.3ZM27.3559 22V0.299998H25.9559V22H27.3559ZM26.6559 0.999998H45.2559V-0.400002H26.6559V0.999998ZM44.5559 0.299998V3.4H45.9559V0.299998H44.5559ZM45.2559 4.1H48.3559V2.7H45.2559V4.1ZM47.6559 3.4V12.7H49.0559V3.4H47.6559ZM48.3559 12H42.1559V13.4H48.3559V12ZM41.4559 12.7V15.8H42.8559V12.7H41.4559ZM42.1559 16.5H45.2559V15.1H42.1559V16.5ZM44.5559 15.8V18.9H45.9559V15.8H44.5559ZM45.2559 19.6H48.3559V18.2H45.2559V19.6ZM47.6559 18.9V22H49.0559V18.9H47.6559ZM42.8559 9.6V3.4H41.4559V9.6H42.8559ZM42.1559 2.7H32.8559V4.1H42.1559V2.7ZM32.1559 3.4V12.7H33.5559V3.4H32.1559ZM32.8559 13.4H39.0559V12H32.8559V13.4ZM39.7559 12.7V9.6H38.3559V12.7H39.7559ZM39.0559 10.3H42.1559V8.9H39.0559V10.3ZM74.0277 22V22.7H74.7278V22H74.0277ZM52.3278 22H51.6278V22.7H52.3278V22ZM52.3278 0.299998V-0.400002H51.6278V0.299998H52.3278ZM74.0277 0.299998H74.7278V-0.400002H74.0277V0.299998ZM74.0277 3.4V4.1H74.7278V3.4H74.0277ZM58.5277 3.4V2.7H57.8278V3.4H58.5277ZM58.5277 9.6H57.8278V10.3H58.5277V9.6ZM70.9277 9.6H71.6278V8.9H70.9277V9.6ZM70.9277 12.7V13.4H71.6278V12.7H70.9277ZM58.5277 12.7V12H57.8278V12.7H58.5277ZM58.5277 18.9H57.8278V19.6H58.5277V18.9ZM74.0277 18.9H74.7278V18.2H74.0277V18.9ZM74.0277 21.3H52.3278V22.7H74.0277V21.3ZM53.0278 22V0.299998H51.6278V22H53.0278ZM52.3278 0.999998H74.0277V-0.400002H52.3278V0.999998ZM73.3278 0.299998V3.4H74.7278V0.299998H73.3278ZM74.0277 2.7H58.5277V4.1H74.0277V2.7ZM57.8278 3.4V9.6H59.2277V3.4H57.8278ZM58.5277 10.3H70.9277V8.9H58.5277V10.3ZM70.2278 9.6V12.7H71.6278V9.6H70.2278ZM70.9277 12H58.5277V13.4H70.9277V12ZM57.8278 12.7V18.9H59.2277V12.7H57.8278ZM58.5277 19.6H74.0277V18.2H58.5277V19.6ZM73.3278 18.9V22H74.7278V18.9H73.3278ZM99.6996 18.9V19.6H100.4V18.9H99.6996ZM96.5996 18.9V18.2H95.8996V18.9H96.5996ZM96.5996 22V22.7H97.2996V22H96.5996ZM81.0996 22H80.3996V22.7H81.0996V22ZM81.0996 18.9H81.7996V18.2H81.0996V18.9ZM77.9996 18.9H77.2996V19.6H77.9996V18.9ZM77.9996 15.8V15.1H77.2996V15.8H77.9996ZM84.1996 15.8H84.8996V15.1H84.1996V15.8ZM84.1996 18.9H83.4996V19.6H84.1996V18.9ZM93.4996 18.9V19.6H94.1996V18.9H93.4996ZM93.4996 12.7H94.1996V12H93.4996V12.7ZM81.0996 12.7H80.3996V13.4H81.0996V12.7ZM81.0996 9.6H81.7996V8.9H81.0996V9.6ZM77.9996 9.6H77.2996V10.3H77.9996V9.6ZM77.9996 3.4V2.7H77.2996V3.4H77.9996ZM81.0996 3.4V4.1H81.7996V3.4H81.0996ZM81.0996 0.299998V-0.400002H80.3996V0.299998H81.0996ZM93.4996 0.299998H94.1996V-0.400002H93.4996V0.299998ZM93.4996 3.4H92.7996V4.1H93.4996V3.4ZM96.5996 3.4H97.2996V2.7H96.5996V3.4ZM96.5996 6.5V7.2H97.2996V6.5H96.5996ZM90.3996 6.5H89.6996V7.2H90.3996V6.5ZM90.3996 3.4H91.0996V2.7H90.3996V3.4ZM84.1996 3.4V2.7H83.4996V3.4H84.1996ZM84.1996 9.6H83.4996V10.3H84.1996V9.6ZM96.5996 9.6H97.2996V8.9H96.5996V9.6ZM96.5996 12.7H95.8996V13.4H96.5996V12.7ZM99.6996 12.7H100.4V12H99.6996V12.7ZM99.6996 18.2H96.5996V19.6H99.6996V18.2ZM95.8996 18.9V22H97.2996V18.9H95.8996ZM96.5996 21.3H81.0996V22.7H96.5996V21.3ZM81.7996 22V18.9H80.3996V22H81.7996ZM81.0996 18.2H77.9996V19.6H81.0996V18.2ZM78.6996 18.9V15.8H77.2996V18.9H78.6996ZM77.9996 16.5H84.1996V15.1H77.9996V16.5ZM83.4996 15.8V18.9H84.8996V15.8H83.4996ZM84.1996 19.6H93.4996V18.2H84.1996V19.6ZM94.1996 18.9V12.7H92.7996V18.9H94.1996ZM93.4996 12H81.0996V13.4H93.4996V12ZM81.7996 12.7V9.6H80.3996V12.7H81.7996ZM81.0996 8.9H77.9996V10.3H81.0996V8.9ZM78.6996 9.6V3.4H77.2996V9.6H78.6996ZM77.9996 4.1H81.0996V2.7H77.9996V4.1ZM81.7996 3.4V0.299998H80.3996V3.4H81.7996ZM81.0996 0.999998H93.4996V-0.400002H81.0996V0.999998ZM92.7996 0.299998V3.4H94.1996V0.299998H92.7996ZM93.4996 4.1H96.5996V2.7H93.4996V4.1ZM95.8996 3.4V6.5H97.2996V3.4H95.8996ZM96.5996 5.8H90.3996V7.2H96.5996V5.8ZM91.0996 6.5V3.4H89.6996V6.5H91.0996ZM90.3996 2.7H84.1996V4.1H90.3996V2.7ZM83.4996 3.4V9.6H84.8996V3.4H83.4996ZM84.1996 10.3H96.5996V8.9H84.1996V10.3ZM95.8996 9.6V12.7H97.2996V9.6H95.8996ZM96.5996 13.4H99.6996V12H96.5996V13.4ZM98.9996 12.7V18.9H100.4V12.7H98.9996ZM125.371 18.9V19.6H126.072V18.9H125.371ZM122.271 18.9V18.2H121.572V18.9H122.271ZM122.271 22V22.7H122.972V22H122.271ZM106.771 22H106.072V22.7H106.771V22ZM106.771 18.9H107.471V18.2H106.771V18.9ZM103.672 18.9H102.971V19.6H103.672V18.9ZM103.672 15.8V15.1H102.971V15.8H103.672ZM109.871 15.8H110.572V15.1H109.871V15.8ZM109.871 18.9H109.172V19.6H109.871V18.9ZM119.172 18.9V19.6H119.871V18.9H119.172ZM119.172 12.7H119.871V12H119.172V12.7ZM106.771 12.7H106.072V13.4H106.771V12.7ZM106.771 9.6H107.471V8.9H106.771V9.6ZM103.672 9.6H102.971V10.3H103.672V9.6ZM103.672 3.4V2.7H102.971V3.4H103.672ZM106.771 3.4V4.1H107.471V3.4H106.771ZM106.771 0.299998V-0.400002H106.072V0.299998H106.771ZM119.172 0.299998H119.871V-0.400002H119.172V0.299998ZM119.172 3.4H118.471V4.1H119.172V3.4ZM122.271 3.4H122.972V2.7H122.271V3.4ZM122.271 6.5V7.2H122.972V6.5H122.271ZM116.072 6.5H115.371V7.2H116.072V6.5ZM116.072 3.4H116.771V2.7H116.072V3.4ZM109.871 3.4V2.7H109.172V3.4H109.871ZM109.871 9.6H109.172V10.3H109.871V9.6ZM122.271 9.6H122.972V8.9H122.271V9.6ZM122.271 12.7H121.572V13.4H122.271V12.7ZM125.371 12.7H126.072V12H125.371V12.7ZM125.371 18.2H122.271V19.6H125.371V18.2ZM121.572 18.9V22H122.972V18.9H121.572ZM122.271 21.3H106.771V22.7H122.271V21.3ZM107.471 22V18.9H106.072V22H107.471ZM106.771 18.2H103.672V19.6H106.771V18.2ZM104.371 18.9V15.8H102.971V18.9H104.371ZM103.672 16.5H109.871V15.1H103.672V16.5ZM109.172 15.8V18.9H110.572V15.8H109.172ZM109.871 19.6H119.172V18.2H109.871V19.6ZM119.871 18.9V12.7H118.471V18.9H119.871ZM119.172 12H106.771V13.4H119.172V12ZM107.471 12.7V9.6H106.072V12.7H107.471ZM106.771 8.9H103.672V10.3H106.771V8.9ZM104.371 9.6V3.4H102.971V9.6H104.371ZM103.672 4.1H106.771V2.7H103.672V4.1ZM107.471 3.4V0.299998H106.072V3.4H107.471ZM106.771 0.999998H119.172V-0.400002H106.771V0.999998ZM118.471 0.299998V3.4H119.871V0.299998H118.471ZM119.172 4.1H122.271V2.7H119.172V4.1ZM121.572 3.4V6.5H122.972V3.4H121.572ZM122.271 5.8H116.072V7.2H122.271V5.8ZM116.771 6.5V3.4H115.371V6.5H116.771ZM116.072 2.7H109.871V4.1H116.072V2.7ZM109.172 3.4V9.6H110.572V3.4H109.172ZM109.871 10.3H122.271V8.9H109.871V10.3ZM121.572 9.6V12.7H122.972V9.6H121.572ZM122.271 13.4H125.371V12H122.271V13.4ZM124.672 12.7V18.9H126.072V12.7H124.672ZM176.715 12.7V13.4H177.415V12.7H176.715ZM173.615 12.7V12H172.915V12.7H173.615ZM173.615 15.8V16.5H174.315V15.8H173.615ZM161.215 15.8V15.1H160.515V15.8H161.215ZM161.215 22V22.7H161.915V22H161.215ZM155.015 22H154.315V22.7H155.015V22ZM155.015 0.299998V-0.400002H154.315V0.299998H155.015ZM173.615 0.299998H174.315V-0.400002H173.615V0.299998ZM173.615 3.4H172.915V4.1H173.615V3.4ZM176.715 3.4H177.415V2.7H176.715V3.4ZM170.515 12.7V13.4H171.215V12.7H170.515ZM170.515 3.4H171.215V2.7H170.515V3.4ZM161.215 3.4V2.7H160.515V3.4H161.215ZM161.215 12.7H160.515V13.4H161.215V12.7ZM176.715 12H173.615V13.4H176.715V12ZM172.915 12.7V15.8H174.315V12.7H172.915ZM173.615 15.1H161.215V16.5H173.615V15.1ZM160.515 15.8V22H161.915V15.8H160.515ZM161.215 21.3H155.015V22.7H161.215V21.3ZM155.715 22V0.299998H154.315V22H155.715ZM155.015 0.999998H173.615V-0.400002H155.015V0.999998ZM172.915 0.299998V3.4H174.315V0.299998H172.915ZM173.615 4.1H176.715V2.7H173.615V4.1ZM176.015 3.4V12.7H177.415V3.4H176.015ZM171.215 12.7V3.4H169.815V12.7H171.215ZM170.515 2.7H161.215V4.1H170.515V2.7ZM160.515 3.4V12.7H161.915V3.4H160.515ZM161.215 13.4H170.515V12H161.215V13.4ZM202.387 22V22.7H203.087V22H202.387ZM180.687 22H179.987V22.7H180.687V22ZM180.687 0.299998V-0.400002H179.987V0.299998H180.687ZM186.887 0.299998H187.587V-0.400002H186.887V0.299998ZM186.887 18.9H186.187V19.6H186.887V18.9ZM202.387 18.9H203.087V18.2H202.387V18.9ZM202.387 21.3H180.687V22.7H202.387V21.3ZM181.387 22V0.299998H179.987V22H181.387ZM180.687 0.999998H186.887V-0.400002H180.687V0.999998ZM186.187 0.299998V18.9H187.587V0.299998H186.187ZM186.887 19.6H202.387V18.2H186.887V19.6ZM201.687 18.9V22H203.087V18.9H201.687ZM228.059 22V22.7H228.759V22H228.059ZM221.859 22H221.159V22.7H221.859V22ZM221.859 15.8H222.559V15.1H221.859V15.8ZM212.559 15.8V15.1H211.859V15.8H212.559ZM212.559 22V22.7H213.259V22H212.559ZM206.359 22H205.659V22.7H206.359V22ZM206.359 6.5V5.8H205.659V6.5H206.359ZM209.459 6.5V7.2H210.159V6.5H209.459ZM209.459 3.4V2.7H208.759V3.4H209.459ZM212.559 3.4V4.1H213.259V3.4H212.559ZM212.559 0.299998V-0.400002H211.859V0.299998H212.559ZM221.859 0.299998H222.559V-0.400002H221.859V0.299998ZM221.859 3.4H221.159V4.1H221.859V3.4ZM224.959 3.4H225.659V2.7H224.959V3.4ZM224.959 6.5H224.259V7.2H224.959V6.5ZM228.059 6.5H228.759V5.8H228.059V6.5ZM221.859 12.7V13.4H222.559V12.7H221.859ZM221.859 6.5H222.559V5.8H221.859V6.5ZM218.759 6.5H218.059V7.2H218.759V6.5ZM218.759 3.4H219.459V2.7H218.759V3.4ZM215.659 3.4V2.7H214.959V3.4H215.659ZM215.659 6.5V7.2H216.359V6.5H215.659ZM212.559 6.5V5.8H211.859V6.5H212.559ZM212.559 12.7H211.859V13.4H212.559V12.7ZM228.059 21.3H221.859V22.7H228.059V21.3ZM222.559 22V15.8H221.159V22H222.559ZM221.859 15.1H212.559V16.5H221.859V15.1ZM211.859 15.8V22H213.259V15.8H211.859ZM212.559 21.3H206.359V22.7H212.559V21.3ZM207.059 22V6.5H205.659V22H207.059ZM206.359 7.2H209.459V5.8H206.359V7.2ZM210.159 6.5V3.4H208.759V6.5H210.159ZM209.459 4.1H212.559V2.7H209.459V4.1ZM213.259 3.4V0.299998H211.859V3.4H213.259ZM212.559 0.999998H221.859V-0.400002H212.559V0.999998ZM221.159 0.299998V3.4H222.559V0.299998H221.159ZM221.859 4.1H224.959V2.7H221.859V4.1ZM224.259 3.4V6.5H225.659V3.4H224.259ZM224.959 7.2H228.059V5.8H224.959V7.2ZM227.359 6.5V22H228.759V6.5H227.359ZM222.559 12.7V6.5H221.159V12.7H222.559ZM221.859 5.8H218.759V7.2H221.859V5.8ZM219.459 6.5V3.4H218.059V6.5H219.459ZM218.759 2.7H215.659V4.1H218.759V2.7ZM214.959 3.4V6.5H216.359V3.4H214.959ZM215.659 5.8H212.559V7.2H215.659V5.8ZM211.859 6.5V12.7H213.259V6.5H211.859ZM212.559 13.4H221.859V12H212.559V13.4ZM252.181 9.6V10.3H252.881V9.6H252.181ZM249.081 9.6V8.9H248.381V9.6H249.081ZM249.081 12.7V13.4H249.781V12.7H249.081ZM245.981 12.7V12H245.281V12.7H245.981ZM245.981 22V22.7H246.681V22H245.981ZM239.781 22H239.081V22.7H239.781V22ZM239.781 12.7H240.481V12H239.781V12.7ZM236.65 12.7H235.95V13.4H236.65V12.7ZM236.65 9.6H237.35V8.9H236.65V9.6ZM233.581 9.6H232.881V10.3H233.581V9.6ZM233.581 0.299998V-0.400002H232.881V0.299998H233.581ZM239.781 0.299998H240.481V-0.400002H239.781V0.299998ZM239.781 9.6H239.081V10.3H239.781V9.6ZM245.981 9.6V10.3H246.681V9.6H245.981ZM245.981 0.299998V-0.400002H245.281V0.299998H245.981ZM252.181 0.299998H252.881V-0.400002H252.181V0.299998ZM252.181 8.9H249.081V10.3H252.181V8.9ZM248.381 9.6V12.7H249.781V9.6H248.381ZM249.081 12H245.981V13.4H249.081V12ZM245.281 12.7V22H246.681V12.7H245.281ZM245.981 21.3H239.781V22.7H245.981V21.3ZM240.481 22V12.7H239.081V22H240.481ZM239.781 12H236.65V13.4H239.781V12ZM237.35 12.7V9.6H235.95V12.7H237.35ZM236.65 8.9H233.581V10.3H236.65V8.9ZM234.281 9.6V0.299998H232.881V9.6H234.281ZM233.581 0.999998H239.781V-0.400002H233.581V0.999998ZM239.081 0.299998V9.6H240.481V0.299998H239.081ZM239.781 10.3H245.981V8.9H239.781V10.3ZM246.681 9.6V0.299998H245.281V9.6H246.681ZM245.981 0.999998H252.181V-0.400002H245.981V0.999998ZM251.481 0.299998V9.6H252.881V0.299998H251.481ZM303.525 3.4V4.1H304.225V3.4H303.525ZM297.325 3.4V2.7H296.625V3.4H297.325ZM297.325 22V22.7H298.025V22H297.325ZM291.125 22H290.425V22.7H291.125V22ZM291.125 3.4H291.825V2.7H291.125V3.4ZM284.925 3.4H284.225V4.1H284.925V3.4ZM284.925 0.299998V-0.400002H284.225V0.299998H284.925ZM303.525 0.299998H304.225V-0.400002H303.525V0.299998ZM303.525 2.7H297.325V4.1H303.525V2.7ZM296.625 3.4V22H298.025V3.4H296.625ZM297.325 21.3H291.125V22.7H297.325V21.3ZM291.825 22V3.4H290.425V22H291.825ZM291.125 2.7H284.925V4.1H291.125V2.7ZM285.625 3.4V0.299998H284.225V3.4H285.625ZM284.925 0.999998H303.525V-0.400002H284.925V0.999998ZM302.825 0.299998V3.4H304.225V0.299998H302.825ZM330.746 18.9V19.6H331.447V18.9H330.746ZM327.647 18.9V18.2H326.947V18.9H327.647ZM327.647 22V22.7H328.346V22H327.647ZM312.147 22H311.447V22.7H312.147V22ZM312.147 18.9H312.846V18.2H312.147V18.9ZM309.047 18.9H308.346V19.6H309.047V18.9ZM309.047 3.4V2.7H308.346V3.4H309.047ZM312.147 3.4V4.1H312.846V3.4H312.147ZM312.147 0.299998V-0.400002H311.447V0.299998H312.147ZM327.647 0.299998H328.346V-0.400002H327.647V0.299998ZM327.647 3.4H326.947V4.1H327.647V3.4ZM330.746 3.4H331.447V2.7H330.746V3.4ZM324.547 18.9V19.6H325.246V18.9H324.547ZM324.547 3.4H325.246V2.7H324.547V3.4ZM315.246 3.4V2.7H314.547V3.4H315.246ZM315.246 18.9H314.547V19.6H315.246V18.9ZM330.746 18.2H327.647V19.6H330.746V18.2ZM326.947 18.9V22H328.346V18.9H326.947ZM327.647 21.3H312.147V22.7H327.647V21.3ZM312.846 22V18.9H311.447V22H312.846ZM312.147 18.2H309.047V19.6H312.147V18.2ZM309.746 18.9V3.4H308.346V18.9H309.746ZM309.047 4.1H312.147V2.7H309.047V4.1ZM312.846 3.4V0.299998H311.447V3.4H312.846ZM312.147 0.999998H327.647V-0.400002H312.147V0.999998ZM326.947 0.299998V3.4H328.346V0.299998H326.947ZM327.647 4.1H330.746V2.7H327.647V4.1ZM330.047 3.4V18.9H331.447V3.4H330.047ZM325.246 18.9V3.4H323.846V18.9H325.246ZM324.547 2.7H315.246V4.1H324.547V2.7ZM314.547 3.4V18.9H315.947V3.4H314.547ZM315.246 19.6H324.547V18.2H315.246V19.6ZM22.684 59V59.7H23.384V59H22.684ZM0.984 59H0.284V59.7H0.984V59ZM0.984 37.3V36.6H0.284V37.3H0.984ZM22.684 37.3H23.384V36.6H22.684V37.3ZM22.684 40.4V41.1H23.384V40.4H22.684ZM7.184 40.4V39.7H6.484V40.4H7.184ZM7.184 46.6H6.484V47.3H7.184V46.6ZM19.584 46.6H20.284V45.9H19.584V46.6ZM19.584 49.7V50.4H20.284V49.7H19.584ZM7.184 49.7V49H6.484V49.7H7.184ZM7.184 55.9H6.484V56.6H7.184V55.9ZM22.684 55.9H23.384V55.2H22.684V55.9ZM22.684 58.3H0.984V59.7H22.684V58.3ZM1.684 59V37.3H0.284V59H1.684ZM0.984 38H22.684V36.6H0.984V38ZM21.984 37.3V40.4H23.384V37.3H21.984ZM22.684 39.7H7.184V41.1H22.684V39.7ZM6.484 40.4V46.6H7.884V40.4H6.484ZM7.184 47.3H19.584V45.9H7.184V47.3ZM18.884 46.6V49.7H20.284V46.6H18.884ZM19.584 49H7.184V50.4H19.584V49ZM6.484 49.7V55.9H7.884V49.7H6.484ZM7.184 56.6H22.684V55.2H7.184V56.6ZM21.984 55.9V59H23.384V55.9H21.984ZM48.3559 59V59.7H49.0559V59H48.3559ZM42.1559 59H41.4559V59.7H42.1559V59ZM42.1559 55.9H42.8559V55.2H42.1559V55.9ZM39.0559 55.9H38.3559V56.6H39.0559V55.9ZM39.0559 52.8H39.7559V52.1H39.0559V52.8ZM35.9559 52.8H35.2559V53.5H35.9559V52.8ZM35.9559 49.7H36.6559V49H35.9559V49.7ZM32.8559 49.7V49H32.1559V49.7H32.8559ZM32.8559 59V59.7H33.5559V59H32.8559ZM26.6559 59H25.9559V59.7H26.6559V59ZM26.6559 37.3V36.6H25.9559V37.3H26.6559ZM32.8559 37.3H33.5559V36.6H32.8559V37.3ZM32.8559 40.4H32.1559V41.1H32.8559V40.4ZM35.9559 40.4H36.6559V39.7H35.9559V40.4ZM35.9559 43.5H35.2559V44.2H35.9559V43.5ZM39.0559 43.5H39.7559V42.8H39.0559V43.5ZM39.0559 46.6H38.3559V47.3H39.0559V46.6ZM42.1559 46.6V47.3H42.8559V46.6H42.1559ZM42.1559 37.3V36.6H41.4559V37.3H42.1559ZM48.3559 37.3H49.0559V36.6H48.3559V37.3ZM48.3559 58.3H42.1559V59.7H48.3559V58.3ZM42.8559 59V55.9H41.4559V59H42.8559ZM42.1559 55.2H39.0559V56.6H42.1559V55.2ZM39.7559 55.9V52.8H38.3559V55.9H39.7559ZM39.0559 52.1H35.9559V53.5H39.0559V52.1ZM36.6559 52.8V49.7H35.2559V52.8H36.6559ZM35.9559 49H32.8559V50.4H35.9559V49ZM32.1559 49.7V59H33.5559V49.7H32.1559ZM32.8559 58.3H26.6559V59.7H32.8559V58.3ZM27.3559 59V37.3H25.9559V59H27.3559ZM26.6559 38H32.8559V36.6H26.6559V38ZM32.1559 37.3V40.4H33.5559V37.3H32.1559ZM32.8559 41.1H35.9559V39.7H32.8559V41.1ZM35.2559 40.4V43.5H36.6559V40.4H35.2559ZM35.9559 44.2H39.0559V42.8H35.9559V44.2ZM38.3559 43.5V46.6H39.7559V43.5H38.3559ZM39.0559 47.3H42.1559V45.9H39.0559V47.3ZM42.8559 46.6V37.3H41.4559V46.6H42.8559ZM42.1559 38H48.3559V36.6H42.1559V38ZM47.6559 37.3V59H49.0559V37.3H47.6559ZM72.4778 40.4V41.1H73.1777V40.4H72.4778ZM66.2777 40.4V39.7H65.5778V40.4H66.2777ZM66.2777 59V59.7H66.9778V59H66.2777ZM60.0778 59H59.3778V59.7H60.0778V59ZM60.0778 40.4H60.7778V39.7H60.0778V40.4ZM53.8778 40.4H53.1777V41.1H53.8778V40.4ZM53.8778 37.3V36.6H53.1777V37.3H53.8778ZM72.4778 37.3H73.1777V36.6H72.4778V37.3ZM72.4778 39.7H66.2777V41.1H72.4778V39.7ZM65.5778 40.4V59H66.9778V40.4H65.5778ZM66.2777 58.3H60.0778V59.7H66.2777V58.3ZM60.7778 59V40.4H59.3778V59H60.7778ZM60.0778 39.7H53.8778V41.1H60.0778V39.7ZM54.5778 40.4V37.3H53.1777V40.4H54.5778ZM53.8778 38H72.4778V36.6H53.8778V38ZM71.7777 37.3V40.4H73.1777V37.3H71.7777ZM99.6996 59V59.7H100.4V59H99.6996ZM77.9996 59H77.2996V59.7H77.9996V59ZM77.9996 37.3V36.6H77.2996V37.3H77.9996ZM99.6996 37.3H100.4V36.6H99.6996V37.3ZM99.6996 40.4V41.1H100.4V40.4H99.6996ZM84.1996 40.4V39.7H83.4996V40.4H84.1996ZM84.1996 46.6H83.4996V47.3H84.1996V46.6ZM96.5996 46.6H97.2996V45.9H96.5996V46.6ZM96.5996 49.7V50.4H97.2996V49.7H96.5996ZM84.1996 49.7V49H83.4996V49.7H84.1996ZM84.1996 55.9H83.4996V56.6H84.1996V55.9ZM99.6996 55.9H100.4V55.2H99.6996V55.9ZM99.6996 58.3H77.9996V59.7H99.6996V58.3ZM78.6996 59V37.3H77.2996V59H78.6996ZM77.9996 38H99.6996V36.6H77.9996V38ZM98.9996 37.3V40.4H100.4V37.3H98.9996ZM99.6996 39.7H84.1996V41.1H99.6996V39.7ZM83.4996 40.4V46.6H84.8996V40.4H83.4996ZM84.1996 47.3H96.5996V45.9H84.1996V47.3ZM95.8996 46.6V49.7H97.2996V46.6H95.8996ZM96.5996 49H84.1996V50.4H96.5996V49ZM83.4996 49.7V55.9H84.8996V49.7H83.4996ZM84.1996 56.6H99.6996V55.2H84.1996V56.6ZM98.9996 55.9V59H100.4V55.9H98.9996ZM125.371 59V59.7H126.072V59H125.371ZM116.072 59H115.371V59.7H116.072V59ZM116.072 55.9H116.771V55.2H116.072V55.9ZM112.972 55.9H112.271V56.6H112.972V55.9ZM112.972 52.8H113.672V52.1H112.972V52.8ZM109.871 52.8V52.1H109.172V52.8H109.871ZM109.871 59V59.7H110.572V59H109.871ZM103.672 59H102.971V59.7H103.672V59ZM103.672 37.3V36.6H102.971V37.3H103.672ZM122.271 37.3H122.972V36.6H122.271V37.3ZM122.271 40.4H121.572V41.1H122.271V40.4ZM125.371 40.4H126.072V39.7H125.371V40.4ZM125.371 49.7V50.4H126.072V49.7H125.371ZM119.172 49.7V49H118.471V49.7H119.172ZM119.172 52.8H118.471V53.5H119.172V52.8ZM122.271 52.8H122.972V52.1H122.271V52.8ZM122.271 55.9H121.572V56.6H122.271V55.9ZM125.371 55.9H126.072V55.2H125.371V55.9ZM119.172 46.6V47.3H119.871V46.6H119.172ZM119.172 40.4H119.871V39.7H119.172V40.4ZM109.871 40.4V39.7H109.172V40.4H109.871ZM109.871 49.7H109.172V50.4H109.871V49.7ZM116.072 49.7V50.4H116.771V49.7H116.072ZM116.072 46.6V45.9H115.371V46.6H116.072ZM125.371 58.3H116.072V59.7H125.371V58.3ZM116.771 59V55.9H115.371V59H116.771ZM116.072 55.2H112.972V56.6H116.072V55.2ZM113.672 55.9V52.8H112.271V55.9H113.672ZM112.972 52.1H109.871V53.5H112.972V52.1ZM109.172 52.8V59H110.572V52.8H109.172ZM109.871 58.3H103.672V59.7H109.871V58.3ZM104.371 59V37.3H102.971V59H104.371ZM103.672 38H122.271V36.6H103.672V38ZM121.572 37.3V40.4H122.972V37.3H121.572ZM122.271 41.1H125.371V39.7H122.271V41.1ZM124.672 40.4V49.7H126.072V40.4H124.672ZM125.371 49H119.172V50.4H125.371V49ZM118.471 49.7V52.8H119.871V49.7H118.471ZM119.172 53.5H122.271V52.1H119.172V53.5ZM121.572 52.8V55.9H122.972V52.8H121.572ZM122.271 56.6H125.371V55.2H122.271V56.6ZM124.672 55.9V59H126.072V55.9H124.672ZM119.871 46.6V40.4H118.471V46.6H119.871ZM119.172 39.7H109.871V41.1H119.172V39.7ZM109.172 40.4V49.7H110.572V40.4H109.172ZM109.871 50.4H116.072V49H109.871V50.4ZM116.771 49.7V46.6H115.371V49.7H116.771ZM116.072 47.3H119.172V45.9H116.072V47.3ZM176.715 55.9V56.6H177.415V55.9H176.715ZM173.615 55.9V55.2H172.915V55.9H173.615ZM173.615 59V59.7H174.315V59H173.615ZM158.115 59H157.415V59.7H158.115V59ZM158.115 55.9H158.815V55.2H158.115V55.9ZM155.015 55.9H154.315V56.6H155.015V55.9ZM155.015 52.8V52.1H154.315V52.8H155.015ZM161.215 52.8H161.915V52.1H161.215V52.8ZM161.215 55.9H160.515V56.6H161.215V55.9ZM170.515 55.9V56.6H171.215V55.9H170.515ZM170.515 49.7H171.215V49H170.515V49.7ZM158.115 49.7H157.415V50.4H158.115V49.7ZM158.115 46.6H158.815V45.9H158.115V46.6ZM155.015 46.6H154.315V47.3H155.015V46.6ZM155.015 40.4V39.7H154.315V40.4H155.015ZM158.115 40.4V41.1H158.815V40.4H158.115ZM158.115 37.3V36.6H157.415V37.3H158.115ZM170.515 37.3H171.215V36.6H170.515V37.3ZM170.515 40.4H169.815V41.1H170.515V40.4ZM173.615 40.4H174.315V39.7H173.615V40.4ZM173.615 43.5V44.2H174.315V43.5H173.615ZM167.415 43.5H166.715V44.2H167.415V43.5ZM167.415 40.4H168.115V39.7H167.415V40.4ZM161.215 40.4V39.7H160.515V40.4H161.215ZM161.215 46.6H160.515V47.3H161.215V46.6ZM173.615 46.6H174.315V45.9H173.615V46.6ZM173.615 49.7H172.915V50.4H173.615V49.7ZM176.715 49.7H177.415V49H176.715V49.7ZM176.715 55.2H173.615V56.6H176.715V55.2ZM172.915 55.9V59H174.315V55.9H172.915ZM173.615 58.3H158.115V59.7H173.615V58.3ZM158.815 59V55.9H157.415V59H158.815ZM158.115 55.2H155.015V56.6H158.115V55.2ZM155.715 55.9V52.8H154.315V55.9H155.715ZM155.015 53.5H161.215V52.1H155.015V53.5ZM160.515 52.8V55.9H161.915V52.8H160.515ZM161.215 56.6H170.515V55.2H161.215V56.6ZM171.215 55.9V49.7H169.815V55.9H171.215ZM170.515 49H158.115V50.4H170.515V49ZM158.815 49.7V46.6H157.415V49.7H158.815ZM158.115 45.9H155.015V47.3H158.115V45.9ZM155.715 46.6V40.4H154.315V46.6H155.715ZM155.015 41.1H158.115V39.7H155.015V41.1ZM158.815 40.4V37.3H157.415V40.4H158.815ZM158.115 38H170.515V36.6H158.115V38ZM169.815 37.3V40.4H171.215V37.3H169.815ZM170.515 41.1H173.615V39.7H170.515V41.1ZM172.915 40.4V43.5H174.315V40.4H172.915ZM173.615 42.8H167.415V44.2H173.615V42.8ZM168.115 43.5V40.4H166.715V43.5H168.115ZM167.415 39.7H161.215V41.1H167.415V39.7ZM160.515 40.4V46.6H161.915V40.4H160.515ZM161.215 47.3H173.615V45.9H161.215V47.3ZM172.915 46.6V49.7H174.315V46.6H172.915ZM173.615 50.4H176.715V49H173.615V50.4ZM176.015 49.7V55.9H177.415V49.7H176.015ZM197.749 40.4V41.1H198.449V40.4H197.749ZM191.549 40.4V39.7H190.849V40.4H191.549ZM191.549 59V59.7H192.249V59H191.549ZM185.349 59H184.649V59.7H185.349V59ZM185.349 40.4H186.049V39.7H185.349V40.4ZM179.149 40.4H178.449V41.1H179.149V40.4ZM179.149 37.3V36.6H178.449V37.3H179.149ZM197.749 37.3H198.449V36.6H197.749V37.3ZM197.749 39.7H191.549V41.1H197.749V39.7ZM190.849 40.4V59H192.249V40.4H190.849ZM191.549 58.3H185.349V59.7H191.549V58.3ZM186.049 59V40.4H184.649V59H186.049ZM185.349 39.7H179.149V41.1H185.349V39.7ZM179.849 40.4V37.3H178.449V40.4H179.849ZM179.149 38H197.749V36.6H179.149V38ZM197.049 37.3V40.4H198.449V37.3H197.049ZM224.971 55.9V56.6H225.671V55.9H224.971ZM221.871 55.9V55.2H221.171V55.9H221.871ZM221.871 59V59.7H222.571V59H221.871ZM206.371 59H205.671V59.7H206.371V59ZM206.371 55.9H207.071V55.2H206.371V55.9ZM203.271 55.9H202.571V56.6H203.271V55.9ZM203.271 40.4V39.7H202.571V40.4H203.271ZM206.371 40.4V41.1H207.071V40.4H206.371ZM206.371 37.3V36.6H205.671V37.3H206.371ZM221.871 37.3H222.571V36.6H221.871V37.3ZM221.871 40.4H221.171V41.1H221.871V40.4ZM224.971 40.4H225.671V39.7H224.971V40.4ZM218.771 55.9V56.6H219.471V55.9H218.771ZM218.771 40.4H219.471V39.7H218.771V40.4ZM209.471 40.4V39.7H208.771V40.4H209.471ZM209.471 55.9H208.771V56.6H209.471V55.9ZM224.971 55.2H221.871V56.6H224.971V55.2ZM221.171 55.9V59H222.571V55.9H221.171ZM221.871 58.3H206.371V59.7H221.871V58.3ZM207.071 59V55.9H205.671V59H207.071ZM206.371 55.2H203.271V56.6H206.371V55.2ZM203.971 55.9V40.4H202.571V55.9H203.971ZM203.271 41.1H206.371V39.7H203.271V41.1ZM207.071 40.4V37.3H205.671V40.4H207.071ZM206.371 38H221.871V36.6H206.371V38ZM221.171 37.3V40.4H222.571V37.3H221.171ZM221.871 41.1H224.971V39.7H221.871V41.1ZM224.271 40.4V55.9H225.671V40.4H224.271ZM219.471 55.9V40.4H218.071V55.9H219.471ZM218.771 39.7H209.471V41.1H218.771V39.7ZM208.771 40.4V55.9H210.171V40.4H208.771ZM209.471 56.6H218.771V55.2H209.471V56.6ZM250.643 59V59.7H251.343V59H250.643ZM241.343 59H240.643V59.7H241.343V59ZM241.343 55.9H242.043V55.2H241.343V55.9ZM238.243 55.9H237.543V56.6H238.243V55.9ZM238.243 52.8H238.943V52.1H238.243V52.8ZM235.143 52.8V52.1H234.443V52.8H235.143ZM235.143 59V59.7H235.843V59H235.143ZM228.943 59H228.243V59.7H228.943V59ZM228.943 37.3V36.6H228.243V37.3H228.943ZM247.543 37.3H248.243V36.6H247.543V37.3ZM247.543 40.4H246.843V41.1H247.543V40.4ZM250.643 40.4H251.343V39.7H250.643V40.4ZM250.643 49.7V50.4H251.343V49.7H250.643ZM244.443 49.7V49H243.743V49.7H244.443ZM244.443 52.8H243.743V53.5H244.443V52.8ZM247.543 52.8H248.243V52.1H247.543V52.8ZM247.543 55.9H246.843V56.6H247.543V55.9ZM250.643 55.9H251.343V55.2H250.643V55.9ZM244.443 46.6V47.3H245.143V46.6H244.443ZM244.443 40.4H245.143V39.7H244.443V40.4ZM235.143 40.4V39.7H234.443V40.4H235.143ZM235.143 49.7H234.443V50.4H235.143V49.7ZM241.343 49.7V50.4H242.043V49.7H241.343ZM241.343 46.6V45.9H240.643V46.6H241.343ZM250.643 58.3H241.343V59.7H250.643V58.3ZM242.043 59V55.9H240.643V59H242.043ZM241.343 55.2H238.243V56.6H241.343V55.2ZM238.943 55.9V52.8H237.543V55.9H238.943ZM238.243 52.1H235.143V53.5H238.243V52.1ZM234.443 52.8V59H235.843V52.8H234.443ZM235.143 58.3H228.943V59.7H235.143V58.3ZM229.643 59V37.3H228.243V59H229.643ZM228.943 38H247.543V36.6H228.943V38ZM246.843 37.3V40.4H248.243V37.3H246.843ZM247.543 41.1H250.643V39.7H247.543V41.1ZM249.943 40.4V49.7H251.343V40.4H249.943ZM250.643 49H244.443V50.4H250.643V49ZM243.743 49.7V52.8H245.143V49.7H243.743ZM244.443 53.5H247.543V52.1H244.443V53.5ZM246.843 52.8V55.9H248.243V52.8H246.843ZM247.543 56.6H250.643V55.2H247.543V56.6ZM249.943 55.9V59H251.343V55.9H249.943ZM245.143 46.6V40.4H243.743V46.6H245.143ZM244.443 39.7H235.143V41.1H244.443V39.7ZM234.443 40.4V49.7H235.843V40.4H234.443ZM235.143 50.4H241.343V49H235.143V50.4ZM242.043 49.7V46.6H240.643V49.7H242.043ZM241.343 47.3H244.443V45.9H241.343V47.3ZM274.765 46.6V47.3H275.465V46.6H274.765ZM271.665 46.6V45.9H270.965V46.6H271.665ZM271.665 49.7V50.4H272.365V49.7H271.665ZM268.565 49.7V49H267.865V49.7H268.565ZM268.565 59V59.7H269.265V59H268.565ZM262.365 59H261.665V59.7H262.365V59ZM262.365 49.7H263.065V49H262.365V49.7ZM259.234 49.7H258.534V50.4H259.234V49.7ZM259.234 46.6H259.934V45.9H259.234V46.6ZM256.165 46.6H255.465V47.3H256.165V46.6ZM256.165 37.3V36.6H255.465V37.3H256.165ZM262.365 37.3H263.065V36.6H262.365V37.3ZM262.365 46.6H261.665V47.3H262.365V46.6ZM268.565 46.6V47.3H269.265V46.6H268.565ZM268.565 37.3V36.6H267.865V37.3H268.565ZM274.765 37.3H275.465V36.6H274.765V37.3ZM274.765 45.9H271.665V47.3H274.765V45.9ZM270.965 46.6V49.7H272.365V46.6H270.965ZM271.665 49H268.565V50.4H271.665V49ZM267.865 49.7V59H269.265V49.7H267.865ZM268.565 58.3H262.365V59.7H268.565V58.3ZM263.065 59V49.7H261.665V59H263.065ZM262.365 49H259.234V50.4H262.365V49ZM259.934 49.7V46.6H258.534V49.7H259.934ZM259.234 45.9H256.165V47.3H259.234V45.9ZM256.865 46.6V37.3H255.465V46.6H256.865ZM256.165 38H262.365V36.6H256.165V38ZM261.665 37.3V46.6H263.065V37.3H261.665ZM262.365 47.3H268.565V45.9H262.365V47.3ZM269.265 46.6V37.3H267.865V46.6H269.265ZM268.565 38H274.765V36.6H268.565V38ZM274.065 37.3V46.6H275.465V37.3H274.065ZM327.659 59V59.7H328.359V59H327.659ZM321.459 59H320.759V59.7H321.459V59ZM321.459 49.7H322.159V49H321.459V49.7ZM318.359 49.7V49H317.659V49.7H318.359ZM318.359 52.8V53.5H319.059V52.8H318.359ZM315.259 52.8H314.559V53.5H315.259V52.8ZM315.259 49.7H315.959V49H315.259V49.7ZM312.159 49.7V49H311.459V49.7H312.159ZM312.159 59V59.7H312.859V59H312.159ZM305.959 59H305.259V59.7H305.959V59ZM305.959 37.3V36.6H305.259V37.3H305.959ZM312.159 37.3H312.859V36.6H312.159V37.3ZM312.159 40.4H311.459V41.1H312.159V40.4ZM315.259 40.4H315.959V39.7H315.259V40.4ZM315.259 43.5H314.559V44.2H315.259V43.5ZM318.359 43.5V44.2H319.059V43.5H318.359ZM318.359 40.4V39.7H317.659V40.4H318.359ZM321.459 40.4V41.1H322.159V40.4H321.459ZM321.459 37.3V36.6H320.759V37.3H321.459ZM327.659 37.3H328.359V36.6H327.659V37.3ZM327.659 58.3H321.459V59.7H327.659V58.3ZM322.159 59V49.7H320.759V59H322.159ZM321.459 49H318.359V50.4H321.459V49ZM317.659 49.7V52.8H319.059V49.7H317.659ZM318.359 52.1H315.259V53.5H318.359V52.1ZM315.959 52.8V49.7H314.559V52.8H315.959ZM315.259 49H312.159V50.4H315.259V49ZM311.459 49.7V59H312.859V49.7H311.459ZM312.159 58.3H305.959V59.7H312.159V58.3ZM306.659 59V37.3H305.259V59H306.659ZM305.959 38H312.159V36.6H305.959V38ZM311.459 37.3V40.4H312.859V37.3H311.459ZM312.159 41.1H315.259V39.7H312.159V41.1ZM314.559 40.4V43.5H315.959V40.4H314.559ZM315.259 44.2H318.359V42.8H315.259V44.2ZM319.059 43.5V40.4H317.659V43.5H319.059ZM318.359 41.1H321.459V39.7H318.359V41.1ZM322.159 40.4V37.3H320.759V40.4H322.159ZM321.459 38H327.659V36.6H321.459V38ZM326.959 37.3V59H328.359V37.3H326.959ZM353.33 55.9V56.6H354.03V55.9H353.33ZM350.23 55.9V55.2H349.53V55.9H350.23ZM350.23 59V59.7H350.93V59H350.23ZM334.73 59H334.03V59.7H334.73V59ZM334.73 55.9H335.43V55.2H334.73V55.9ZM331.63 55.9H330.93V56.6H331.63V55.9ZM331.63 40.4V39.7H330.93V40.4H331.63ZM334.73 40.4V41.1H335.43V40.4H334.73ZM334.73 37.3V36.6H334.03V37.3H334.73ZM350.23 37.3H350.93V36.6H350.23V37.3ZM350.23 40.4H349.53V41.1H350.23V40.4ZM353.33 40.4H354.03V39.7H353.33V40.4ZM347.13 55.9V56.6H347.83V55.9H347.13ZM347.13 40.4H347.83V39.7H347.13V40.4ZM337.83 40.4V39.7H337.13V40.4H337.83ZM337.83 55.9H337.13V56.6H337.83V55.9ZM353.33 55.2H350.23V56.6H353.33V55.2ZM349.53 55.9V59H350.93V55.9H349.53ZM350.23 58.3H334.73V59.7H350.23V58.3ZM335.43 59V55.9H334.03V59H335.43ZM334.73 55.2H331.63V56.6H334.73V55.2ZM332.33 55.9V40.4H330.93V55.9H332.33ZM331.63 41.1H334.73V39.7H331.63V41.1ZM335.43 40.4V37.3H334.03V40.4H335.43ZM334.73 38H350.23V36.6H334.73V38ZM349.53 37.3V40.4H350.93V37.3H349.53ZM350.23 41.1H353.33V39.7H350.23V41.1ZM352.63 40.4V55.9H354.03V40.4H352.63ZM347.83 55.9V40.4H346.43V55.9H347.83ZM347.13 39.7H337.83V41.1H347.13V39.7ZM337.13 40.4V55.9H338.53V40.4H337.13ZM337.83 56.6H347.13V55.2H337.83V56.6ZM379.002 52.8V53.5H379.702V52.8H379.002ZM375.902 52.8V52.1H375.202V52.8H375.902ZM375.902 55.9V56.6H376.602V55.9H375.902ZM372.802 55.9V55.2H372.102V55.9H372.802ZM372.802 59V59.7H373.502V59H372.802ZM357.302 59H356.602V59.7H357.302V59ZM357.302 37.3V36.6H356.602V37.3H357.302ZM372.802 37.3H373.502V36.6H372.802V37.3ZM372.802 40.4H372.102V41.1H372.802V40.4ZM375.902 40.4H376.602V39.7H375.902V40.4ZM375.902 43.5H375.202V44.2H375.902V43.5ZM379.002 43.5H379.702V42.8H379.002V43.5ZM372.802 52.8V53.5H373.502V52.8H372.802ZM372.802 43.5H373.502V42.8H372.802V43.5ZM369.702 43.5H369.002V44.2H369.702V43.5ZM369.702 40.4H370.402V39.7H369.702V40.4ZM363.502 40.4V39.7H362.802V40.4H363.502ZM363.502 55.9H362.802V56.6H363.502V55.9ZM369.702 55.9V56.6H370.402V55.9H369.702ZM369.702 52.8V52.1H369.002V52.8H369.702ZM379.002 52.1H375.902V53.5H379.002V52.1ZM375.202 52.8V55.9H376.602V52.8H375.202ZM375.902 55.2H372.802V56.6H375.902V55.2ZM372.102 55.9V59H373.502V55.9H372.102ZM372.802 58.3H357.302V59.7H372.802V58.3ZM358.002 59V37.3H356.602V59H358.002ZM357.302 38H372.802V36.6H357.302V38ZM372.102 37.3V40.4H373.502V37.3H372.102ZM372.802 41.1H375.902V39.7H372.802V41.1ZM375.202 40.4V43.5H376.602V40.4H375.202ZM375.902 44.2H379.002V42.8H375.902V44.2ZM378.302 43.5V52.8H379.702V43.5H378.302ZM373.502 52.8V43.5H372.102V52.8H373.502ZM372.802 42.8H369.702V44.2H372.802V42.8ZM370.402 43.5V40.4H369.002V43.5H370.402ZM369.702 39.7H363.502V41.1H369.702V39.7ZM362.802 40.4V55.9H364.202V40.4H362.802ZM363.502 56.6H369.702V55.2H363.502V56.6ZM370.402 55.9V52.8H369.002V55.9H370.402ZM369.702 53.5H372.802V52.1H369.702V53.5ZM404.674 59V59.7H405.374V59H404.674ZM382.974 59H382.274V59.7H382.974V59ZM382.974 37.3V36.6H382.274V37.3H382.974ZM404.674 37.3H405.374V36.6H404.674V37.3ZM404.674 40.4V41.1H405.374V40.4H404.674ZM389.174 40.4V39.7H388.474V40.4H389.174ZM389.174 46.6H388.474V47.3H389.174V46.6ZM401.574 46.6H402.274V45.9H401.574V46.6ZM401.574 49.7V50.4H402.274V49.7H401.574ZM389.174 49.7V49H388.474V49.7H389.174ZM389.174 55.9H388.474V56.6H389.174V55.9ZM404.674 55.9H405.374V55.2H404.674V55.9ZM404.674 58.3H382.974V59.7H404.674V58.3ZM383.674 59V37.3H382.274V59H383.674ZM382.974 38H404.674V36.6H382.974V38ZM403.974 37.3V40.4H405.374V37.3H403.974ZM404.674 39.7H389.174V41.1H404.674V39.7ZM388.474 40.4V46.6H389.874V40.4H388.474ZM389.174 47.3H401.574V45.9H389.174V47.3ZM400.874 46.6V49.7H402.274V46.6H400.874ZM401.574 49H389.174V50.4H401.574V49ZM388.474 49.7V55.9H389.874V49.7H388.474ZM389.174 56.6H404.674V55.2H389.174V56.6ZM403.974 55.9V59H405.374V55.9H403.974Z" fill="black" mask="url(#path-1-outside-1_36_5281)"/>
</g>
<defs>
<filter id="filter0_d_36_5281" x="0.984009" y="0.300049" width="403.69" height="61.7" filterUnits="userSpaceOnUse" color-interpolation-filters="sRGB">
<feFlood flood-opacity="0" result="BackgroundImageFix"/>
<feColorMatrix in="SourceAlpha" type="matrix" values="0 0 0 0 0 0 0 0 0 0 0 0 0 0 0 0 0 0 127 0" result="hardAlpha"/>
<feOffset dy="3"/>
<feComposite in2="hardAlpha" operator="out"/>
<feColorMatrix type="matrix" values="0 0 0 0 0.25098 0 0 0 0 0.184314 0 0 0 0 0.360784 0 0 0 1 0"/>
<feBlend mode="normal" in2="BackgroundImageFix" result="effect1_dropShadow_36_5281"/>
<feBlend mode="normal" in="SourceGraphic" in2="effect1_dropShadow_36_5281" result="shape"/>
</filter>
</defs>
</svg>
