<svg width="125" height="39" viewBox="0 0 125 39" fill="none" xmlns="http://www.w3.org/2000/svg">
<g filter="url(#filter0_d_7_13961)">
<path d="M30.7959 1V2.61111H27.5714V4.22222H24.3469V5.83333H21.1224V7.44444H17.898V9.05556H14.6735V10.6667H11.449V12.2778H8.22449V13.8889H5V17.1111H8.22449V18.7222H11.449V20.3333H14.6735V21.9444H17.898V23.5556H21.1224V25.1667H24.3469V26.7778H27.5714V28.3889H30.7959V30H34.0204V18.7222H120.5V12.2778H34.0204V1H30.7959Z" fill="#303030"/>
<path d="M30.7959 1V2.61111H27.5714V4.22222H24.3469V5.83333H21.1224V7.44444H17.898V9.05556H14.6735V10.6667H11.449V12.2778H8.22449V13.8889H5V17.1111H8.22449V18.7222H11.449V20.3333H14.6735V21.9444H17.898V23.5556H21.1224V25.1667H24.3469V26.7778H27.5714V28.3889H30.7959V30H34.0204V18.7222H120.5V12.2778H34.0204V1H30.7959Z" stroke="black"/>
</g>
<defs>
<filter id="filter0_d_7_13961" x="0.5" y="0.5" width="124.5" height="38" filterUnits="userSpaceOnUse" color-interpolation-filters="sRGB">
<feFlood flood-opacity="0" result="BackgroundImageFix"/>
<feColorMatrix in="SourceAlpha" type="matrix" values="0 0 0 0 0 0 0 0 0 0 0 0 0 0 0 0 0 0 127 0" result="hardAlpha"/>
<feOffset dy="4"/>
<feGaussianBlur stdDeviation="2"/>
<feComposite in2="hardAlpha" operator="out"/>
<feColorMatrix type="matrix" values="0 0 0 0 0 0 0 0 0 0 0 0 0 0 0 0 0 0 0.25 0"/>
<feBlend mode="normal" in2="BackgroundImageFix" result="effect1_dropShadow_7_13961"/>
<feBlend mode="normal" in="SourceGraphic" in2="effect1_dropShadow_7_13961" result="shape"/>
</filter>
</defs>
</svg>
